%TF.GenerationSoftware,KiCad,Pcbnew,9.0.4*%
%TF.CreationDate,2025-09-30T03:15:34+08:00*%
%TF.ProjectId,MCU Datalogger,4d435520-4461-4746-916c-6f676765722e,1*%
%TF.SameCoordinates,Original*%
%TF.FileFunction,Plated,1,2,PTH,Drill*%
%TF.FilePolarity,Positive*%
%FSLAX46Y46*%
G04 Gerber Fmt 4.6, Leading zero omitted, Abs format (unit mm)*
G04 Created by KiCad (PCBNEW 9.0.4) date 2025-09-30 03:15:34*
%MOMM*%
%LPD*%
G01*
G04 APERTURE LIST*
%TA.AperFunction,ViaDrill*%
%ADD10C,0.300000*%
%TD*%
%TA.AperFunction,ComponentDrill*%
%ADD11C,1.000000*%
%TD*%
G04 APERTURE END LIST*
D10*
X93345000Y-78105000D03*
X95250000Y-75565000D03*
X97155000Y-78740000D03*
X97611473Y-61560000D03*
X98425000Y-62865000D03*
X99060000Y-78740000D03*
X100965000Y-62865000D03*
X100965000Y-67779997D03*
X100965000Y-68580000D03*
X105938235Y-63393235D03*
X106680000Y-62865000D03*
X106680000Y-70485000D03*
X106786765Y-67416765D03*
X108585000Y-59220000D03*
X108585000Y-61595000D03*
X109255000Y-66900227D03*
X109255000Y-68500226D03*
X109855000Y-70485000D03*
X111175000Y-59227074D03*
X111760000Y-65405000D03*
X112395000Y-78105000D03*
X112560003Y-65405000D03*
X113665000Y-59220000D03*
X113665000Y-65405000D03*
X114300000Y-68580000D03*
X114300000Y-74930000D03*
X114935000Y-70485000D03*
X115708660Y-70688604D03*
X116255000Y-59227074D03*
X117100735Y-72129265D03*
X118110000Y-59690000D03*
X119352863Y-75568676D03*
X119380000Y-60960000D03*
X120015000Y-76200000D03*
X120650000Y-62230000D03*
X120756765Y-79903235D03*
X121920000Y-66040000D03*
X121920000Y-69215000D03*
X122555000Y-62230000D03*
X122555000Y-73330265D03*
X124968000Y-79883000D03*
X125095000Y-65886000D03*
X125349000Y-74549000D03*
X125730000Y-69215000D03*
X126150764Y-61380764D03*
X127000000Y-71120000D03*
X127635000Y-61595000D03*
X127635000Y-64686000D03*
X128270000Y-66040000D03*
X131520002Y-64686000D03*
D11*
%TO.C,BT1*%
X91440000Y-65400000D03*
X91440000Y-67940000D03*
%TO.C,J1*%
X94615000Y-84455000D03*
X97155000Y-84455000D03*
X99695000Y-84455000D03*
X102235000Y-84455000D03*
X104775000Y-84455000D03*
X107315000Y-84455000D03*
X109855000Y-84455000D03*
X112395000Y-84455000D03*
X114935000Y-84455000D03*
%TO.C,J3*%
X120015000Y-84455000D03*
X122555000Y-84455000D03*
X125095000Y-84455000D03*
X127635000Y-84455000D03*
%TO.C,J4*%
X130170000Y-64135000D03*
X130170000Y-66675000D03*
X130170000Y-69215000D03*
X132710000Y-64135000D03*
X132710000Y-66675000D03*
X132710000Y-69215000D03*
%TO.C,J2*%
X132715000Y-73025000D03*
X132715000Y-75565000D03*
X132715000Y-78105000D03*
X132715000Y-80645000D03*
M02*
