%TF.GenerationSoftware,KiCad,Pcbnew,9.0.4*%
%TF.CreationDate,2025-09-30T03:14:49+08:00*%
%TF.ProjectId,MCU Datalogger,4d435520-4461-4746-916c-6f676765722e,1*%
%TF.SameCoordinates,Original*%
%TF.FileFunction,Legend,Bot*%
%TF.FilePolarity,Positive*%
%FSLAX46Y46*%
G04 Gerber Fmt 4.6, Leading zero omitted, Abs format (unit mm)*
G04 Created by KiCad (PCBNEW 9.0.4) date 2025-09-30 03:14:49*
%MOMM*%
%LPD*%
G01*
G04 APERTURE LIST*
%ADD10C,0.100000*%
%ADD11C,0.150000*%
%ADD12C,0.010000*%
G04 APERTURE END LIST*
D10*
X127839115Y-69931578D02*
X127077211Y-69931578D01*
X126648639Y-69407769D02*
X126601020Y-69360150D01*
X126601020Y-69360150D02*
X126505782Y-69312531D01*
X126505782Y-69312531D02*
X126267687Y-69312531D01*
X126267687Y-69312531D02*
X126172449Y-69360150D01*
X126172449Y-69360150D02*
X126124830Y-69407769D01*
X126124830Y-69407769D02*
X126077211Y-69503007D01*
X126077211Y-69503007D02*
X126077211Y-69598245D01*
X126077211Y-69598245D02*
X126124830Y-69741102D01*
X126124830Y-69741102D02*
X126696258Y-70312531D01*
X126696258Y-70312531D02*
X126077211Y-70312531D01*
X125648639Y-70312531D02*
X125648639Y-69312531D01*
X125648639Y-69312531D02*
X125315306Y-70026816D01*
X125315306Y-70026816D02*
X124981973Y-69312531D01*
X124981973Y-69312531D02*
X124981973Y-70312531D01*
X124505782Y-70312531D02*
X124505782Y-69312531D01*
X124505782Y-69693483D02*
X124410544Y-69645864D01*
X124410544Y-69645864D02*
X124220068Y-69645864D01*
X124220068Y-69645864D02*
X124124830Y-69693483D01*
X124124830Y-69693483D02*
X124077211Y-69741102D01*
X124077211Y-69741102D02*
X124029592Y-69836340D01*
X124029592Y-69836340D02*
X124029592Y-70122054D01*
X124029592Y-70122054D02*
X124077211Y-70217292D01*
X124077211Y-70217292D02*
X124124830Y-70264912D01*
X124124830Y-70264912D02*
X124220068Y-70312531D01*
X124220068Y-70312531D02*
X124410544Y-70312531D01*
X124410544Y-70312531D02*
X124505782Y-70264912D01*
X123601020Y-70312531D02*
X123601020Y-69645864D01*
X123601020Y-69312531D02*
X123648639Y-69360150D01*
X123648639Y-69360150D02*
X123601020Y-69407769D01*
X123601020Y-69407769D02*
X123553401Y-69360150D01*
X123553401Y-69360150D02*
X123601020Y-69312531D01*
X123601020Y-69312531D02*
X123601020Y-69407769D01*
X123267687Y-69645864D02*
X122886735Y-69645864D01*
X123124830Y-69312531D02*
X123124830Y-70169673D01*
X123124830Y-70169673D02*
X123077211Y-70264912D01*
X123077211Y-70264912D02*
X122981973Y-70312531D01*
X122981973Y-70312531D02*
X122886735Y-70312531D01*
X121791496Y-69788721D02*
X121458163Y-69788721D01*
X121315306Y-70312531D02*
X121791496Y-70312531D01*
X121791496Y-70312531D02*
X121791496Y-69312531D01*
X121791496Y-69312531D02*
X121315306Y-69312531D01*
X120886734Y-69788721D02*
X120553401Y-69788721D01*
X120410544Y-70312531D02*
X120886734Y-70312531D01*
X120886734Y-70312531D02*
X120886734Y-69312531D01*
X120886734Y-69312531D02*
X120410544Y-69312531D01*
X119981972Y-70312531D02*
X119981972Y-69312531D01*
X119981972Y-69312531D02*
X119601020Y-69312531D01*
X119601020Y-69312531D02*
X119505782Y-69360150D01*
X119505782Y-69360150D02*
X119458163Y-69407769D01*
X119458163Y-69407769D02*
X119410544Y-69503007D01*
X119410544Y-69503007D02*
X119410544Y-69645864D01*
X119410544Y-69645864D02*
X119458163Y-69741102D01*
X119458163Y-69741102D02*
X119505782Y-69788721D01*
X119505782Y-69788721D02*
X119601020Y-69836340D01*
X119601020Y-69836340D02*
X119981972Y-69836340D01*
X118410544Y-70312531D02*
X118743877Y-69836340D01*
X118981972Y-70312531D02*
X118981972Y-69312531D01*
X118981972Y-69312531D02*
X118601020Y-69312531D01*
X118601020Y-69312531D02*
X118505782Y-69360150D01*
X118505782Y-69360150D02*
X118458163Y-69407769D01*
X118458163Y-69407769D02*
X118410544Y-69503007D01*
X118410544Y-69503007D02*
X118410544Y-69645864D01*
X118410544Y-69645864D02*
X118458163Y-69741102D01*
X118458163Y-69741102D02*
X118505782Y-69788721D01*
X118505782Y-69788721D02*
X118601020Y-69836340D01*
X118601020Y-69836340D02*
X118981972Y-69836340D01*
X117791496Y-69312531D02*
X117601020Y-69312531D01*
X117601020Y-69312531D02*
X117505782Y-69360150D01*
X117505782Y-69360150D02*
X117410544Y-69455388D01*
X117410544Y-69455388D02*
X117362925Y-69645864D01*
X117362925Y-69645864D02*
X117362925Y-69979197D01*
X117362925Y-69979197D02*
X117410544Y-70169673D01*
X117410544Y-70169673D02*
X117505782Y-70264912D01*
X117505782Y-70264912D02*
X117601020Y-70312531D01*
X117601020Y-70312531D02*
X117791496Y-70312531D01*
X117791496Y-70312531D02*
X117886734Y-70264912D01*
X117886734Y-70264912D02*
X117981972Y-70169673D01*
X117981972Y-70169673D02*
X118029591Y-69979197D01*
X118029591Y-69979197D02*
X118029591Y-69645864D01*
X118029591Y-69645864D02*
X117981972Y-69455388D01*
X117981972Y-69455388D02*
X117886734Y-69360150D01*
X117886734Y-69360150D02*
X117791496Y-69312531D01*
X116934353Y-70312531D02*
X116934353Y-69312531D01*
X116934353Y-69312531D02*
X116601020Y-70026816D01*
X116601020Y-70026816D02*
X116267687Y-69312531D01*
X116267687Y-69312531D02*
X116267687Y-70312531D01*
X127839115Y-71541522D02*
X127077211Y-71541522D01*
X126029592Y-71922475D02*
X126362925Y-71446284D01*
X126601020Y-71922475D02*
X126601020Y-70922475D01*
X126601020Y-70922475D02*
X126220068Y-70922475D01*
X126220068Y-70922475D02*
X126124830Y-70970094D01*
X126124830Y-70970094D02*
X126077211Y-71017713D01*
X126077211Y-71017713D02*
X126029592Y-71112951D01*
X126029592Y-71112951D02*
X126029592Y-71255808D01*
X126029592Y-71255808D02*
X126077211Y-71351046D01*
X126077211Y-71351046D02*
X126124830Y-71398665D01*
X126124830Y-71398665D02*
X126220068Y-71446284D01*
X126220068Y-71446284D02*
X126601020Y-71446284D01*
X125743877Y-70922475D02*
X125172449Y-70922475D01*
X125458163Y-71922475D02*
X125458163Y-70922475D01*
X124267687Y-71827236D02*
X124315306Y-71874856D01*
X124315306Y-71874856D02*
X124458163Y-71922475D01*
X124458163Y-71922475D02*
X124553401Y-71922475D01*
X124553401Y-71922475D02*
X124696258Y-71874856D01*
X124696258Y-71874856D02*
X124791496Y-71779617D01*
X124791496Y-71779617D02*
X124839115Y-71684379D01*
X124839115Y-71684379D02*
X124886734Y-71493903D01*
X124886734Y-71493903D02*
X124886734Y-71351046D01*
X124886734Y-71351046D02*
X124839115Y-71160570D01*
X124839115Y-71160570D02*
X124791496Y-71065332D01*
X124791496Y-71065332D02*
X124696258Y-70970094D01*
X124696258Y-70970094D02*
X124553401Y-70922475D01*
X124553401Y-70922475D02*
X124458163Y-70922475D01*
X124458163Y-70922475D02*
X124315306Y-70970094D01*
X124315306Y-70970094D02*
X124267687Y-71017713D01*
X127839115Y-73151466D02*
X127077211Y-73151466D01*
X126601020Y-73532419D02*
X126601020Y-72532419D01*
X126172449Y-72627657D02*
X126124830Y-72580038D01*
X126124830Y-72580038D02*
X126029592Y-72532419D01*
X126029592Y-72532419D02*
X125791497Y-72532419D01*
X125791497Y-72532419D02*
X125696259Y-72580038D01*
X125696259Y-72580038D02*
X125648640Y-72627657D01*
X125648640Y-72627657D02*
X125601021Y-72722895D01*
X125601021Y-72722895D02*
X125601021Y-72818133D01*
X125601021Y-72818133D02*
X125648640Y-72960990D01*
X125648640Y-72960990D02*
X126220068Y-73532419D01*
X126220068Y-73532419D02*
X125601021Y-73532419D01*
X124601021Y-73437180D02*
X124648640Y-73484800D01*
X124648640Y-73484800D02*
X124791497Y-73532419D01*
X124791497Y-73532419D02*
X124886735Y-73532419D01*
X124886735Y-73532419D02*
X125029592Y-73484800D01*
X125029592Y-73484800D02*
X125124830Y-73389561D01*
X125124830Y-73389561D02*
X125172449Y-73294323D01*
X125172449Y-73294323D02*
X125220068Y-73103847D01*
X125220068Y-73103847D02*
X125220068Y-72960990D01*
X125220068Y-72960990D02*
X125172449Y-72770514D01*
X125172449Y-72770514D02*
X125124830Y-72675276D01*
X125124830Y-72675276D02*
X125029592Y-72580038D01*
X125029592Y-72580038D02*
X124886735Y-72532419D01*
X124886735Y-72532419D02*
X124791497Y-72532419D01*
X124791497Y-72532419D02*
X124648640Y-72580038D01*
X124648640Y-72580038D02*
X124601021Y-72627657D01*
X124124830Y-73484800D02*
X124124830Y-73532419D01*
X124124830Y-73532419D02*
X124172449Y-73627657D01*
X124172449Y-73627657D02*
X124220068Y-73675276D01*
X122981973Y-73484800D02*
X122839116Y-73532419D01*
X122839116Y-73532419D02*
X122601021Y-73532419D01*
X122601021Y-73532419D02*
X122505783Y-73484800D01*
X122505783Y-73484800D02*
X122458164Y-73437180D01*
X122458164Y-73437180D02*
X122410545Y-73341942D01*
X122410545Y-73341942D02*
X122410545Y-73246704D01*
X122410545Y-73246704D02*
X122458164Y-73151466D01*
X122458164Y-73151466D02*
X122505783Y-73103847D01*
X122505783Y-73103847D02*
X122601021Y-73056228D01*
X122601021Y-73056228D02*
X122791497Y-73008609D01*
X122791497Y-73008609D02*
X122886735Y-72960990D01*
X122886735Y-72960990D02*
X122934354Y-72913371D01*
X122934354Y-72913371D02*
X122981973Y-72818133D01*
X122981973Y-72818133D02*
X122981973Y-72722895D01*
X122981973Y-72722895D02*
X122934354Y-72627657D01*
X122934354Y-72627657D02*
X122886735Y-72580038D01*
X122886735Y-72580038D02*
X122791497Y-72532419D01*
X122791497Y-72532419D02*
X122553402Y-72532419D01*
X122553402Y-72532419D02*
X122410545Y-72580038D01*
X121981973Y-73532419D02*
X121981973Y-72532419D01*
X121981973Y-72532419D02*
X121601021Y-72532419D01*
X121601021Y-72532419D02*
X121505783Y-72580038D01*
X121505783Y-72580038D02*
X121458164Y-72627657D01*
X121458164Y-72627657D02*
X121410545Y-72722895D01*
X121410545Y-72722895D02*
X121410545Y-72865752D01*
X121410545Y-72865752D02*
X121458164Y-72960990D01*
X121458164Y-72960990D02*
X121505783Y-73008609D01*
X121505783Y-73008609D02*
X121601021Y-73056228D01*
X121601021Y-73056228D02*
X121981973Y-73056228D01*
X120981973Y-73532419D02*
X120981973Y-72532419D01*
X120458164Y-73484800D02*
X120458164Y-73532419D01*
X120458164Y-73532419D02*
X120505783Y-73627657D01*
X120505783Y-73627657D02*
X120553402Y-73675276D01*
X118743879Y-72580038D02*
X118839117Y-72532419D01*
X118839117Y-72532419D02*
X118981974Y-72532419D01*
X118981974Y-72532419D02*
X119124831Y-72580038D01*
X119124831Y-72580038D02*
X119220069Y-72675276D01*
X119220069Y-72675276D02*
X119267688Y-72770514D01*
X119267688Y-72770514D02*
X119315307Y-72960990D01*
X119315307Y-72960990D02*
X119315307Y-73103847D01*
X119315307Y-73103847D02*
X119267688Y-73294323D01*
X119267688Y-73294323D02*
X119220069Y-73389561D01*
X119220069Y-73389561D02*
X119124831Y-73484800D01*
X119124831Y-73484800D02*
X118981974Y-73532419D01*
X118981974Y-73532419D02*
X118886736Y-73532419D01*
X118886736Y-73532419D02*
X118743879Y-73484800D01*
X118743879Y-73484800D02*
X118696260Y-73437180D01*
X118696260Y-73437180D02*
X118696260Y-73103847D01*
X118696260Y-73103847D02*
X118886736Y-73103847D01*
X118267688Y-73532419D02*
X118267688Y-72532419D01*
X118267688Y-72532419D02*
X117886736Y-72532419D01*
X117886736Y-72532419D02*
X117791498Y-72580038D01*
X117791498Y-72580038D02*
X117743879Y-72627657D01*
X117743879Y-72627657D02*
X117696260Y-72722895D01*
X117696260Y-72722895D02*
X117696260Y-72865752D01*
X117696260Y-72865752D02*
X117743879Y-72960990D01*
X117743879Y-72960990D02*
X117791498Y-73008609D01*
X117791498Y-73008609D02*
X117886736Y-73056228D01*
X117886736Y-73056228D02*
X118267688Y-73056228D01*
X117267688Y-73532419D02*
X117267688Y-72532419D01*
X116601022Y-72532419D02*
X116410546Y-72532419D01*
X116410546Y-72532419D02*
X116315308Y-72580038D01*
X116315308Y-72580038D02*
X116220070Y-72675276D01*
X116220070Y-72675276D02*
X116172451Y-72865752D01*
X116172451Y-72865752D02*
X116172451Y-73199085D01*
X116172451Y-73199085D02*
X116220070Y-73389561D01*
X116220070Y-73389561D02*
X116315308Y-73484800D01*
X116315308Y-73484800D02*
X116410546Y-73532419D01*
X116410546Y-73532419D02*
X116601022Y-73532419D01*
X116601022Y-73532419D02*
X116696260Y-73484800D01*
X116696260Y-73484800D02*
X116791498Y-73389561D01*
X116791498Y-73389561D02*
X116839117Y-73199085D01*
X116839117Y-73199085D02*
X116839117Y-72865752D01*
X116839117Y-72865752D02*
X116791498Y-72675276D01*
X116791498Y-72675276D02*
X116696260Y-72580038D01*
X116696260Y-72580038D02*
X116601022Y-72532419D01*
X115696260Y-72532419D02*
X115791498Y-72722895D01*
X115315308Y-73484800D02*
X115172451Y-73532419D01*
X115172451Y-73532419D02*
X114934356Y-73532419D01*
X114934356Y-73532419D02*
X114839118Y-73484800D01*
X114839118Y-73484800D02*
X114791499Y-73437180D01*
X114791499Y-73437180D02*
X114743880Y-73341942D01*
X114743880Y-73341942D02*
X114743880Y-73246704D01*
X114743880Y-73246704D02*
X114791499Y-73151466D01*
X114791499Y-73151466D02*
X114839118Y-73103847D01*
X114839118Y-73103847D02*
X114934356Y-73056228D01*
X114934356Y-73056228D02*
X115124832Y-73008609D01*
X115124832Y-73008609D02*
X115220070Y-72960990D01*
X115220070Y-72960990D02*
X115267689Y-72913371D01*
X115267689Y-72913371D02*
X115315308Y-72818133D01*
X115315308Y-72818133D02*
X115315308Y-72722895D01*
X115315308Y-72722895D02*
X115267689Y-72627657D01*
X115267689Y-72627657D02*
X115220070Y-72580038D01*
X115220070Y-72580038D02*
X115124832Y-72532419D01*
X115124832Y-72532419D02*
X114886737Y-72532419D01*
X114886737Y-72532419D02*
X114743880Y-72580038D01*
X127106115Y-66307475D02*
X127106115Y-65307475D01*
X127106115Y-65307475D02*
X126868020Y-65307475D01*
X126868020Y-65307475D02*
X126725163Y-65355094D01*
X126725163Y-65355094D02*
X126629925Y-65450332D01*
X126629925Y-65450332D02*
X126582306Y-65545570D01*
X126582306Y-65545570D02*
X126534687Y-65736046D01*
X126534687Y-65736046D02*
X126534687Y-65878903D01*
X126534687Y-65878903D02*
X126582306Y-66069379D01*
X126582306Y-66069379D02*
X126629925Y-66164617D01*
X126629925Y-66164617D02*
X126725163Y-66259856D01*
X126725163Y-66259856D02*
X126868020Y-66307475D01*
X126868020Y-66307475D02*
X127106115Y-66307475D01*
X126153734Y-66021760D02*
X125677544Y-66021760D01*
X126248972Y-66307475D02*
X125915639Y-65307475D01*
X125915639Y-65307475D02*
X125582306Y-66307475D01*
X125391829Y-65307475D02*
X124820401Y-65307475D01*
X125106115Y-66307475D02*
X125106115Y-65307475D01*
X124534686Y-66021760D02*
X124058496Y-66021760D01*
X124629924Y-66307475D02*
X124296591Y-65307475D01*
X124296591Y-65307475D02*
X123963258Y-66307475D01*
X123153734Y-66307475D02*
X123629924Y-66307475D01*
X123629924Y-66307475D02*
X123629924Y-65307475D01*
X122629924Y-65307475D02*
X122439448Y-65307475D01*
X122439448Y-65307475D02*
X122344210Y-65355094D01*
X122344210Y-65355094D02*
X122248972Y-65450332D01*
X122248972Y-65450332D02*
X122201353Y-65640808D01*
X122201353Y-65640808D02*
X122201353Y-65974141D01*
X122201353Y-65974141D02*
X122248972Y-66164617D01*
X122248972Y-66164617D02*
X122344210Y-66259856D01*
X122344210Y-66259856D02*
X122439448Y-66307475D01*
X122439448Y-66307475D02*
X122629924Y-66307475D01*
X122629924Y-66307475D02*
X122725162Y-66259856D01*
X122725162Y-66259856D02*
X122820400Y-66164617D01*
X122820400Y-66164617D02*
X122868019Y-65974141D01*
X122868019Y-65974141D02*
X122868019Y-65640808D01*
X122868019Y-65640808D02*
X122820400Y-65450332D01*
X122820400Y-65450332D02*
X122725162Y-65355094D01*
X122725162Y-65355094D02*
X122629924Y-65307475D01*
X121248972Y-65355094D02*
X121344210Y-65307475D01*
X121344210Y-65307475D02*
X121487067Y-65307475D01*
X121487067Y-65307475D02*
X121629924Y-65355094D01*
X121629924Y-65355094D02*
X121725162Y-65450332D01*
X121725162Y-65450332D02*
X121772781Y-65545570D01*
X121772781Y-65545570D02*
X121820400Y-65736046D01*
X121820400Y-65736046D02*
X121820400Y-65878903D01*
X121820400Y-65878903D02*
X121772781Y-66069379D01*
X121772781Y-66069379D02*
X121725162Y-66164617D01*
X121725162Y-66164617D02*
X121629924Y-66259856D01*
X121629924Y-66259856D02*
X121487067Y-66307475D01*
X121487067Y-66307475D02*
X121391829Y-66307475D01*
X121391829Y-66307475D02*
X121248972Y-66259856D01*
X121248972Y-66259856D02*
X121201353Y-66212236D01*
X121201353Y-66212236D02*
X121201353Y-65878903D01*
X121201353Y-65878903D02*
X121391829Y-65878903D01*
X120248972Y-65355094D02*
X120344210Y-65307475D01*
X120344210Y-65307475D02*
X120487067Y-65307475D01*
X120487067Y-65307475D02*
X120629924Y-65355094D01*
X120629924Y-65355094D02*
X120725162Y-65450332D01*
X120725162Y-65450332D02*
X120772781Y-65545570D01*
X120772781Y-65545570D02*
X120820400Y-65736046D01*
X120820400Y-65736046D02*
X120820400Y-65878903D01*
X120820400Y-65878903D02*
X120772781Y-66069379D01*
X120772781Y-66069379D02*
X120725162Y-66164617D01*
X120725162Y-66164617D02*
X120629924Y-66259856D01*
X120629924Y-66259856D02*
X120487067Y-66307475D01*
X120487067Y-66307475D02*
X120391829Y-66307475D01*
X120391829Y-66307475D02*
X120248972Y-66259856D01*
X120248972Y-66259856D02*
X120201353Y-66212236D01*
X120201353Y-66212236D02*
X120201353Y-65878903D01*
X120201353Y-65878903D02*
X120391829Y-65878903D01*
X119772781Y-65783665D02*
X119439448Y-65783665D01*
X119296591Y-66307475D02*
X119772781Y-66307475D01*
X119772781Y-66307475D02*
X119772781Y-65307475D01*
X119772781Y-65307475D02*
X119296591Y-65307475D01*
X118296591Y-66307475D02*
X118629924Y-65831284D01*
X118868019Y-66307475D02*
X118868019Y-65307475D01*
X118868019Y-65307475D02*
X118487067Y-65307475D01*
X118487067Y-65307475D02*
X118391829Y-65355094D01*
X118391829Y-65355094D02*
X118344210Y-65402713D01*
X118344210Y-65402713D02*
X118296591Y-65497951D01*
X118296591Y-65497951D02*
X118296591Y-65640808D01*
X118296591Y-65640808D02*
X118344210Y-65736046D01*
X118344210Y-65736046D02*
X118391829Y-65783665D01*
X118391829Y-65783665D02*
X118487067Y-65831284D01*
X118487067Y-65831284D02*
X118868019Y-65831284D01*
X117201352Y-65307475D02*
X116963257Y-66307475D01*
X116963257Y-66307475D02*
X116772781Y-65593189D01*
X116772781Y-65593189D02*
X116582305Y-66307475D01*
X116582305Y-66307475D02*
X116344210Y-65307475D01*
X115963257Y-66307475D02*
X115963257Y-65307475D01*
X115629924Y-65307475D02*
X115058496Y-65307475D01*
X115344210Y-66307475D02*
X115344210Y-65307475D01*
X114725162Y-66307475D02*
X114725162Y-65307475D01*
X114725162Y-65783665D02*
X114153734Y-65783665D01*
X114153734Y-66307475D02*
X114153734Y-65307475D01*
X127248972Y-66917419D02*
X126677544Y-66917419D01*
X126963258Y-67917419D02*
X126963258Y-66917419D01*
X126344210Y-67917419D02*
X126344210Y-66917419D01*
X126344210Y-67393609D02*
X125772782Y-67393609D01*
X125772782Y-67917419D02*
X125772782Y-66917419D01*
X125296591Y-67393609D02*
X124963258Y-67393609D01*
X124820401Y-67917419D02*
X125296591Y-67917419D01*
X125296591Y-67917419D02*
X125296591Y-66917419D01*
X125296591Y-66917419D02*
X124820401Y-66917419D01*
X123677543Y-67631704D02*
X123201353Y-67631704D01*
X123772781Y-67917419D02*
X123439448Y-66917419D01*
X123439448Y-66917419D02*
X123106115Y-67917419D01*
X122915638Y-66917419D02*
X122344210Y-66917419D01*
X122629924Y-67917419D02*
X122629924Y-66917419D01*
X122010876Y-67917419D02*
X122010876Y-66917419D01*
X122010876Y-66917419D02*
X121677543Y-67631704D01*
X121677543Y-67631704D02*
X121344210Y-66917419D01*
X121344210Y-66917419D02*
X121344210Y-67917419D01*
X120868019Y-67393609D02*
X120534686Y-67393609D01*
X120391829Y-67917419D02*
X120868019Y-67917419D01*
X120868019Y-67917419D02*
X120868019Y-66917419D01*
X120868019Y-66917419D02*
X120391829Y-66917419D01*
X119439448Y-66965038D02*
X119534686Y-66917419D01*
X119534686Y-66917419D02*
X119677543Y-66917419D01*
X119677543Y-66917419D02*
X119820400Y-66965038D01*
X119820400Y-66965038D02*
X119915638Y-67060276D01*
X119915638Y-67060276D02*
X119963257Y-67155514D01*
X119963257Y-67155514D02*
X120010876Y-67345990D01*
X120010876Y-67345990D02*
X120010876Y-67488847D01*
X120010876Y-67488847D02*
X119963257Y-67679323D01*
X119963257Y-67679323D02*
X119915638Y-67774561D01*
X119915638Y-67774561D02*
X119820400Y-67869800D01*
X119820400Y-67869800D02*
X119677543Y-67917419D01*
X119677543Y-67917419D02*
X119582305Y-67917419D01*
X119582305Y-67917419D02*
X119439448Y-67869800D01*
X119439448Y-67869800D02*
X119391829Y-67822180D01*
X119391829Y-67822180D02*
X119391829Y-67488847D01*
X119391829Y-67488847D02*
X119582305Y-67488847D01*
X119010876Y-67631704D02*
X118534686Y-67631704D01*
X119106114Y-67917419D02*
X118772781Y-66917419D01*
X118772781Y-66917419D02*
X118439448Y-67917419D01*
X118201352Y-66917419D02*
X117582305Y-66917419D01*
X117582305Y-66917419D02*
X117915638Y-67298371D01*
X117915638Y-67298371D02*
X117772781Y-67298371D01*
X117772781Y-67298371D02*
X117677543Y-67345990D01*
X117677543Y-67345990D02*
X117629924Y-67393609D01*
X117629924Y-67393609D02*
X117582305Y-67488847D01*
X117582305Y-67488847D02*
X117582305Y-67726942D01*
X117582305Y-67726942D02*
X117629924Y-67822180D01*
X117629924Y-67822180D02*
X117677543Y-67869800D01*
X117677543Y-67869800D02*
X117772781Y-67917419D01*
X117772781Y-67917419D02*
X118058495Y-67917419D01*
X118058495Y-67917419D02*
X118153733Y-67869800D01*
X118153733Y-67869800D02*
X118201352Y-67822180D01*
X117201352Y-67012657D02*
X117153733Y-66965038D01*
X117153733Y-66965038D02*
X117058495Y-66917419D01*
X117058495Y-66917419D02*
X116820400Y-66917419D01*
X116820400Y-66917419D02*
X116725162Y-66965038D01*
X116725162Y-66965038D02*
X116677543Y-67012657D01*
X116677543Y-67012657D02*
X116629924Y-67107895D01*
X116629924Y-67107895D02*
X116629924Y-67203133D01*
X116629924Y-67203133D02*
X116677543Y-67345990D01*
X116677543Y-67345990D02*
X117248971Y-67917419D01*
X117248971Y-67917419D02*
X116629924Y-67917419D01*
X116058495Y-67345990D02*
X116153733Y-67298371D01*
X116153733Y-67298371D02*
X116201352Y-67250752D01*
X116201352Y-67250752D02*
X116248971Y-67155514D01*
X116248971Y-67155514D02*
X116248971Y-67107895D01*
X116248971Y-67107895D02*
X116201352Y-67012657D01*
X116201352Y-67012657D02*
X116153733Y-66965038D01*
X116153733Y-66965038D02*
X116058495Y-66917419D01*
X116058495Y-66917419D02*
X115868019Y-66917419D01*
X115868019Y-66917419D02*
X115772781Y-66965038D01*
X115772781Y-66965038D02*
X115725162Y-67012657D01*
X115725162Y-67012657D02*
X115677543Y-67107895D01*
X115677543Y-67107895D02*
X115677543Y-67155514D01*
X115677543Y-67155514D02*
X115725162Y-67250752D01*
X115725162Y-67250752D02*
X115772781Y-67298371D01*
X115772781Y-67298371D02*
X115868019Y-67345990D01*
X115868019Y-67345990D02*
X116058495Y-67345990D01*
X116058495Y-67345990D02*
X116153733Y-67393609D01*
X116153733Y-67393609D02*
X116201352Y-67441228D01*
X116201352Y-67441228D02*
X116248971Y-67536466D01*
X116248971Y-67536466D02*
X116248971Y-67726942D01*
X116248971Y-67726942D02*
X116201352Y-67822180D01*
X116201352Y-67822180D02*
X116153733Y-67869800D01*
X116153733Y-67869800D02*
X116058495Y-67917419D01*
X116058495Y-67917419D02*
X115868019Y-67917419D01*
X115868019Y-67917419D02*
X115772781Y-67869800D01*
X115772781Y-67869800D02*
X115725162Y-67822180D01*
X115725162Y-67822180D02*
X115677543Y-67726942D01*
X115677543Y-67726942D02*
X115677543Y-67536466D01*
X115677543Y-67536466D02*
X115725162Y-67441228D01*
X115725162Y-67441228D02*
X115772781Y-67393609D01*
X115772781Y-67393609D02*
X115868019Y-67345990D01*
X115248971Y-67917419D02*
X115248971Y-66917419D01*
X115248971Y-66917419D02*
X114868019Y-66917419D01*
X114868019Y-66917419D02*
X114772781Y-66965038D01*
X114772781Y-66965038D02*
X114725162Y-67012657D01*
X114725162Y-67012657D02*
X114677543Y-67107895D01*
X114677543Y-67107895D02*
X114677543Y-67250752D01*
X114677543Y-67250752D02*
X114725162Y-67345990D01*
X114725162Y-67345990D02*
X114772781Y-67393609D01*
X114772781Y-67393609D02*
X114868019Y-67441228D01*
X114868019Y-67441228D02*
X115248971Y-67441228D01*
D11*
%TO.C,REF\u002A\u002A*%
X108920610Y-79838550D02*
X108920610Y-80288130D01*
X108920610Y-80288130D02*
X108770750Y-80689450D01*
X108770750Y-80689450D02*
X108471030Y-80839310D01*
X108719950Y-79439770D02*
X108920610Y-79838550D01*
X108471030Y-80839310D02*
X108069710Y-80839310D01*
X108270370Y-79289910D02*
X108719950Y-79439770D01*
X108069710Y-79388970D02*
X108270370Y-79289910D01*
X108069710Y-80839310D02*
X108018910Y-80288130D01*
X108018910Y-80288130D02*
X108270370Y-80189070D01*
X107320410Y-79338170D02*
X106469510Y-80839310D01*
X107320410Y-80890110D02*
X107320410Y-79338170D01*
X107269610Y-72337930D02*
X106969890Y-73239630D01*
X107218810Y-72188070D02*
X105920870Y-71840090D01*
X107170550Y-71639430D02*
X107269610Y-72337930D01*
X107119750Y-72640190D02*
X107218810Y-72188070D01*
X107068950Y-71588630D02*
X105819270Y-71189850D01*
X106969890Y-73239630D02*
X106418710Y-73740010D01*
X106769230Y-73287890D02*
X106070730Y-71989950D01*
X106720970Y-70839330D02*
X107170550Y-71639430D01*
X106469510Y-80839310D02*
X106469510Y-79338170D01*
X106418710Y-73740010D02*
X105771010Y-73988930D01*
X106319650Y-70689470D02*
X105270630Y-70938390D01*
X106268850Y-73638410D02*
X105819270Y-72487790D01*
X106118990Y-70438010D02*
X106720970Y-70839330D01*
X106070730Y-71989950D02*
X107119750Y-72640190D01*
X106019930Y-75088750D02*
X104620390Y-74540110D01*
X105969130Y-72038210D02*
X105870070Y-71387970D01*
X105920870Y-71840090D02*
X107068950Y-71588630D01*
X105870070Y-71387970D02*
X105570350Y-71139050D01*
X105819270Y-71189850D02*
X106319650Y-70689470D01*
X105819270Y-72487790D02*
X106769230Y-73287890D01*
X105771010Y-70288150D02*
X106118990Y-70438010D01*
X105771010Y-72538590D02*
X105969130Y-72038210D01*
X105771010Y-73988930D02*
X105019170Y-72790050D01*
X105771010Y-79338170D02*
X105771010Y-80488790D01*
X105771010Y-80488790D02*
X105618610Y-80737710D01*
X105618610Y-80737710D02*
X105270630Y-80890110D01*
X105570350Y-71139050D02*
X105120770Y-70989190D01*
X105519550Y-73740010D02*
X105519550Y-74339450D01*
X105519550Y-74339450D02*
X106019930Y-75088750D01*
X105369690Y-70239890D02*
X105771010Y-70288150D01*
X105318890Y-70288150D02*
X104219070Y-70788530D01*
X105318890Y-72688450D02*
X105771010Y-72538590D01*
X105270630Y-70938390D02*
X105318890Y-70288150D01*
X105270630Y-72838310D02*
X106268850Y-73638410D01*
X105270630Y-75337670D02*
X105270630Y-74839830D01*
X105270630Y-75838050D02*
X105270630Y-75337670D01*
X105270630Y-80890110D02*
X104970910Y-80737710D01*
X105219830Y-76239370D02*
X105270630Y-75838050D01*
X105169030Y-76638150D02*
X105219830Y-76239370D01*
X105120770Y-70989190D02*
X104470530Y-70839330D01*
X105069970Y-77039470D02*
X105169030Y-76638150D01*
X105019170Y-72790050D02*
X104320670Y-72139810D01*
X105019170Y-77339190D02*
X105069970Y-77039470D01*
X104970910Y-72289670D02*
X105318890Y-72688450D01*
X104970910Y-80737710D02*
X104869310Y-80437990D01*
X104869310Y-80437990D02*
X104869310Y-79338170D01*
X104770250Y-77588110D02*
X105019170Y-77339190D01*
X104719450Y-74839830D02*
X104419730Y-75289410D01*
X104620390Y-74540110D02*
X104120010Y-74189590D01*
X104620390Y-77788770D02*
X104770250Y-77588110D01*
X104569590Y-72439530D02*
X104069210Y-72139810D01*
X104518790Y-71840090D02*
X104970910Y-72289670D01*
X104518790Y-75738990D02*
X104069210Y-76038710D01*
X104470530Y-70839330D02*
X104120010Y-70890130D01*
X104419730Y-70389750D02*
X105369690Y-70239890D01*
X104419730Y-75289410D02*
X104518790Y-75738990D01*
X104368930Y-77989430D02*
X104620390Y-77788770D01*
X104320670Y-72139810D02*
X103718690Y-71687690D01*
X104269870Y-76688950D02*
X103718690Y-77087730D01*
X104269870Y-77989430D02*
X104069210Y-77938630D01*
X104120010Y-70890130D02*
X103568830Y-70638670D01*
X104120010Y-74189590D02*
X103970150Y-73239630D01*
X104069210Y-72139810D02*
X103319910Y-71789290D01*
X104069210Y-76038710D02*
X104269870Y-76688950D01*
X103970150Y-73239630D02*
X103370710Y-72688450D01*
X103919350Y-71438770D02*
X104518790Y-71840090D01*
X103919350Y-77788770D02*
X103370710Y-78238350D01*
X103769490Y-70438010D02*
X104419730Y-70389750D01*
X103718690Y-71687690D02*
X103170050Y-71639430D01*
X103718690Y-77087730D02*
X103919350Y-77788770D01*
X103568830Y-70638670D02*
X103370710Y-70288150D01*
X103520570Y-73539350D02*
X103319910Y-73788270D01*
X103520570Y-79140050D02*
X103170050Y-79488030D01*
X103418970Y-71387970D02*
X103919350Y-71438770D01*
X103418970Y-78339950D02*
X103220850Y-78738730D01*
X103370710Y-70288150D02*
X103769490Y-70438010D01*
X103370710Y-75088750D02*
X103670430Y-75037950D01*
X103319910Y-71789290D02*
X102969390Y-71789290D01*
X103319910Y-73788270D02*
X102918590Y-73788270D01*
X103269110Y-73287890D02*
X103520570Y-73539350D01*
X103220850Y-75337670D02*
X103370710Y-75088750D01*
X103220850Y-78738730D02*
X103119250Y-79038450D01*
X103220850Y-79787750D02*
X103170050Y-79940150D01*
X103170050Y-71639430D02*
X102720470Y-71840090D01*
X103170050Y-79488030D02*
X103220850Y-79787750D01*
X103119250Y-79038450D02*
X103520570Y-79140050D01*
X103119250Y-79988410D02*
X103170050Y-80090010D01*
X103070990Y-75838050D02*
X103220850Y-75337670D01*
X102918590Y-71489570D02*
X103418970Y-71387970D01*
X102918590Y-73788270D02*
X102519810Y-73590150D01*
X102870330Y-76188570D02*
X103070990Y-75838050D01*
X102819530Y-73389490D02*
X103269110Y-73287890D01*
X102819530Y-78088490D02*
X102720470Y-78289150D01*
X102720470Y-71840090D02*
X102319150Y-71939150D01*
X102720470Y-76389230D02*
X102870330Y-76188570D01*
X102720470Y-78289150D02*
X102469010Y-78489810D01*
X102669670Y-77689710D02*
X102819530Y-78088490D01*
X102618870Y-71639430D02*
X102918590Y-71489570D01*
X102618870Y-74387710D02*
X102819530Y-74438510D01*
X102519810Y-72439530D02*
X102121030Y-72289670D01*
X102469010Y-73539350D02*
X102819530Y-73389490D01*
X102469010Y-74938890D02*
X102420750Y-75337670D01*
X102469010Y-78489810D02*
X102319150Y-78687930D01*
X102420750Y-71687690D02*
X102618870Y-71639430D01*
X102420750Y-74288650D02*
X102618870Y-74387710D01*
X102420750Y-75337670D02*
X102169290Y-75490070D01*
X102420750Y-79188310D02*
X102369950Y-79739490D01*
X102369950Y-78990190D02*
X102420750Y-79188310D01*
X102369950Y-79739490D02*
X102169290Y-79940150D01*
X102319150Y-71939150D02*
X101869570Y-71789290D01*
X102319150Y-78687930D02*
X102369950Y-78990190D01*
X102270890Y-74288650D02*
X102420750Y-74288650D01*
X102270890Y-76539090D02*
X102720470Y-76389230D01*
X102270890Y-77737970D02*
X101968630Y-78037690D01*
X102169290Y-75490070D02*
X101869570Y-75490070D01*
X102121030Y-72289670D02*
X101869570Y-71939150D01*
X102070230Y-74789030D02*
X102469010Y-74938890D01*
X102070230Y-77288390D02*
X102270890Y-77737970D01*
X101968630Y-74288650D02*
X102270890Y-74288650D01*
X101968630Y-78037690D02*
X101569850Y-78238350D01*
X101920370Y-71438770D02*
X102420750Y-71687690D01*
X101920370Y-76638150D02*
X101519050Y-76889610D01*
X101869570Y-71789290D02*
X101419990Y-71888350D01*
X101869570Y-73437750D02*
X101818770Y-73889870D01*
X101869570Y-75490070D02*
X101770510Y-75388470D01*
X101818770Y-73889870D02*
X101668910Y-74288650D01*
X101770510Y-71989950D02*
X101120270Y-72188070D01*
X101770510Y-75388470D02*
X101620650Y-75139550D01*
X101770510Y-76589890D02*
X102270890Y-76539090D01*
X101770510Y-79089250D02*
X101620650Y-79338170D01*
X101668910Y-71687690D02*
X101419990Y-71738490D01*
X101668910Y-74288650D02*
X101569850Y-74438510D01*
X101668910Y-74438510D02*
X101968630Y-74288650D01*
X101620650Y-75139550D02*
X102070230Y-74789030D01*
X101620650Y-78687930D02*
X101770510Y-79089250D01*
X101569850Y-77339190D02*
X101519050Y-77539850D01*
X101569850Y-78238350D02*
X101620650Y-78687930D01*
X101519050Y-71438770D02*
X101920370Y-71438770D01*
X101519050Y-74489310D02*
X101419990Y-74639170D01*
X101519050Y-76889610D02*
X101270130Y-76889610D01*
X101519050Y-77189330D02*
X101569850Y-77339190D01*
X101519050Y-77539850D02*
X101320930Y-77737970D01*
X101419990Y-70488810D02*
X100970410Y-71088250D01*
X101419990Y-71888350D02*
X100820550Y-72188070D01*
X101419990Y-74639170D02*
X101270130Y-74789030D01*
X101369190Y-70389750D02*
X100769750Y-70638670D01*
X101320930Y-73389490D02*
X101171070Y-73038970D01*
X101320930Y-76638150D02*
X101770510Y-76589890D01*
X101320930Y-77737970D02*
X101069470Y-77938630D01*
X101270130Y-74789030D02*
X101120270Y-74789030D01*
X101270130Y-75939650D02*
X101120270Y-76290170D01*
X101270130Y-76937870D02*
X101018670Y-77039470D01*
X101219330Y-71588630D02*
X101519050Y-71438770D01*
X101219330Y-78888590D02*
X101171070Y-78888590D01*
X101171070Y-73038970D02*
X100769750Y-73138030D01*
X101120270Y-72188070D02*
X100718950Y-72388730D01*
X101120270Y-74789030D02*
X100919610Y-74689970D01*
X101120270Y-76290170D02*
X100769750Y-76488290D01*
X101069470Y-77938630D02*
X100970410Y-78289150D01*
X101069470Y-78588870D02*
X101219330Y-78888590D01*
X101018670Y-77039470D02*
X100769750Y-77039470D01*
X100970410Y-71088250D02*
X100619890Y-71189850D01*
X100970410Y-71789290D02*
X101219330Y-71588630D01*
X100970410Y-77087730D02*
X101519050Y-77189330D01*
X100970410Y-78289150D02*
X101069470Y-78588870D01*
X100919610Y-74689970D02*
X100718950Y-74689970D01*
X100868810Y-75838050D02*
X101270130Y-75939650D01*
X100820550Y-72188070D02*
X100619890Y-72439530D01*
X100769750Y-70638670D02*
X100320170Y-70539610D01*
X100769750Y-73138030D02*
X100670690Y-73338690D01*
X100769750Y-73590150D02*
X101219330Y-73488550D01*
X100769750Y-73988930D02*
X100820550Y-74639170D01*
X100769750Y-74689970D02*
X100370970Y-74689970D01*
X100769750Y-75238610D02*
X100868810Y-75388470D01*
X100769750Y-77039470D02*
X100970410Y-77087730D01*
X100718950Y-72388730D02*
X99421010Y-73239630D01*
X100718950Y-75838050D02*
X100868810Y-75838050D01*
X100718950Y-76539090D02*
X101320930Y-76638150D01*
X100670690Y-73338690D02*
X100769750Y-73590150D01*
X100619890Y-71189850D02*
X100170310Y-71189850D01*
X100619890Y-72439530D02*
X99918850Y-73539350D01*
X100520830Y-72089010D02*
X100970410Y-71789290D01*
X100470030Y-80189070D02*
X100320170Y-80638650D01*
X100419230Y-79688690D02*
X100470030Y-80189070D01*
X100370970Y-74689970D02*
X100218570Y-74839830D01*
X100320170Y-70539610D02*
X99819790Y-70288150D01*
X100320170Y-80638650D02*
X99969650Y-80788510D01*
X100218570Y-71039990D02*
X99720730Y-70338950D01*
X100218570Y-74288650D02*
X100670690Y-73889870D01*
X100218570Y-74839830D02*
X100718950Y-75838050D01*
X100170310Y-71189850D02*
X99819790Y-71238110D01*
X100170310Y-72238870D02*
X100520830Y-72089010D01*
X100119510Y-79338170D02*
X100419230Y-79688690D01*
X99969650Y-80788510D02*
X99520070Y-80689450D01*
X99918850Y-73539350D02*
X99619130Y-74189590D01*
X99870590Y-72188070D02*
X100170310Y-72238870D01*
X99819790Y-70288150D02*
X99370210Y-70239890D01*
X99819790Y-71238110D02*
X99619130Y-71639430D01*
X99819790Y-79289910D02*
X100119510Y-79338170D01*
X99720730Y-70338950D02*
X100868810Y-71039990D01*
X99669930Y-72139810D02*
X98920630Y-72838310D01*
X99619130Y-71288910D02*
X98471050Y-70839330D01*
X99619130Y-71639430D02*
X99570870Y-71939150D01*
X99619130Y-74189590D02*
X100218570Y-74288650D01*
X99570870Y-71939150D02*
X99870590Y-72188070D01*
X99570870Y-79388970D02*
X99819790Y-79289910D01*
X99520070Y-80189070D02*
X99819790Y-80189070D01*
X99520070Y-80689450D02*
X99520070Y-80189070D01*
X99421010Y-73239630D02*
X99669930Y-72139810D01*
X99370210Y-70239890D02*
X98920630Y-70488810D01*
X99370210Y-71738490D02*
X98369450Y-71989950D01*
X99070490Y-73138030D02*
X99619130Y-73539350D01*
X98920630Y-70488810D02*
X98471050Y-70788530D01*
X98920630Y-72838310D02*
X99370210Y-71738490D01*
X98869830Y-79338170D02*
X98318650Y-79289910D01*
X98869830Y-80788510D02*
X98869830Y-79338170D01*
X98620910Y-72739250D02*
X99070490Y-73138030D01*
X98471050Y-70788530D02*
X98270390Y-71339710D01*
X98471050Y-70839330D02*
X100218570Y-71039990D01*
X98369450Y-71989950D02*
X99619130Y-71288910D01*
X98369450Y-72188070D02*
X98620910Y-72739250D01*
X98318650Y-79289910D02*
X98069730Y-79488030D01*
X98270390Y-71339710D02*
X98270390Y-71789290D01*
X98270390Y-71789290D02*
X98369450Y-72188070D01*
X98270390Y-80039210D02*
X98770770Y-79988410D01*
X98069730Y-79488030D02*
X97970670Y-79889350D01*
X97970670Y-79889350D02*
X98270390Y-80039210D01*
X97320430Y-79239110D02*
X97320430Y-80839310D01*
X97320430Y-80839310D02*
X96619390Y-80839310D01*
D12*
X99565406Y-66349949D02*
X99591127Y-66365647D01*
X99617778Y-66387227D01*
X99617778Y-67034684D01*
X99591127Y-67056264D01*
X99559767Y-67073739D01*
X99523966Y-67074575D01*
X99492528Y-67054082D01*
X99488652Y-67049416D01*
X99483186Y-67039949D01*
X99478979Y-67026267D01*
X99475867Y-67005748D01*
X99473687Y-66975768D01*
X99472276Y-66933704D01*
X99471471Y-66876932D01*
X99471107Y-66802830D01*
X99471022Y-66708773D01*
X99471022Y-66387227D01*
X99497673Y-66365647D01*
X99521386Y-66350877D01*
X99544400Y-66344067D01*
X99565406Y-66349949D01*
G36*
X99565406Y-66349949D02*
G01*
X99591127Y-66365647D01*
X99617778Y-66387227D01*
X99617778Y-67034684D01*
X99591127Y-67056264D01*
X99559767Y-67073739D01*
X99523966Y-67074575D01*
X99492528Y-67054082D01*
X99488652Y-67049416D01*
X99483186Y-67039949D01*
X99478979Y-67026267D01*
X99475867Y-67005748D01*
X99473687Y-66975768D01*
X99472276Y-66933704D01*
X99471471Y-66876932D01*
X99471107Y-66802830D01*
X99471022Y-66708773D01*
X99471022Y-66387227D01*
X99497673Y-66365647D01*
X99521386Y-66350877D01*
X99544400Y-66344067D01*
X99565406Y-66349949D01*
G37*
X106696137Y-66348463D02*
X106730291Y-66371776D01*
X106758000Y-66399485D01*
X106758000Y-66712537D01*
X106757959Y-66796567D01*
X106757701Y-66870789D01*
X106757030Y-66927541D01*
X106755752Y-66969512D01*
X106753673Y-66999389D01*
X106750599Y-67019861D01*
X106746334Y-67033614D01*
X106740684Y-67043337D01*
X106733455Y-67051717D01*
X106701991Y-67073181D01*
X106666826Y-67074947D01*
X106633822Y-67055267D01*
X106628516Y-67049398D01*
X106623066Y-67040314D01*
X106618900Y-67026973D01*
X106615846Y-67006757D01*
X106613732Y-66977049D01*
X106612386Y-66935232D01*
X106611638Y-66878689D01*
X106611314Y-66804802D01*
X106611245Y-66710956D01*
X106611284Y-66635294D01*
X106611539Y-66557385D01*
X106612183Y-66497375D01*
X106613387Y-66452648D01*
X106615324Y-66420585D01*
X106618164Y-66398571D01*
X106622079Y-66383987D01*
X106627242Y-66374218D01*
X106633822Y-66366645D01*
X106663006Y-66347623D01*
X106696137Y-66348463D01*
G36*
X106696137Y-66348463D02*
G01*
X106730291Y-66371776D01*
X106758000Y-66399485D01*
X106758000Y-66712537D01*
X106757959Y-66796567D01*
X106757701Y-66870789D01*
X106757030Y-66927541D01*
X106755752Y-66969512D01*
X106753673Y-66999389D01*
X106750599Y-67019861D01*
X106746334Y-67033614D01*
X106740684Y-67043337D01*
X106733455Y-67051717D01*
X106701991Y-67073181D01*
X106666826Y-67074947D01*
X106633822Y-67055267D01*
X106628516Y-67049398D01*
X106623066Y-67040314D01*
X106618900Y-67026973D01*
X106615846Y-67006757D01*
X106613732Y-66977049D01*
X106612386Y-66935232D01*
X106611638Y-66878689D01*
X106611314Y-66804802D01*
X106611245Y-66710956D01*
X106611284Y-66635294D01*
X106611539Y-66557385D01*
X106612183Y-66497375D01*
X106613387Y-66452648D01*
X106615324Y-66420585D01*
X106618164Y-66398571D01*
X106622079Y-66383987D01*
X106627242Y-66374218D01*
X106633822Y-66366645D01*
X106663006Y-66347623D01*
X106696137Y-66348463D01*
G37*
X106164562Y-61107850D02*
X106247313Y-61135053D01*
X106322406Y-61180484D01*
X106394298Y-61246302D01*
X106432846Y-61290567D01*
X106472256Y-61348961D01*
X106497446Y-61409586D01*
X106510861Y-61478865D01*
X106514948Y-61563222D01*
X106514669Y-61609307D01*
X106512460Y-61650450D01*
X106506894Y-61682582D01*
X106496586Y-61713122D01*
X106480148Y-61749489D01*
X106466200Y-61776728D01*
X106407665Y-61862429D01*
X106335619Y-61931617D01*
X106251947Y-61982741D01*
X106158531Y-62014250D01*
X106125434Y-62021225D01*
X106084960Y-62028094D01*
X106051999Y-62029919D01*
X106017698Y-62026947D01*
X105973200Y-62019426D01*
X105921934Y-62007002D01*
X105831434Y-61969112D01*
X105752345Y-61914836D01*
X105686528Y-61846770D01*
X105635840Y-61767511D01*
X105602140Y-61679654D01*
X105587286Y-61585795D01*
X105593136Y-61488530D01*
X105619399Y-61392220D01*
X105664418Y-61303494D01*
X105725373Y-61228419D01*
X105800184Y-61168641D01*
X105886768Y-61125809D01*
X105983043Y-61101571D01*
X106086928Y-61097576D01*
X106164562Y-61107850D01*
G36*
X106164562Y-61107850D02*
G01*
X106247313Y-61135053D01*
X106322406Y-61180484D01*
X106394298Y-61246302D01*
X106432846Y-61290567D01*
X106472256Y-61348961D01*
X106497446Y-61409586D01*
X106510861Y-61478865D01*
X106514948Y-61563222D01*
X106514669Y-61609307D01*
X106512460Y-61650450D01*
X106506894Y-61682582D01*
X106496586Y-61713122D01*
X106480148Y-61749489D01*
X106466200Y-61776728D01*
X106407665Y-61862429D01*
X106335619Y-61931617D01*
X106251947Y-61982741D01*
X106158531Y-62014250D01*
X106125434Y-62021225D01*
X106084960Y-62028094D01*
X106051999Y-62029919D01*
X106017698Y-62026947D01*
X105973200Y-62019426D01*
X105921934Y-62007002D01*
X105831434Y-61969112D01*
X105752345Y-61914836D01*
X105686528Y-61846770D01*
X105635840Y-61767511D01*
X105602140Y-61679654D01*
X105587286Y-61585795D01*
X105593136Y-61488530D01*
X105619399Y-61392220D01*
X105664418Y-61303494D01*
X105725373Y-61228419D01*
X105800184Y-61168641D01*
X105886768Y-61125809D01*
X105983043Y-61101571D01*
X106086928Y-61097576D01*
X106164562Y-61107850D01*
G37*
X98865767Y-66344068D02*
X98959890Y-66344158D01*
X99034405Y-66344498D01*
X99091811Y-66345239D01*
X99134611Y-66346535D01*
X99165304Y-66348537D01*
X99186391Y-66351396D01*
X99200373Y-66355266D01*
X99209750Y-66360298D01*
X99217022Y-66366645D01*
X99235828Y-66399362D01*
X99237275Y-66436939D01*
X99220917Y-66470178D01*
X99219557Y-66471631D01*
X99208354Y-66479992D01*
X99191252Y-66485547D01*
X99164082Y-66488840D01*
X99122678Y-66490418D01*
X99062873Y-66490822D01*
X98923511Y-66490822D01*
X98923511Y-66754589D01*
X98923436Y-66830417D01*
X98923028Y-66897083D01*
X98922046Y-66946867D01*
X98920250Y-66982784D01*
X98917399Y-67007850D01*
X98913253Y-67025081D01*
X98907571Y-67037492D01*
X98900114Y-67048100D01*
X98897824Y-67050906D01*
X98866646Y-67073548D01*
X98832266Y-67075112D01*
X98799334Y-67055267D01*
X98792355Y-67047191D01*
X98786883Y-67036593D01*
X98782863Y-67020749D01*
X98780072Y-66996773D01*
X98778288Y-66961774D01*
X98777289Y-66912864D01*
X98776852Y-66847154D01*
X98776756Y-66761756D01*
X98776756Y-66490822D01*
X98630820Y-66490822D01*
X98619720Y-66490821D01*
X98563202Y-66490596D01*
X98524358Y-66489457D01*
X98498965Y-66486657D01*
X98482804Y-66481450D01*
X98471652Y-66473089D01*
X98461289Y-66460826D01*
X98445441Y-66430138D01*
X98448543Y-66396358D01*
X98474187Y-66363822D01*
X98479129Y-66360105D01*
X98489338Y-66355269D01*
X98504764Y-66351506D01*
X98527886Y-66348683D01*
X98561183Y-66346670D01*
X98607137Y-66345333D01*
X98668228Y-66344542D01*
X98746935Y-66344163D01*
X98845740Y-66344067D01*
X98865767Y-66344068D01*
G36*
X98865767Y-66344068D02*
G01*
X98959890Y-66344158D01*
X99034405Y-66344498D01*
X99091811Y-66345239D01*
X99134611Y-66346535D01*
X99165304Y-66348537D01*
X99186391Y-66351396D01*
X99200373Y-66355266D01*
X99209750Y-66360298D01*
X99217022Y-66366645D01*
X99235828Y-66399362D01*
X99237275Y-66436939D01*
X99220917Y-66470178D01*
X99219557Y-66471631D01*
X99208354Y-66479992D01*
X99191252Y-66485547D01*
X99164082Y-66488840D01*
X99122678Y-66490418D01*
X99062873Y-66490822D01*
X98923511Y-66490822D01*
X98923511Y-66754589D01*
X98923436Y-66830417D01*
X98923028Y-66897083D01*
X98922046Y-66946867D01*
X98920250Y-66982784D01*
X98917399Y-67007850D01*
X98913253Y-67025081D01*
X98907571Y-67037492D01*
X98900114Y-67048100D01*
X98897824Y-67050906D01*
X98866646Y-67073548D01*
X98832266Y-67075112D01*
X98799334Y-67055267D01*
X98792355Y-67047191D01*
X98786883Y-67036593D01*
X98782863Y-67020749D01*
X98780072Y-66996773D01*
X98778288Y-66961774D01*
X98777289Y-66912864D01*
X98776852Y-66847154D01*
X98776756Y-66761756D01*
X98776756Y-66490822D01*
X98630820Y-66490822D01*
X98619720Y-66490821D01*
X98563202Y-66490596D01*
X98524358Y-66489457D01*
X98498965Y-66486657D01*
X98482804Y-66481450D01*
X98471652Y-66473089D01*
X98461289Y-66460826D01*
X98445441Y-66430138D01*
X98448543Y-66396358D01*
X98474187Y-66363822D01*
X98479129Y-66360105D01*
X98489338Y-66355269D01*
X98504764Y-66351506D01*
X98527886Y-66348683D01*
X98561183Y-66346670D01*
X98607137Y-66345333D01*
X98668228Y-66344542D01*
X98746935Y-66344163D01*
X98845740Y-66344067D01*
X98865767Y-66344068D01*
G37*
X98189734Y-66366645D02*
X98195366Y-66372835D01*
X98200456Y-66381041D01*
X98204543Y-66392817D01*
X98207721Y-66410276D01*
X98210087Y-66435530D01*
X98211738Y-66470690D01*
X98212769Y-66517869D01*
X98213277Y-66579177D01*
X98213359Y-66656727D01*
X98213109Y-66752631D01*
X98212625Y-66869000D01*
X98212557Y-66883175D01*
X98211971Y-66944937D01*
X98210648Y-66988620D01*
X98208103Y-67018001D01*
X98203848Y-67036855D01*
X98197396Y-67048959D01*
X98188262Y-67058089D01*
X98154804Y-67075506D01*
X98119856Y-67072604D01*
X98088953Y-67048100D01*
X98079944Y-67034897D01*
X98072492Y-67016361D01*
X98068124Y-66990333D01*
X98066069Y-66951787D01*
X98065556Y-66895700D01*
X98065556Y-66773045D01*
X97568845Y-66773045D01*
X97568845Y-66907871D01*
X97568772Y-66943662D01*
X97568009Y-66989992D01*
X97565833Y-67020526D01*
X97561536Y-67039557D01*
X97554412Y-67051374D01*
X97543755Y-67060271D01*
X97511504Y-67075341D01*
X97476217Y-67072673D01*
X97445486Y-67048100D01*
X97440831Y-67041845D01*
X97434895Y-67031321D01*
X97430364Y-67017391D01*
X97427048Y-66997317D01*
X97424759Y-66968360D01*
X97423308Y-66927780D01*
X97422505Y-66872840D01*
X97422162Y-66800799D01*
X97422089Y-66708920D01*
X97422089Y-66399485D01*
X97449798Y-66371776D01*
X97481177Y-66349533D01*
X97514406Y-66346844D01*
X97546267Y-66366645D01*
X97554553Y-66376415D01*
X97561965Y-66392307D01*
X97566302Y-66416275D01*
X97568338Y-66453148D01*
X97568845Y-66507756D01*
X97568845Y-66626289D01*
X98065556Y-66626289D01*
X98065556Y-66510776D01*
X98065994Y-66459078D01*
X98067958Y-66424554D01*
X98072474Y-66401978D01*
X98080567Y-66386126D01*
X98093265Y-66371776D01*
X98124643Y-66349533D01*
X98157872Y-66346844D01*
X98189734Y-66366645D01*
G36*
X98189734Y-66366645D02*
G01*
X98195366Y-66372835D01*
X98200456Y-66381041D01*
X98204543Y-66392817D01*
X98207721Y-66410276D01*
X98210087Y-66435530D01*
X98211738Y-66470690D01*
X98212769Y-66517869D01*
X98213277Y-66579177D01*
X98213359Y-66656727D01*
X98213109Y-66752631D01*
X98212625Y-66869000D01*
X98212557Y-66883175D01*
X98211971Y-66944937D01*
X98210648Y-66988620D01*
X98208103Y-67018001D01*
X98203848Y-67036855D01*
X98197396Y-67048959D01*
X98188262Y-67058089D01*
X98154804Y-67075506D01*
X98119856Y-67072604D01*
X98088953Y-67048100D01*
X98079944Y-67034897D01*
X98072492Y-67016361D01*
X98068124Y-66990333D01*
X98066069Y-66951787D01*
X98065556Y-66895700D01*
X98065556Y-66773045D01*
X97568845Y-66773045D01*
X97568845Y-66907871D01*
X97568772Y-66943662D01*
X97568009Y-66989992D01*
X97565833Y-67020526D01*
X97561536Y-67039557D01*
X97554412Y-67051374D01*
X97543755Y-67060271D01*
X97511504Y-67075341D01*
X97476217Y-67072673D01*
X97445486Y-67048100D01*
X97440831Y-67041845D01*
X97434895Y-67031321D01*
X97430364Y-67017391D01*
X97427048Y-66997317D01*
X97424759Y-66968360D01*
X97423308Y-66927780D01*
X97422505Y-66872840D01*
X97422162Y-66800799D01*
X97422089Y-66708920D01*
X97422089Y-66399485D01*
X97449798Y-66371776D01*
X97481177Y-66349533D01*
X97514406Y-66346844D01*
X97546267Y-66366645D01*
X97554553Y-66376415D01*
X97561965Y-66392307D01*
X97566302Y-66416275D01*
X97568338Y-66453148D01*
X97568845Y-66507756D01*
X97568845Y-66626289D01*
X98065556Y-66626289D01*
X98065556Y-66510776D01*
X98065994Y-66459078D01*
X98067958Y-66424554D01*
X98072474Y-66401978D01*
X98080567Y-66386126D01*
X98093265Y-66371776D01*
X98124643Y-66349533D01*
X98157872Y-66346844D01*
X98189734Y-66366645D01*
G37*
X102895133Y-66955396D02*
X102893163Y-66988175D01*
X102890235Y-67011095D01*
X102886158Y-67026897D01*
X102880743Y-67038319D01*
X102873803Y-67048100D01*
X102850406Y-67077845D01*
X102684714Y-67077251D01*
X102649918Y-67076953D01*
X102551435Y-67073522D01*
X102470473Y-67065839D01*
X102403379Y-67053282D01*
X102346496Y-67035227D01*
X102296169Y-67011052D01*
X102292810Y-67009135D01*
X102234998Y-66972417D01*
X102192644Y-66935451D01*
X102159828Y-66891966D01*
X102130628Y-66835689D01*
X102126346Y-66826073D01*
X102103769Y-66762887D01*
X102098034Y-66717333D01*
X102247279Y-66717333D01*
X102252892Y-66742061D01*
X102258618Y-66757939D01*
X102291548Y-66817847D01*
X102338886Y-66863600D01*
X102402652Y-66896736D01*
X102484861Y-66918790D01*
X102487655Y-66919292D01*
X102533940Y-66925255D01*
X102590336Y-66929483D01*
X102645274Y-66931089D01*
X102739156Y-66931089D01*
X102739156Y-66490822D01*
X102651667Y-66491270D01*
X102584747Y-66493746D01*
X102492349Y-66504998D01*
X102413034Y-66524537D01*
X102351060Y-66551511D01*
X102320120Y-66572240D01*
X102292000Y-66602006D01*
X102268660Y-66644434D01*
X102261533Y-66660400D01*
X102249709Y-66692902D01*
X102247279Y-66717333D01*
X102098034Y-66717333D01*
X102096797Y-66707509D01*
X102105399Y-66652483D01*
X102129541Y-66590351D01*
X102130337Y-66588658D01*
X102170788Y-66519236D01*
X102221473Y-66462638D01*
X102284198Y-66418070D01*
X102360774Y-66384741D01*
X102453009Y-66361861D01*
X102562712Y-66348636D01*
X102691691Y-66344275D01*
X102695263Y-66344270D01*
X102755283Y-66344410D01*
X102797214Y-66345446D01*
X102825328Y-66348040D01*
X102843897Y-66352853D01*
X102857194Y-66360544D01*
X102869491Y-66371776D01*
X102897200Y-66399485D01*
X102897200Y-66708920D01*
X102897175Y-66770526D01*
X102896950Y-66849311D01*
X102896332Y-66910021D01*
X102895775Y-66931089D01*
X102895133Y-66955396D01*
G36*
X102895133Y-66955396D02*
G01*
X102893163Y-66988175D01*
X102890235Y-67011095D01*
X102886158Y-67026897D01*
X102880743Y-67038319D01*
X102873803Y-67048100D01*
X102850406Y-67077845D01*
X102684714Y-67077251D01*
X102649918Y-67076953D01*
X102551435Y-67073522D01*
X102470473Y-67065839D01*
X102403379Y-67053282D01*
X102346496Y-67035227D01*
X102296169Y-67011052D01*
X102292810Y-67009135D01*
X102234998Y-66972417D01*
X102192644Y-66935451D01*
X102159828Y-66891966D01*
X102130628Y-66835689D01*
X102126346Y-66826073D01*
X102103769Y-66762887D01*
X102098034Y-66717333D01*
X102247279Y-66717333D01*
X102252892Y-66742061D01*
X102258618Y-66757939D01*
X102291548Y-66817847D01*
X102338886Y-66863600D01*
X102402652Y-66896736D01*
X102484861Y-66918790D01*
X102487655Y-66919292D01*
X102533940Y-66925255D01*
X102590336Y-66929483D01*
X102645274Y-66931089D01*
X102739156Y-66931089D01*
X102739156Y-66490822D01*
X102651667Y-66491270D01*
X102584747Y-66493746D01*
X102492349Y-66504998D01*
X102413034Y-66524537D01*
X102351060Y-66551511D01*
X102320120Y-66572240D01*
X102292000Y-66602006D01*
X102268660Y-66644434D01*
X102261533Y-66660400D01*
X102249709Y-66692902D01*
X102247279Y-66717333D01*
X102098034Y-66717333D01*
X102096797Y-66707509D01*
X102105399Y-66652483D01*
X102129541Y-66590351D01*
X102130337Y-66588658D01*
X102170788Y-66519236D01*
X102221473Y-66462638D01*
X102284198Y-66418070D01*
X102360774Y-66384741D01*
X102453009Y-66361861D01*
X102562712Y-66348636D01*
X102691691Y-66344275D01*
X102695263Y-66344270D01*
X102755283Y-66344410D01*
X102797214Y-66345446D01*
X102825328Y-66348040D01*
X102843897Y-66352853D01*
X102857194Y-66360544D01*
X102869491Y-66371776D01*
X102897200Y-66399485D01*
X102897200Y-66708920D01*
X102897175Y-66770526D01*
X102896950Y-66849311D01*
X102896332Y-66910021D01*
X102895775Y-66931089D01*
X102895133Y-66955396D01*
G37*
X109986817Y-66529427D02*
X109986870Y-66610041D01*
X109986622Y-66710956D01*
X109986583Y-66786617D01*
X109986328Y-66864526D01*
X109985684Y-66924536D01*
X109984480Y-66969264D01*
X109982543Y-67001326D01*
X109979703Y-67023340D01*
X109975788Y-67037924D01*
X109970626Y-67047694D01*
X109964045Y-67055267D01*
X109957077Y-67061501D01*
X109944079Y-67068801D01*
X109924931Y-67073554D01*
X109895528Y-67076292D01*
X109851762Y-67077545D01*
X109789528Y-67077845D01*
X109740582Y-67077469D01*
X109633722Y-67073041D01*
X109544494Y-67062953D01*
X109469696Y-67046365D01*
X109406125Y-67022435D01*
X109350579Y-66990321D01*
X109299854Y-66949182D01*
X109293866Y-66943330D01*
X109256999Y-66894821D01*
X109225899Y-66834013D01*
X109204417Y-66769769D01*
X109199136Y-66731026D01*
X109346353Y-66731026D01*
X109364635Y-66781961D01*
X109394305Y-66827878D01*
X109441002Y-66870287D01*
X109502392Y-66900090D01*
X109581538Y-66919226D01*
X109583028Y-66919464D01*
X109631999Y-66925256D01*
X109690693Y-66929396D01*
X109746734Y-66931004D01*
X109839867Y-66931089D01*
X109839867Y-66490822D01*
X109763667Y-66490808D01*
X109760639Y-66490817D01*
X109709519Y-66492782D01*
X109649416Y-66497507D01*
X109592708Y-66504035D01*
X109542750Y-66513331D01*
X109467998Y-66539600D01*
X109410489Y-66578899D01*
X109368988Y-66631933D01*
X109347771Y-66683200D01*
X109346353Y-66731026D01*
X109199136Y-66731026D01*
X109196400Y-66710956D01*
X109197679Y-66689739D01*
X109209991Y-66632323D01*
X109232520Y-66572413D01*
X109261750Y-66518363D01*
X109294167Y-66478532D01*
X109313708Y-66461510D01*
X109368420Y-66422322D01*
X109428723Y-66392193D01*
X109497919Y-66370232D01*
X109579311Y-66355550D01*
X109676200Y-66347259D01*
X109791889Y-66344467D01*
X109831371Y-66344066D01*
X109877082Y-66343653D01*
X109912883Y-66345457D01*
X109939974Y-66351739D01*
X109959556Y-66364759D01*
X109972830Y-66386778D01*
X109980998Y-66420055D01*
X109985260Y-66466851D01*
X109985857Y-66490822D01*
X109986817Y-66529427D01*
G36*
X109986817Y-66529427D02*
G01*
X109986870Y-66610041D01*
X109986622Y-66710956D01*
X109986583Y-66786617D01*
X109986328Y-66864526D01*
X109985684Y-66924536D01*
X109984480Y-66969264D01*
X109982543Y-67001326D01*
X109979703Y-67023340D01*
X109975788Y-67037924D01*
X109970626Y-67047694D01*
X109964045Y-67055267D01*
X109957077Y-67061501D01*
X109944079Y-67068801D01*
X109924931Y-67073554D01*
X109895528Y-67076292D01*
X109851762Y-67077545D01*
X109789528Y-67077845D01*
X109740582Y-67077469D01*
X109633722Y-67073041D01*
X109544494Y-67062953D01*
X109469696Y-67046365D01*
X109406125Y-67022435D01*
X109350579Y-66990321D01*
X109299854Y-66949182D01*
X109293866Y-66943330D01*
X109256999Y-66894821D01*
X109225899Y-66834013D01*
X109204417Y-66769769D01*
X109199136Y-66731026D01*
X109346353Y-66731026D01*
X109364635Y-66781961D01*
X109394305Y-66827878D01*
X109441002Y-66870287D01*
X109502392Y-66900090D01*
X109581538Y-66919226D01*
X109583028Y-66919464D01*
X109631999Y-66925256D01*
X109690693Y-66929396D01*
X109746734Y-66931004D01*
X109839867Y-66931089D01*
X109839867Y-66490822D01*
X109763667Y-66490808D01*
X109760639Y-66490817D01*
X109709519Y-66492782D01*
X109649416Y-66497507D01*
X109592708Y-66504035D01*
X109542750Y-66513331D01*
X109467998Y-66539600D01*
X109410489Y-66578899D01*
X109368988Y-66631933D01*
X109347771Y-66683200D01*
X109346353Y-66731026D01*
X109199136Y-66731026D01*
X109196400Y-66710956D01*
X109197679Y-66689739D01*
X109209991Y-66632323D01*
X109232520Y-66572413D01*
X109261750Y-66518363D01*
X109294167Y-66478532D01*
X109313708Y-66461510D01*
X109368420Y-66422322D01*
X109428723Y-66392193D01*
X109497919Y-66370232D01*
X109579311Y-66355550D01*
X109676200Y-66347259D01*
X109791889Y-66344467D01*
X109831371Y-66344066D01*
X109877082Y-66343653D01*
X109912883Y-66345457D01*
X109939974Y-66351739D01*
X109959556Y-66364759D01*
X109972830Y-66386778D01*
X109980998Y-66420055D01*
X109985260Y-66466851D01*
X109985857Y-66490822D01*
X109986817Y-66529427D01*
G37*
X105041893Y-66342892D02*
X105053301Y-66349029D01*
X105063850Y-66359691D01*
X105075136Y-66373811D01*
X105079589Y-66379772D01*
X105085588Y-66390268D01*
X105090167Y-66404093D01*
X105093519Y-66423998D01*
X105095833Y-66452732D01*
X105097301Y-66493045D01*
X105098113Y-66547687D01*
X105098460Y-66619407D01*
X105098534Y-66710956D01*
X105098511Y-66769486D01*
X105098292Y-66848573D01*
X105097683Y-66909516D01*
X105096492Y-66955062D01*
X105094529Y-66987963D01*
X105091603Y-67010968D01*
X105087523Y-67026826D01*
X105082097Y-67038286D01*
X105075136Y-67048100D01*
X105044708Y-67072493D01*
X105009765Y-67075372D01*
X104972784Y-67056282D01*
X104968600Y-67052807D01*
X104960424Y-67044279D01*
X104954364Y-67032728D01*
X104949981Y-67014896D01*
X104946839Y-66987524D01*
X104944502Y-66947354D01*
X104942531Y-66891128D01*
X104940489Y-66815589D01*
X104934845Y-66596458D01*
X104669556Y-66837099D01*
X104595722Y-66903875D01*
X104530542Y-66961991D01*
X104478348Y-67006949D01*
X104437273Y-67039871D01*
X104405455Y-67061879D01*
X104381026Y-67074094D01*
X104362124Y-67077639D01*
X104346883Y-67073636D01*
X104333439Y-67063207D01*
X104319927Y-67047474D01*
X104313682Y-67038991D01*
X104308050Y-67028413D01*
X104303839Y-67014255D01*
X104300887Y-66993803D01*
X104299032Y-66964342D01*
X104298113Y-66923161D01*
X104297968Y-66867544D01*
X104298435Y-66794779D01*
X104299352Y-66702151D01*
X104302667Y-66387199D01*
X104329318Y-66365633D01*
X104355383Y-66349441D01*
X104388241Y-66346670D01*
X104422772Y-66365623D01*
X104427084Y-66369208D01*
X104435216Y-66377737D01*
X104441245Y-66389329D01*
X104445606Y-66407235D01*
X104448734Y-66434706D01*
X104451063Y-66474994D01*
X104453029Y-66531351D01*
X104455067Y-66607029D01*
X104460711Y-66826878D01*
X104641334Y-66663084D01*
X104728072Y-66584451D01*
X104803843Y-66516058D01*
X104865980Y-66460708D01*
X104916078Y-66417338D01*
X104955735Y-66384881D01*
X104986548Y-66362273D01*
X105010114Y-66348448D01*
X105028030Y-66342343D01*
X105041893Y-66342892D01*
G36*
X105041893Y-66342892D02*
G01*
X105053301Y-66349029D01*
X105063850Y-66359691D01*
X105075136Y-66373811D01*
X105079589Y-66379772D01*
X105085588Y-66390268D01*
X105090167Y-66404093D01*
X105093519Y-66423998D01*
X105095833Y-66452732D01*
X105097301Y-66493045D01*
X105098113Y-66547687D01*
X105098460Y-66619407D01*
X105098534Y-66710956D01*
X105098511Y-66769486D01*
X105098292Y-66848573D01*
X105097683Y-66909516D01*
X105096492Y-66955062D01*
X105094529Y-66987963D01*
X105091603Y-67010968D01*
X105087523Y-67026826D01*
X105082097Y-67038286D01*
X105075136Y-67048100D01*
X105044708Y-67072493D01*
X105009765Y-67075372D01*
X104972784Y-67056282D01*
X104968600Y-67052807D01*
X104960424Y-67044279D01*
X104954364Y-67032728D01*
X104949981Y-67014896D01*
X104946839Y-66987524D01*
X104944502Y-66947354D01*
X104942531Y-66891128D01*
X104940489Y-66815589D01*
X104934845Y-66596458D01*
X104669556Y-66837099D01*
X104595722Y-66903875D01*
X104530542Y-66961991D01*
X104478348Y-67006949D01*
X104437273Y-67039871D01*
X104405455Y-67061879D01*
X104381026Y-67074094D01*
X104362124Y-67077639D01*
X104346883Y-67073636D01*
X104333439Y-67063207D01*
X104319927Y-67047474D01*
X104313682Y-67038991D01*
X104308050Y-67028413D01*
X104303839Y-67014255D01*
X104300887Y-66993803D01*
X104299032Y-66964342D01*
X104298113Y-66923161D01*
X104297968Y-66867544D01*
X104298435Y-66794779D01*
X104299352Y-66702151D01*
X104302667Y-66387199D01*
X104329318Y-66365633D01*
X104355383Y-66349441D01*
X104388241Y-66346670D01*
X104422772Y-66365623D01*
X104427084Y-66369208D01*
X104435216Y-66377737D01*
X104441245Y-66389329D01*
X104445606Y-66407235D01*
X104448734Y-66434706D01*
X104451063Y-66474994D01*
X104453029Y-66531351D01*
X104455067Y-66607029D01*
X104460711Y-66826878D01*
X104641334Y-66663084D01*
X104728072Y-66584451D01*
X104803843Y-66516058D01*
X104865980Y-66460708D01*
X104916078Y-66417338D01*
X104955735Y-66384881D01*
X104986548Y-66362273D01*
X105010114Y-66348448D01*
X105028030Y-66342343D01*
X105041893Y-66342892D01*
G37*
X105839150Y-66349179D02*
X105945157Y-66365494D01*
X106038969Y-66393545D01*
X106117765Y-66432452D01*
X106178719Y-66481334D01*
X106204789Y-66514195D01*
X106234297Y-66563394D01*
X106259568Y-66617252D01*
X106277218Y-66668419D01*
X106283858Y-66709544D01*
X106282298Y-66729259D01*
X106269357Y-66780592D01*
X106246194Y-66837118D01*
X106216302Y-66891035D01*
X106183173Y-66934539D01*
X106172977Y-66944887D01*
X106105892Y-66996662D01*
X106025766Y-67036554D01*
X105939556Y-67060956D01*
X105884592Y-67069068D01*
X105791139Y-67075673D01*
X105701358Y-67073586D01*
X105618869Y-67063340D01*
X105547286Y-67045470D01*
X105490228Y-67020508D01*
X105451311Y-66988988D01*
X105449936Y-66987012D01*
X105442848Y-66961786D01*
X105438609Y-66914535D01*
X105437200Y-66845071D01*
X105438060Y-66782838D01*
X105442780Y-66735456D01*
X105454470Y-66703353D01*
X105476239Y-66683800D01*
X105511198Y-66674070D01*
X105562456Y-66671433D01*
X105633123Y-66673161D01*
X105681743Y-66676173D01*
X105731939Y-66684366D01*
X105764433Y-66698419D01*
X105781892Y-66719654D01*
X105786983Y-66749394D01*
X105786877Y-66753936D01*
X105778175Y-66788730D01*
X105754165Y-66812147D01*
X105712900Y-66825347D01*
X105652431Y-66829489D01*
X105583956Y-66829489D01*
X105583956Y-66867841D01*
X105584006Y-66876976D01*
X105586227Y-66894227D01*
X105595494Y-66904521D01*
X105616875Y-66911459D01*
X105655436Y-66918641D01*
X105660910Y-66919575D01*
X105757860Y-66929478D01*
X105847852Y-66926559D01*
X105928760Y-66911829D01*
X105998459Y-66886299D01*
X106054824Y-66850978D01*
X106095729Y-66806879D01*
X106119051Y-66755012D01*
X106122663Y-66696388D01*
X106117145Y-66667494D01*
X106090461Y-66611604D01*
X106044273Y-66565945D01*
X105979291Y-66531108D01*
X105896229Y-66507690D01*
X105871555Y-66503241D01*
X105782226Y-66492742D01*
X105702419Y-66493971D01*
X105624326Y-66506906D01*
X105589183Y-66513696D01*
X105543745Y-66514713D01*
X105512430Y-66502182D01*
X105492277Y-66475395D01*
X105485893Y-66447148D01*
X105495379Y-66415924D01*
X105504708Y-66402499D01*
X105538943Y-66378967D01*
X105591565Y-66361095D01*
X105660081Y-66349599D01*
X105742000Y-66345192D01*
X105839150Y-66349179D01*
G36*
X105839150Y-66349179D02*
G01*
X105945157Y-66365494D01*
X106038969Y-66393545D01*
X106117765Y-66432452D01*
X106178719Y-66481334D01*
X106204789Y-66514195D01*
X106234297Y-66563394D01*
X106259568Y-66617252D01*
X106277218Y-66668419D01*
X106283858Y-66709544D01*
X106282298Y-66729259D01*
X106269357Y-66780592D01*
X106246194Y-66837118D01*
X106216302Y-66891035D01*
X106183173Y-66934539D01*
X106172977Y-66944887D01*
X106105892Y-66996662D01*
X106025766Y-67036554D01*
X105939556Y-67060956D01*
X105884592Y-67069068D01*
X105791139Y-67075673D01*
X105701358Y-67073586D01*
X105618869Y-67063340D01*
X105547286Y-67045470D01*
X105490228Y-67020508D01*
X105451311Y-66988988D01*
X105449936Y-66987012D01*
X105442848Y-66961786D01*
X105438609Y-66914535D01*
X105437200Y-66845071D01*
X105438060Y-66782838D01*
X105442780Y-66735456D01*
X105454470Y-66703353D01*
X105476239Y-66683800D01*
X105511198Y-66674070D01*
X105562456Y-66671433D01*
X105633123Y-66673161D01*
X105681743Y-66676173D01*
X105731939Y-66684366D01*
X105764433Y-66698419D01*
X105781892Y-66719654D01*
X105786983Y-66749394D01*
X105786877Y-66753936D01*
X105778175Y-66788730D01*
X105754165Y-66812147D01*
X105712900Y-66825347D01*
X105652431Y-66829489D01*
X105583956Y-66829489D01*
X105583956Y-66867841D01*
X105584006Y-66876976D01*
X105586227Y-66894227D01*
X105595494Y-66904521D01*
X105616875Y-66911459D01*
X105655436Y-66918641D01*
X105660910Y-66919575D01*
X105757860Y-66929478D01*
X105847852Y-66926559D01*
X105928760Y-66911829D01*
X105998459Y-66886299D01*
X106054824Y-66850978D01*
X106095729Y-66806879D01*
X106119051Y-66755012D01*
X106122663Y-66696388D01*
X106117145Y-66667494D01*
X106090461Y-66611604D01*
X106044273Y-66565945D01*
X105979291Y-66531108D01*
X105896229Y-66507690D01*
X105871555Y-66503241D01*
X105782226Y-66492742D01*
X105702419Y-66493971D01*
X105624326Y-66506906D01*
X105589183Y-66513696D01*
X105543745Y-66514713D01*
X105512430Y-66502182D01*
X105492277Y-66475395D01*
X105485893Y-66447148D01*
X105495379Y-66415924D01*
X105504708Y-66402499D01*
X105538943Y-66378967D01*
X105591565Y-66361095D01*
X105660081Y-66349599D01*
X105742000Y-66345192D01*
X105839150Y-66349179D01*
G37*
X103889803Y-66373811D02*
X103894752Y-66380495D01*
X103900596Y-66391066D01*
X103905057Y-66405153D01*
X103908321Y-66425478D01*
X103910574Y-66454765D01*
X103912002Y-66495737D01*
X103912792Y-66551117D01*
X103913129Y-66623628D01*
X103913200Y-66715994D01*
X103913171Y-66781911D01*
X103912939Y-66860228D01*
X103912319Y-66920496D01*
X103911126Y-66965393D01*
X103909179Y-66997602D01*
X103906294Y-67019800D01*
X103902288Y-67034669D01*
X103896979Y-67044889D01*
X103890183Y-67053138D01*
X103885668Y-67057795D01*
X103877438Y-67064282D01*
X103866078Y-67069194D01*
X103848810Y-67072749D01*
X103822855Y-67075167D01*
X103785436Y-67076667D01*
X103733773Y-67077467D01*
X103665089Y-67077787D01*
X103576606Y-67077845D01*
X103556931Y-67077838D01*
X103469906Y-67077572D01*
X103402254Y-67076806D01*
X103351299Y-67075392D01*
X103314367Y-67073180D01*
X103288783Y-67070022D01*
X103271871Y-67065769D01*
X103260957Y-67060271D01*
X103250464Y-67050285D01*
X103237203Y-67019168D01*
X103238386Y-66983280D01*
X103254550Y-66951733D01*
X103256739Y-66949457D01*
X103265427Y-66943189D01*
X103278769Y-66938523D01*
X103299752Y-66935227D01*
X103331363Y-66933068D01*
X103376590Y-66931814D01*
X103438420Y-66931231D01*
X103519839Y-66931089D01*
X103766445Y-66931089D01*
X103766445Y-66773045D01*
X103604006Y-66773045D01*
X103568338Y-66772964D01*
X103512568Y-66772167D01*
X103473430Y-66770162D01*
X103446976Y-66766521D01*
X103429259Y-66760812D01*
X103416329Y-66752607D01*
X103412686Y-66749423D01*
X103394278Y-66718448D01*
X103393644Y-66682112D01*
X103411183Y-66648493D01*
X103411245Y-66648424D01*
X103420916Y-66639798D01*
X103434209Y-66633742D01*
X103454917Y-66629811D01*
X103486828Y-66627556D01*
X103533734Y-66626531D01*
X103599424Y-66626289D01*
X103767571Y-66626289D01*
X103764186Y-66561378D01*
X103760800Y-66496467D01*
X103518723Y-66493414D01*
X103493707Y-66493086D01*
X103412087Y-66491606D01*
X103349768Y-66489222D01*
X103304154Y-66485227D01*
X103272652Y-66478913D01*
X103252667Y-66469574D01*
X103241604Y-66456503D01*
X103236869Y-66438992D01*
X103235867Y-66416335D01*
X103235873Y-66413970D01*
X103237027Y-66393939D01*
X103241824Y-66378146D01*
X103252632Y-66366090D01*
X103271817Y-66357267D01*
X103301745Y-66351175D01*
X103344783Y-66347311D01*
X103403299Y-66345174D01*
X103479657Y-66344260D01*
X103576226Y-66344067D01*
X103866406Y-66344067D01*
X103889803Y-66373811D01*
G36*
X103889803Y-66373811D02*
G01*
X103894752Y-66380495D01*
X103900596Y-66391066D01*
X103905057Y-66405153D01*
X103908321Y-66425478D01*
X103910574Y-66454765D01*
X103912002Y-66495737D01*
X103912792Y-66551117D01*
X103913129Y-66623628D01*
X103913200Y-66715994D01*
X103913171Y-66781911D01*
X103912939Y-66860228D01*
X103912319Y-66920496D01*
X103911126Y-66965393D01*
X103909179Y-66997602D01*
X103906294Y-67019800D01*
X103902288Y-67034669D01*
X103896979Y-67044889D01*
X103890183Y-67053138D01*
X103885668Y-67057795D01*
X103877438Y-67064282D01*
X103866078Y-67069194D01*
X103848810Y-67072749D01*
X103822855Y-67075167D01*
X103785436Y-67076667D01*
X103733773Y-67077467D01*
X103665089Y-67077787D01*
X103576606Y-67077845D01*
X103556931Y-67077838D01*
X103469906Y-67077572D01*
X103402254Y-67076806D01*
X103351299Y-67075392D01*
X103314367Y-67073180D01*
X103288783Y-67070022D01*
X103271871Y-67065769D01*
X103260957Y-67060271D01*
X103250464Y-67050285D01*
X103237203Y-67019168D01*
X103238386Y-66983280D01*
X103254550Y-66951733D01*
X103256739Y-66949457D01*
X103265427Y-66943189D01*
X103278769Y-66938523D01*
X103299752Y-66935227D01*
X103331363Y-66933068D01*
X103376590Y-66931814D01*
X103438420Y-66931231D01*
X103519839Y-66931089D01*
X103766445Y-66931089D01*
X103766445Y-66773045D01*
X103604006Y-66773045D01*
X103568338Y-66772964D01*
X103512568Y-66772167D01*
X103473430Y-66770162D01*
X103446976Y-66766521D01*
X103429259Y-66760812D01*
X103416329Y-66752607D01*
X103412686Y-66749423D01*
X103394278Y-66718448D01*
X103393644Y-66682112D01*
X103411183Y-66648493D01*
X103411245Y-66648424D01*
X103420916Y-66639798D01*
X103434209Y-66633742D01*
X103454917Y-66629811D01*
X103486828Y-66627556D01*
X103533734Y-66626531D01*
X103599424Y-66626289D01*
X103767571Y-66626289D01*
X103764186Y-66561378D01*
X103760800Y-66496467D01*
X103518723Y-66493414D01*
X103493707Y-66493086D01*
X103412087Y-66491606D01*
X103349768Y-66489222D01*
X103304154Y-66485227D01*
X103272652Y-66478913D01*
X103252667Y-66469574D01*
X103241604Y-66456503D01*
X103236869Y-66438992D01*
X103235867Y-66416335D01*
X103235873Y-66413970D01*
X103237027Y-66393939D01*
X103241824Y-66378146D01*
X103252632Y-66366090D01*
X103271817Y-66357267D01*
X103301745Y-66351175D01*
X103344783Y-66347311D01*
X103403299Y-66345174D01*
X103479657Y-66344260D01*
X103576226Y-66344067D01*
X103866406Y-66344067D01*
X103889803Y-66373811D01*
G37*
X108566734Y-66344083D02*
X108643831Y-66344275D01*
X108702777Y-66344860D01*
X108746364Y-66346051D01*
X108777383Y-66348064D01*
X108798625Y-66351112D01*
X108812882Y-66355409D01*
X108822945Y-66361172D01*
X108831606Y-66368612D01*
X108833391Y-66370293D01*
X108840635Y-66377832D01*
X108846277Y-66386850D01*
X108850517Y-66399984D01*
X108853556Y-66419872D01*
X108855594Y-66449151D01*
X108856830Y-66490458D01*
X108857465Y-66546431D01*
X108857700Y-66619707D01*
X108857734Y-66712923D01*
X108857697Y-66785713D01*
X108857448Y-66863889D01*
X108856812Y-66924103D01*
X108855615Y-66968982D01*
X108853684Y-67001152D01*
X108850846Y-67023239D01*
X108846927Y-67037870D01*
X108841755Y-67047670D01*
X108835156Y-67055267D01*
X108831822Y-67058444D01*
X108823300Y-67064554D01*
X108811298Y-67069229D01*
X108793087Y-67072659D01*
X108765940Y-67075036D01*
X108727129Y-67076552D01*
X108673924Y-67077398D01*
X108603598Y-67077765D01*
X108513422Y-67077845D01*
X108471314Y-67077833D01*
X108390167Y-67077651D01*
X108327675Y-67077098D01*
X108281109Y-67075982D01*
X108247741Y-67074113D01*
X108224844Y-67071298D01*
X108209688Y-67067346D01*
X108199546Y-67062066D01*
X108191689Y-67055267D01*
X108176963Y-67033667D01*
X108169111Y-67004467D01*
X108174610Y-66980560D01*
X108191689Y-66953667D01*
X108196668Y-66949059D01*
X108206443Y-66942772D01*
X108220559Y-66938146D01*
X108242054Y-66934930D01*
X108273968Y-66932870D01*
X108319342Y-66931712D01*
X108381213Y-66931202D01*
X108462622Y-66931089D01*
X108710978Y-66931089D01*
X108710978Y-66773045D01*
X108549801Y-66773045D01*
X108513983Y-66772899D01*
X108448359Y-66771176D01*
X108401118Y-66766741D01*
X108369383Y-66758637D01*
X108350277Y-66745906D01*
X108340923Y-66727592D01*
X108338445Y-66702738D01*
X108339242Y-66682482D01*
X108344494Y-66660656D01*
X108357288Y-66645304D01*
X108380628Y-66635309D01*
X108417517Y-66629553D01*
X108470959Y-66626919D01*
X108543958Y-66626289D01*
X108712105Y-66626289D01*
X108708719Y-66561378D01*
X108705334Y-66496467D01*
X108457617Y-66493418D01*
X108395026Y-66492539D01*
X108326565Y-66491095D01*
X108275661Y-66489164D01*
X108239408Y-66486514D01*
X108214901Y-66482910D01*
X108199235Y-66478121D01*
X108189506Y-66471913D01*
X108183491Y-66465510D01*
X108170482Y-66433828D01*
X108174043Y-66398142D01*
X108193818Y-66367084D01*
X108197069Y-66364161D01*
X108206049Y-66357810D01*
X108218153Y-66352957D01*
X108236159Y-66349403D01*
X108262847Y-66346946D01*
X108300997Y-66345385D01*
X108353386Y-66344518D01*
X108422794Y-66344146D01*
X108512001Y-66344067D01*
X108566734Y-66344083D01*
G36*
X108566734Y-66344083D02*
G01*
X108643831Y-66344275D01*
X108702777Y-66344860D01*
X108746364Y-66346051D01*
X108777383Y-66348064D01*
X108798625Y-66351112D01*
X108812882Y-66355409D01*
X108822945Y-66361172D01*
X108831606Y-66368612D01*
X108833391Y-66370293D01*
X108840635Y-66377832D01*
X108846277Y-66386850D01*
X108850517Y-66399984D01*
X108853556Y-66419872D01*
X108855594Y-66449151D01*
X108856830Y-66490458D01*
X108857465Y-66546431D01*
X108857700Y-66619707D01*
X108857734Y-66712923D01*
X108857697Y-66785713D01*
X108857448Y-66863889D01*
X108856812Y-66924103D01*
X108855615Y-66968982D01*
X108853684Y-67001152D01*
X108850846Y-67023239D01*
X108846927Y-67037870D01*
X108841755Y-67047670D01*
X108835156Y-67055267D01*
X108831822Y-67058444D01*
X108823300Y-67064554D01*
X108811298Y-67069229D01*
X108793087Y-67072659D01*
X108765940Y-67075036D01*
X108727129Y-67076552D01*
X108673924Y-67077398D01*
X108603598Y-67077765D01*
X108513422Y-67077845D01*
X108471314Y-67077833D01*
X108390167Y-67077651D01*
X108327675Y-67077098D01*
X108281109Y-67075982D01*
X108247741Y-67074113D01*
X108224844Y-67071298D01*
X108209688Y-67067346D01*
X108199546Y-67062066D01*
X108191689Y-67055267D01*
X108176963Y-67033667D01*
X108169111Y-67004467D01*
X108174610Y-66980560D01*
X108191689Y-66953667D01*
X108196668Y-66949059D01*
X108206443Y-66942772D01*
X108220559Y-66938146D01*
X108242054Y-66934930D01*
X108273968Y-66932870D01*
X108319342Y-66931712D01*
X108381213Y-66931202D01*
X108462622Y-66931089D01*
X108710978Y-66931089D01*
X108710978Y-66773045D01*
X108549801Y-66773045D01*
X108513983Y-66772899D01*
X108448359Y-66771176D01*
X108401118Y-66766741D01*
X108369383Y-66758637D01*
X108350277Y-66745906D01*
X108340923Y-66727592D01*
X108338445Y-66702738D01*
X108339242Y-66682482D01*
X108344494Y-66660656D01*
X108357288Y-66645304D01*
X108380628Y-66635309D01*
X108417517Y-66629553D01*
X108470959Y-66626919D01*
X108543958Y-66626289D01*
X108712105Y-66626289D01*
X108708719Y-66561378D01*
X108705334Y-66496467D01*
X108457617Y-66493418D01*
X108395026Y-66492539D01*
X108326565Y-66491095D01*
X108275661Y-66489164D01*
X108239408Y-66486514D01*
X108214901Y-66482910D01*
X108199235Y-66478121D01*
X108189506Y-66471913D01*
X108183491Y-66465510D01*
X108170482Y-66433828D01*
X108174043Y-66398142D01*
X108193818Y-66367084D01*
X108197069Y-66364161D01*
X108206049Y-66357810D01*
X108218153Y-66352957D01*
X108236159Y-66349403D01*
X108262847Y-66346946D01*
X108300997Y-66345385D01*
X108353386Y-66344518D01*
X108422794Y-66344146D01*
X108512001Y-66344067D01*
X108566734Y-66344083D01*
G37*
X99999702Y-66353478D02*
X100017663Y-66371989D01*
X100038263Y-66403071D01*
X100063095Y-66448756D01*
X100093750Y-66511078D01*
X100131820Y-66592071D01*
X100146454Y-66623454D01*
X100176203Y-66686638D01*
X100202297Y-66741244D01*
X100223292Y-66784290D01*
X100237739Y-66812793D01*
X100244191Y-66823770D01*
X100245550Y-66823189D01*
X100255542Y-66809242D01*
X100272833Y-66779704D01*
X100295430Y-66738087D01*
X100321338Y-66687903D01*
X100337311Y-66656414D01*
X100366261Y-66601061D01*
X100388749Y-66562044D01*
X100406965Y-66536566D01*
X100423096Y-66521831D01*
X100439330Y-66515042D01*
X100457857Y-66513400D01*
X100468360Y-66513875D01*
X100484476Y-66518082D01*
X100499790Y-66528946D01*
X100516388Y-66549219D01*
X100536357Y-66581654D01*
X100561783Y-66629004D01*
X100594752Y-66694022D01*
X100604485Y-66713277D01*
X100628943Y-66759946D01*
X100649178Y-66796109D01*
X100663311Y-66818497D01*
X100669460Y-66823845D01*
X100670827Y-66820573D01*
X100680202Y-66799664D01*
X100697062Y-66762725D01*
X100719979Y-66712874D01*
X100747520Y-66653226D01*
X100778255Y-66586898D01*
X100804970Y-66529677D01*
X100834593Y-66467688D01*
X100857664Y-66421949D01*
X100875643Y-66389908D01*
X100889990Y-66369014D01*
X100902166Y-66356718D01*
X100913632Y-66350466D01*
X100923042Y-66347574D01*
X100948147Y-66347425D01*
X100975290Y-66362768D01*
X100976590Y-66363753D01*
X100998674Y-66386388D01*
X101009723Y-66408613D01*
X101009769Y-66409253D01*
X101005228Y-66426915D01*
X100992364Y-66461481D01*
X100972605Y-66509826D01*
X100947381Y-66568825D01*
X100918119Y-66635355D01*
X100886250Y-66706291D01*
X100853201Y-66778507D01*
X100820401Y-66848880D01*
X100789280Y-66914285D01*
X100761265Y-66971597D01*
X100737786Y-67017692D01*
X100720272Y-67049446D01*
X100710151Y-67063733D01*
X100675743Y-67077102D01*
X100634046Y-67070741D01*
X100628681Y-67066044D01*
X100612852Y-67043893D01*
X100590650Y-67007132D01*
X100564233Y-66959415D01*
X100535760Y-66904393D01*
X100455986Y-66745150D01*
X100382799Y-66891742D01*
X100373103Y-66911032D01*
X100346125Y-66963380D01*
X100322096Y-67008170D01*
X100303332Y-67041154D01*
X100292146Y-67058089D01*
X100291000Y-67059332D01*
X100262879Y-67074619D01*
X100227817Y-67076302D01*
X100196776Y-67063733D01*
X100194350Y-67060884D01*
X100182090Y-67040259D01*
X100162352Y-67002708D01*
X100136448Y-66950880D01*
X100105685Y-66887423D01*
X100071375Y-66814985D01*
X100034825Y-66736216D01*
X100014585Y-66692093D01*
X99977812Y-66611365D01*
X99949355Y-66547687D01*
X99928331Y-66498752D01*
X99913854Y-66462257D01*
X99905039Y-66435895D01*
X99901004Y-66417361D01*
X99900862Y-66404352D01*
X99903730Y-66394561D01*
X99918387Y-66373678D01*
X99944990Y-66353377D01*
X99945745Y-66353035D01*
X99965335Y-66346034D01*
X99982790Y-66345504D01*
X99999702Y-66353478D01*
G36*
X99999702Y-66353478D02*
G01*
X100017663Y-66371989D01*
X100038263Y-66403071D01*
X100063095Y-66448756D01*
X100093750Y-66511078D01*
X100131820Y-66592071D01*
X100146454Y-66623454D01*
X100176203Y-66686638D01*
X100202297Y-66741244D01*
X100223292Y-66784290D01*
X100237739Y-66812793D01*
X100244191Y-66823770D01*
X100245550Y-66823189D01*
X100255542Y-66809242D01*
X100272833Y-66779704D01*
X100295430Y-66738087D01*
X100321338Y-66687903D01*
X100337311Y-66656414D01*
X100366261Y-66601061D01*
X100388749Y-66562044D01*
X100406965Y-66536566D01*
X100423096Y-66521831D01*
X100439330Y-66515042D01*
X100457857Y-66513400D01*
X100468360Y-66513875D01*
X100484476Y-66518082D01*
X100499790Y-66528946D01*
X100516388Y-66549219D01*
X100536357Y-66581654D01*
X100561783Y-66629004D01*
X100594752Y-66694022D01*
X100604485Y-66713277D01*
X100628943Y-66759946D01*
X100649178Y-66796109D01*
X100663311Y-66818497D01*
X100669460Y-66823845D01*
X100670827Y-66820573D01*
X100680202Y-66799664D01*
X100697062Y-66762725D01*
X100719979Y-66712874D01*
X100747520Y-66653226D01*
X100778255Y-66586898D01*
X100804970Y-66529677D01*
X100834593Y-66467688D01*
X100857664Y-66421949D01*
X100875643Y-66389908D01*
X100889990Y-66369014D01*
X100902166Y-66356718D01*
X100913632Y-66350466D01*
X100923042Y-66347574D01*
X100948147Y-66347425D01*
X100975290Y-66362768D01*
X100976590Y-66363753D01*
X100998674Y-66386388D01*
X101009723Y-66408613D01*
X101009769Y-66409253D01*
X101005228Y-66426915D01*
X100992364Y-66461481D01*
X100972605Y-66509826D01*
X100947381Y-66568825D01*
X100918119Y-66635355D01*
X100886250Y-66706291D01*
X100853201Y-66778507D01*
X100820401Y-66848880D01*
X100789280Y-66914285D01*
X100761265Y-66971597D01*
X100737786Y-67017692D01*
X100720272Y-67049446D01*
X100710151Y-67063733D01*
X100675743Y-67077102D01*
X100634046Y-67070741D01*
X100628681Y-67066044D01*
X100612852Y-67043893D01*
X100590650Y-67007132D01*
X100564233Y-66959415D01*
X100535760Y-66904393D01*
X100455986Y-66745150D01*
X100382799Y-66891742D01*
X100373103Y-66911032D01*
X100346125Y-66963380D01*
X100322096Y-67008170D01*
X100303332Y-67041154D01*
X100292146Y-67058089D01*
X100291000Y-67059332D01*
X100262879Y-67074619D01*
X100227817Y-67076302D01*
X100196776Y-67063733D01*
X100194350Y-67060884D01*
X100182090Y-67040259D01*
X100162352Y-67002708D01*
X100136448Y-66950880D01*
X100105685Y-66887423D01*
X100071375Y-66814985D01*
X100034825Y-66736216D01*
X100014585Y-66692093D01*
X99977812Y-66611365D01*
X99949355Y-66547687D01*
X99928331Y-66498752D01*
X99913854Y-66462257D01*
X99905039Y-66435895D01*
X99901004Y-66417361D01*
X99900862Y-66404352D01*
X99903730Y-66394561D01*
X99918387Y-66373678D01*
X99944990Y-66353377D01*
X99945745Y-66353035D01*
X99965335Y-66346034D01*
X99982790Y-66345504D01*
X99999702Y-66353478D01*
G37*
X107550853Y-66344936D02*
X107617100Y-66350366D01*
X107672400Y-66359964D01*
X107723283Y-66374825D01*
X107794595Y-66407958D01*
X107845752Y-66450640D01*
X107876575Y-66502705D01*
X107886889Y-66563983D01*
X107885952Y-66595232D01*
X107880160Y-66620029D01*
X107865353Y-66641699D01*
X107837380Y-66669049D01*
X107829402Y-66676378D01*
X107805692Y-66697281D01*
X107783298Y-66714251D01*
X107759265Y-66728205D01*
X107730637Y-66740056D01*
X107694460Y-66750720D01*
X107647780Y-66761111D01*
X107587641Y-66772146D01*
X107511090Y-66784738D01*
X107415171Y-66799804D01*
X107396808Y-66802838D01*
X107334478Y-66816458D01*
X107289260Y-66832192D01*
X107262976Y-66849263D01*
X107257447Y-66866897D01*
X107260068Y-66871168D01*
X107278000Y-66886233D01*
X107306126Y-66902867D01*
X107318926Y-66908857D01*
X107340224Y-66916050D01*
X107366610Y-66920827D01*
X107402454Y-66923646D01*
X107452128Y-66924964D01*
X107520000Y-66925237D01*
X107537785Y-66925164D01*
X107605406Y-66924053D01*
X107670345Y-66921828D01*
X107725970Y-66918762D01*
X107765651Y-66915127D01*
X107801162Y-66911059D01*
X107830415Y-66910276D01*
X107849315Y-66914876D01*
X107864429Y-66925551D01*
X107868085Y-66929144D01*
X107884427Y-66960918D01*
X107883107Y-66996572D01*
X107864150Y-67027190D01*
X107843780Y-67038796D01*
X107807796Y-67051491D01*
X107765372Y-67061541D01*
X107761922Y-67062140D01*
X107719252Y-67067356D01*
X107661866Y-67071730D01*
X107596849Y-67074818D01*
X107531289Y-67076177D01*
X107515057Y-67076218D01*
X107416744Y-67073741D01*
X107336692Y-67065735D01*
X107271513Y-67051203D01*
X107217817Y-67029149D01*
X107172216Y-66998576D01*
X107131323Y-66958486D01*
X107111202Y-66932259D01*
X107099576Y-66902712D01*
X107096667Y-66862995D01*
X107096808Y-66851026D01*
X107100681Y-66818345D01*
X107113065Y-66791819D01*
X107138230Y-66760971D01*
X107159442Y-66738831D01*
X107185838Y-66716285D01*
X107215555Y-66697917D01*
X107251785Y-66682661D01*
X107297717Y-66669449D01*
X107356544Y-66657214D01*
X107431456Y-66644889D01*
X107525645Y-66631406D01*
X107570957Y-66624396D01*
X107638911Y-66609837D01*
X107688047Y-66593337D01*
X107717614Y-66575439D01*
X107726864Y-66556685D01*
X107715048Y-66537615D01*
X107681416Y-66518771D01*
X107678370Y-66517557D01*
X107632011Y-66505479D01*
X107569361Y-66497279D01*
X107495927Y-66493119D01*
X107417217Y-66493161D01*
X107338739Y-66497569D01*
X107266000Y-66506505D01*
X107262073Y-66507154D01*
X107213257Y-66514861D01*
X107181005Y-66518473D01*
X107160008Y-66517876D01*
X107144954Y-66512954D01*
X107130534Y-66503596D01*
X107129364Y-66502725D01*
X107104847Y-66472351D01*
X107100054Y-66436850D01*
X107115860Y-66402269D01*
X107120406Y-66397813D01*
X107150020Y-66382673D01*
X107197002Y-66369550D01*
X107257306Y-66358750D01*
X107326888Y-66350581D01*
X107401703Y-66345351D01*
X107477706Y-66343367D01*
X107550853Y-66344936D01*
G36*
X107550853Y-66344936D02*
G01*
X107617100Y-66350366D01*
X107672400Y-66359964D01*
X107723283Y-66374825D01*
X107794595Y-66407958D01*
X107845752Y-66450640D01*
X107876575Y-66502705D01*
X107886889Y-66563983D01*
X107885952Y-66595232D01*
X107880160Y-66620029D01*
X107865353Y-66641699D01*
X107837380Y-66669049D01*
X107829402Y-66676378D01*
X107805692Y-66697281D01*
X107783298Y-66714251D01*
X107759265Y-66728205D01*
X107730637Y-66740056D01*
X107694460Y-66750720D01*
X107647780Y-66761111D01*
X107587641Y-66772146D01*
X107511090Y-66784738D01*
X107415171Y-66799804D01*
X107396808Y-66802838D01*
X107334478Y-66816458D01*
X107289260Y-66832192D01*
X107262976Y-66849263D01*
X107257447Y-66866897D01*
X107260068Y-66871168D01*
X107278000Y-66886233D01*
X107306126Y-66902867D01*
X107318926Y-66908857D01*
X107340224Y-66916050D01*
X107366610Y-66920827D01*
X107402454Y-66923646D01*
X107452128Y-66924964D01*
X107520000Y-66925237D01*
X107537785Y-66925164D01*
X107605406Y-66924053D01*
X107670345Y-66921828D01*
X107725970Y-66918762D01*
X107765651Y-66915127D01*
X107801162Y-66911059D01*
X107830415Y-66910276D01*
X107849315Y-66914876D01*
X107864429Y-66925551D01*
X107868085Y-66929144D01*
X107884427Y-66960918D01*
X107883107Y-66996572D01*
X107864150Y-67027190D01*
X107843780Y-67038796D01*
X107807796Y-67051491D01*
X107765372Y-67061541D01*
X107761922Y-67062140D01*
X107719252Y-67067356D01*
X107661866Y-67071730D01*
X107596849Y-67074818D01*
X107531289Y-67076177D01*
X107515057Y-67076218D01*
X107416744Y-67073741D01*
X107336692Y-67065735D01*
X107271513Y-67051203D01*
X107217817Y-67029149D01*
X107172216Y-66998576D01*
X107131323Y-66958486D01*
X107111202Y-66932259D01*
X107099576Y-66902712D01*
X107096667Y-66862995D01*
X107096808Y-66851026D01*
X107100681Y-66818345D01*
X107113065Y-66791819D01*
X107138230Y-66760971D01*
X107159442Y-66738831D01*
X107185838Y-66716285D01*
X107215555Y-66697917D01*
X107251785Y-66682661D01*
X107297717Y-66669449D01*
X107356544Y-66657214D01*
X107431456Y-66644889D01*
X107525645Y-66631406D01*
X107570957Y-66624396D01*
X107638911Y-66609837D01*
X107688047Y-66593337D01*
X107717614Y-66575439D01*
X107726864Y-66556685D01*
X107715048Y-66537615D01*
X107681416Y-66518771D01*
X107678370Y-66517557D01*
X107632011Y-66505479D01*
X107569361Y-66497279D01*
X107495927Y-66493119D01*
X107417217Y-66493161D01*
X107338739Y-66497569D01*
X107266000Y-66506505D01*
X107262073Y-66507154D01*
X107213257Y-66514861D01*
X107181005Y-66518473D01*
X107160008Y-66517876D01*
X107144954Y-66512954D01*
X107130534Y-66503596D01*
X107129364Y-66502725D01*
X107104847Y-66472351D01*
X107100054Y-66436850D01*
X107115860Y-66402269D01*
X107120406Y-66397813D01*
X107150020Y-66382673D01*
X107197002Y-66369550D01*
X107257306Y-66358750D01*
X107326888Y-66350581D01*
X107401703Y-66345351D01*
X107477706Y-66343367D01*
X107550853Y-66344936D01*
G37*
X103698711Y-62037033D02*
X103794268Y-62054523D01*
X103958558Y-62099564D01*
X104112589Y-62162656D01*
X104258509Y-62244915D01*
X104398466Y-62347457D01*
X104534608Y-62471399D01*
X104578473Y-62516661D01*
X104690758Y-62648865D01*
X104783972Y-62786832D01*
X104860719Y-62934750D01*
X104923603Y-63096803D01*
X104927420Y-63108391D01*
X104977507Y-63294392D01*
X105010899Y-63490521D01*
X105027584Y-63692568D01*
X105027551Y-63896325D01*
X105010791Y-64097581D01*
X104977292Y-64292128D01*
X104927044Y-64475756D01*
X104883190Y-64593053D01*
X104805348Y-64755951D01*
X104711828Y-64909866D01*
X104604822Y-65051671D01*
X104486519Y-65178239D01*
X104359111Y-65286441D01*
X104281606Y-65339120D01*
X104154725Y-65408750D01*
X104017243Y-65467468D01*
X103875716Y-65512587D01*
X103736702Y-65541422D01*
X103722597Y-65543106D01*
X103679153Y-65546434D01*
X103621723Y-65549275D01*
X103556122Y-65551373D01*
X103488167Y-65552468D01*
X103361378Y-65550140D01*
X103213673Y-65537136D01*
X103075779Y-65512133D01*
X102942014Y-65474318D01*
X102918562Y-65465889D01*
X102870612Y-65446408D01*
X102814140Y-65421473D01*
X102752379Y-65392722D01*
X102688563Y-65361790D01*
X102625926Y-65330315D01*
X102567703Y-65299934D01*
X102517127Y-65272283D01*
X102477433Y-65248999D01*
X102451854Y-65231718D01*
X102443625Y-65222079D01*
X102445076Y-65218984D01*
X102456250Y-65199079D01*
X102477134Y-65163420D01*
X102506265Y-65114459D01*
X102542181Y-65054646D01*
X102583420Y-64986433D01*
X102628517Y-64912271D01*
X102809785Y-64615008D01*
X102856315Y-64659539D01*
X102947723Y-64737865D01*
X103061334Y-64812439D01*
X103179122Y-64866474D01*
X103299559Y-64899290D01*
X103421117Y-64910211D01*
X103462585Y-64908868D01*
X103580080Y-64890612D01*
X103690089Y-64851617D01*
X103791430Y-64792670D01*
X103882921Y-64714557D01*
X103963380Y-64618064D01*
X104031627Y-64503978D01*
X104047908Y-64469724D01*
X104093982Y-64346240D01*
X104129106Y-64207918D01*
X104153197Y-64058561D01*
X104166173Y-63901973D01*
X104167949Y-63741956D01*
X104158443Y-63582314D01*
X104137572Y-63426850D01*
X104105252Y-63279366D01*
X104061399Y-63143667D01*
X104023982Y-63057076D01*
X103959185Y-62943688D01*
X103883772Y-62850070D01*
X103797418Y-62775959D01*
X103699795Y-62721094D01*
X103590577Y-62685212D01*
X103469439Y-62668051D01*
X103400038Y-62666880D01*
X103277168Y-62681141D01*
X103161664Y-62716241D01*
X103054953Y-62771682D01*
X102958464Y-62846964D01*
X102942720Y-62861440D01*
X102912150Y-62887962D01*
X102889809Y-62905138D01*
X102879691Y-62909787D01*
X102877706Y-62907597D01*
X102863241Y-62888721D01*
X102839400Y-62855397D01*
X102808029Y-62810380D01*
X102770974Y-62756425D01*
X102730083Y-62696285D01*
X102687202Y-62632718D01*
X102644178Y-62568476D01*
X102602857Y-62506315D01*
X102565086Y-62448991D01*
X102532712Y-62399257D01*
X102507582Y-62359868D01*
X102491542Y-62333580D01*
X102486439Y-62323147D01*
X102491050Y-62318941D01*
X102510267Y-62313933D01*
X102519838Y-62311386D01*
X102547809Y-62300249D01*
X102589448Y-62281802D01*
X102640995Y-62257725D01*
X102698690Y-62229699D01*
X102709957Y-62224154D01*
X102887687Y-62144889D01*
X103057490Y-62085385D01*
X103221430Y-62045245D01*
X103381571Y-62024071D01*
X103539977Y-62021466D01*
X103698711Y-62037033D01*
G36*
X103698711Y-62037033D02*
G01*
X103794268Y-62054523D01*
X103958558Y-62099564D01*
X104112589Y-62162656D01*
X104258509Y-62244915D01*
X104398466Y-62347457D01*
X104534608Y-62471399D01*
X104578473Y-62516661D01*
X104690758Y-62648865D01*
X104783972Y-62786832D01*
X104860719Y-62934750D01*
X104923603Y-63096803D01*
X104927420Y-63108391D01*
X104977507Y-63294392D01*
X105010899Y-63490521D01*
X105027584Y-63692568D01*
X105027551Y-63896325D01*
X105010791Y-64097581D01*
X104977292Y-64292128D01*
X104927044Y-64475756D01*
X104883190Y-64593053D01*
X104805348Y-64755951D01*
X104711828Y-64909866D01*
X104604822Y-65051671D01*
X104486519Y-65178239D01*
X104359111Y-65286441D01*
X104281606Y-65339120D01*
X104154725Y-65408750D01*
X104017243Y-65467468D01*
X103875716Y-65512587D01*
X103736702Y-65541422D01*
X103722597Y-65543106D01*
X103679153Y-65546434D01*
X103621723Y-65549275D01*
X103556122Y-65551373D01*
X103488167Y-65552468D01*
X103361378Y-65550140D01*
X103213673Y-65537136D01*
X103075779Y-65512133D01*
X102942014Y-65474318D01*
X102918562Y-65465889D01*
X102870612Y-65446408D01*
X102814140Y-65421473D01*
X102752379Y-65392722D01*
X102688563Y-65361790D01*
X102625926Y-65330315D01*
X102567703Y-65299934D01*
X102517127Y-65272283D01*
X102477433Y-65248999D01*
X102451854Y-65231718D01*
X102443625Y-65222079D01*
X102445076Y-65218984D01*
X102456250Y-65199079D01*
X102477134Y-65163420D01*
X102506265Y-65114459D01*
X102542181Y-65054646D01*
X102583420Y-64986433D01*
X102628517Y-64912271D01*
X102809785Y-64615008D01*
X102856315Y-64659539D01*
X102947723Y-64737865D01*
X103061334Y-64812439D01*
X103179122Y-64866474D01*
X103299559Y-64899290D01*
X103421117Y-64910211D01*
X103462585Y-64908868D01*
X103580080Y-64890612D01*
X103690089Y-64851617D01*
X103791430Y-64792670D01*
X103882921Y-64714557D01*
X103963380Y-64618064D01*
X104031627Y-64503978D01*
X104047908Y-64469724D01*
X104093982Y-64346240D01*
X104129106Y-64207918D01*
X104153197Y-64058561D01*
X104166173Y-63901973D01*
X104167949Y-63741956D01*
X104158443Y-63582314D01*
X104137572Y-63426850D01*
X104105252Y-63279366D01*
X104061399Y-63143667D01*
X104023982Y-63057076D01*
X103959185Y-62943688D01*
X103883772Y-62850070D01*
X103797418Y-62775959D01*
X103699795Y-62721094D01*
X103590577Y-62685212D01*
X103469439Y-62668051D01*
X103400038Y-62666880D01*
X103277168Y-62681141D01*
X103161664Y-62716241D01*
X103054953Y-62771682D01*
X102958464Y-62846964D01*
X102942720Y-62861440D01*
X102912150Y-62887962D01*
X102889809Y-62905138D01*
X102879691Y-62909787D01*
X102877706Y-62907597D01*
X102863241Y-62888721D01*
X102839400Y-62855397D01*
X102808029Y-62810380D01*
X102770974Y-62756425D01*
X102730083Y-62696285D01*
X102687202Y-62632718D01*
X102644178Y-62568476D01*
X102602857Y-62506315D01*
X102565086Y-62448991D01*
X102532712Y-62399257D01*
X102507582Y-62359868D01*
X102491542Y-62333580D01*
X102486439Y-62323147D01*
X102491050Y-62318941D01*
X102510267Y-62313933D01*
X102519838Y-62311386D01*
X102547809Y-62300249D01*
X102589448Y-62281802D01*
X102640995Y-62257725D01*
X102698690Y-62229699D01*
X102709957Y-62224154D01*
X102887687Y-62144889D01*
X103057490Y-62085385D01*
X103221430Y-62045245D01*
X103381571Y-62024071D01*
X103539977Y-62021466D01*
X103698711Y-62037033D01*
G37*
X99895994Y-64317711D02*
X99895268Y-64395158D01*
X99886689Y-64546594D01*
X99867833Y-64683283D01*
X99837837Y-64809276D01*
X99795836Y-64928625D01*
X99740969Y-65045381D01*
X99674167Y-65156179D01*
X99583363Y-65269739D01*
X99479708Y-65365211D01*
X99363887Y-65442073D01*
X99236586Y-65499797D01*
X99098489Y-65537858D01*
X99060793Y-65543666D01*
X98981752Y-65549396D01*
X98893629Y-65549583D01*
X98804236Y-65544539D01*
X98721384Y-65534578D01*
X98652887Y-65520012D01*
X98622035Y-65510364D01*
X98544730Y-65480123D01*
X98467679Y-65442617D01*
X98398200Y-65401614D01*
X98343615Y-65360879D01*
X98320916Y-65341505D01*
X98298201Y-65323662D01*
X98286779Y-65316778D01*
X98285537Y-65318424D01*
X98282728Y-65336205D01*
X98280776Y-65369370D01*
X98280045Y-65412733D01*
X98280045Y-65508689D01*
X97421896Y-65508689D01*
X97456161Y-65447974D01*
X97461355Y-65438868D01*
X97469715Y-65424249D01*
X97477288Y-65410173D01*
X97484112Y-65395540D01*
X97490227Y-65379249D01*
X97495673Y-65360198D01*
X97500487Y-65337286D01*
X97504708Y-65309413D01*
X97508377Y-65275478D01*
X97511531Y-65234379D01*
X97514211Y-65185015D01*
X97516454Y-65126286D01*
X97518299Y-65057090D01*
X97519787Y-64976326D01*
X97520955Y-64882894D01*
X97521844Y-64775692D01*
X97522491Y-64653620D01*
X97522936Y-64515576D01*
X97523218Y-64360459D01*
X97523375Y-64187168D01*
X97523448Y-63994603D01*
X97523474Y-63781662D01*
X97523485Y-63645530D01*
X98325200Y-63645530D01*
X98325200Y-64795721D01*
X98395756Y-64842089D01*
X98436417Y-64865791D01*
X98490546Y-64891639D01*
X98539689Y-64909829D01*
X98603165Y-64925551D01*
X98699331Y-64936541D01*
X98783900Y-64928365D01*
X98857219Y-64900805D01*
X98919637Y-64853642D01*
X98971502Y-64786658D01*
X99013160Y-64699633D01*
X99044962Y-64592350D01*
X99047545Y-64580009D01*
X99056000Y-64518772D01*
X99061663Y-64441692D01*
X99064576Y-64354002D01*
X99064783Y-64260934D01*
X99062330Y-64167720D01*
X99057261Y-64079594D01*
X99049619Y-64001788D01*
X99039448Y-63939533D01*
X99038167Y-63933666D01*
X99009126Y-63823121D01*
X98974610Y-63732575D01*
X98933456Y-63659953D01*
X98884499Y-63603181D01*
X98826574Y-63560184D01*
X98794620Y-63544615D01*
X98721784Y-63525722D01*
X98640443Y-63522465D01*
X98555319Y-63534389D01*
X98471133Y-63561040D01*
X98392608Y-63601962D01*
X98325200Y-63645530D01*
X97523485Y-63645530D01*
X97523493Y-63547245D01*
X97523689Y-61862378D01*
X98429017Y-61862378D01*
X98404585Y-61899067D01*
X98398318Y-61908647D01*
X98372208Y-61954981D01*
X98354469Y-62002102D01*
X98342908Y-62057251D01*
X98335331Y-62127667D01*
X98334839Y-62134650D01*
X98333062Y-62172641D01*
X98331444Y-62226576D01*
X98329999Y-62293703D01*
X98328740Y-62371271D01*
X98327680Y-62456528D01*
X98326829Y-62546724D01*
X98326203Y-62639107D01*
X98325812Y-62730925D01*
X98325670Y-62819427D01*
X98325790Y-62901862D01*
X98326183Y-62975479D01*
X98326862Y-63037526D01*
X98327841Y-63085251D01*
X98329132Y-63115904D01*
X98330747Y-63126733D01*
X98338957Y-63122333D01*
X98360647Y-63107362D01*
X98390014Y-63085448D01*
X98438879Y-63051236D01*
X98527125Y-63004714D01*
X98625916Y-62971046D01*
X98738510Y-62949231D01*
X98868164Y-62938265D01*
X98960670Y-62937219D01*
X99082011Y-62947014D01*
X99192099Y-62971174D01*
X99295389Y-63010785D01*
X99396338Y-63066932D01*
X99441503Y-63097883D01*
X99546911Y-63189115D01*
X99638538Y-63298106D01*
X99716332Y-63424726D01*
X99780241Y-63568845D01*
X99830214Y-63730332D01*
X99866198Y-63909059D01*
X99888143Y-64104895D01*
X99893900Y-64260934D01*
X99895994Y-64317711D01*
G36*
X99895994Y-64317711D02*
G01*
X99895268Y-64395158D01*
X99886689Y-64546594D01*
X99867833Y-64683283D01*
X99837837Y-64809276D01*
X99795836Y-64928625D01*
X99740969Y-65045381D01*
X99674167Y-65156179D01*
X99583363Y-65269739D01*
X99479708Y-65365211D01*
X99363887Y-65442073D01*
X99236586Y-65499797D01*
X99098489Y-65537858D01*
X99060793Y-65543666D01*
X98981752Y-65549396D01*
X98893629Y-65549583D01*
X98804236Y-65544539D01*
X98721384Y-65534578D01*
X98652887Y-65520012D01*
X98622035Y-65510364D01*
X98544730Y-65480123D01*
X98467679Y-65442617D01*
X98398200Y-65401614D01*
X98343615Y-65360879D01*
X98320916Y-65341505D01*
X98298201Y-65323662D01*
X98286779Y-65316778D01*
X98285537Y-65318424D01*
X98282728Y-65336205D01*
X98280776Y-65369370D01*
X98280045Y-65412733D01*
X98280045Y-65508689D01*
X97421896Y-65508689D01*
X97456161Y-65447974D01*
X97461355Y-65438868D01*
X97469715Y-65424249D01*
X97477288Y-65410173D01*
X97484112Y-65395540D01*
X97490227Y-65379249D01*
X97495673Y-65360198D01*
X97500487Y-65337286D01*
X97504708Y-65309413D01*
X97508377Y-65275478D01*
X97511531Y-65234379D01*
X97514211Y-65185015D01*
X97516454Y-65126286D01*
X97518299Y-65057090D01*
X97519787Y-64976326D01*
X97520955Y-64882894D01*
X97521844Y-64775692D01*
X97522491Y-64653620D01*
X97522936Y-64515576D01*
X97523218Y-64360459D01*
X97523375Y-64187168D01*
X97523448Y-63994603D01*
X97523474Y-63781662D01*
X97523485Y-63645530D01*
X98325200Y-63645530D01*
X98325200Y-64795721D01*
X98395756Y-64842089D01*
X98436417Y-64865791D01*
X98490546Y-64891639D01*
X98539689Y-64909829D01*
X98603165Y-64925551D01*
X98699331Y-64936541D01*
X98783900Y-64928365D01*
X98857219Y-64900805D01*
X98919637Y-64853642D01*
X98971502Y-64786658D01*
X99013160Y-64699633D01*
X99044962Y-64592350D01*
X99047545Y-64580009D01*
X99056000Y-64518772D01*
X99061663Y-64441692D01*
X99064576Y-64354002D01*
X99064783Y-64260934D01*
X99062330Y-64167720D01*
X99057261Y-64079594D01*
X99049619Y-64001788D01*
X99039448Y-63939533D01*
X99038167Y-63933666D01*
X99009126Y-63823121D01*
X98974610Y-63732575D01*
X98933456Y-63659953D01*
X98884499Y-63603181D01*
X98826574Y-63560184D01*
X98794620Y-63544615D01*
X98721784Y-63525722D01*
X98640443Y-63522465D01*
X98555319Y-63534389D01*
X98471133Y-63561040D01*
X98392608Y-63601962D01*
X98325200Y-63645530D01*
X97523485Y-63645530D01*
X97523493Y-63547245D01*
X97523689Y-61862378D01*
X98429017Y-61862378D01*
X98404585Y-61899067D01*
X98398318Y-61908647D01*
X98372208Y-61954981D01*
X98354469Y-62002102D01*
X98342908Y-62057251D01*
X98335331Y-62127667D01*
X98334839Y-62134650D01*
X98333062Y-62172641D01*
X98331444Y-62226576D01*
X98329999Y-62293703D01*
X98328740Y-62371271D01*
X98327680Y-62456528D01*
X98326829Y-62546724D01*
X98326203Y-62639107D01*
X98325812Y-62730925D01*
X98325670Y-62819427D01*
X98325790Y-62901862D01*
X98326183Y-62975479D01*
X98326862Y-63037526D01*
X98327841Y-63085251D01*
X98329132Y-63115904D01*
X98330747Y-63126733D01*
X98338957Y-63122333D01*
X98360647Y-63107362D01*
X98390014Y-63085448D01*
X98438879Y-63051236D01*
X98527125Y-63004714D01*
X98625916Y-62971046D01*
X98738510Y-62949231D01*
X98868164Y-62938265D01*
X98960670Y-62937219D01*
X99082011Y-62947014D01*
X99192099Y-62971174D01*
X99295389Y-63010785D01*
X99396338Y-63066932D01*
X99441503Y-63097883D01*
X99546911Y-63189115D01*
X99638538Y-63298106D01*
X99716332Y-63424726D01*
X99780241Y-63568845D01*
X99830214Y-63730332D01*
X99866198Y-63909059D01*
X99888143Y-64104895D01*
X99893900Y-64260934D01*
X99895994Y-64317711D01*
G37*
X102437755Y-64718467D02*
X102437261Y-64752363D01*
X102433632Y-64827202D01*
X102426022Y-64889401D01*
X102413688Y-64945984D01*
X102369313Y-65072076D01*
X102306400Y-65186679D01*
X102226238Y-65287568D01*
X102129740Y-65373924D01*
X102017822Y-65444932D01*
X101891397Y-65499776D01*
X101751378Y-65537638D01*
X101715149Y-65543351D01*
X101636155Y-65549313D01*
X101547841Y-65549646D01*
X101458075Y-65544659D01*
X101374722Y-65534666D01*
X101305651Y-65519978D01*
X101219187Y-65489749D01*
X101109286Y-65435057D01*
X101011956Y-65367543D01*
X100949867Y-65316556D01*
X100946605Y-65412622D01*
X100943343Y-65508689D01*
X100520450Y-65508689D01*
X100509543Y-65508686D01*
X100415056Y-65508380D01*
X100328331Y-65507616D01*
X100251837Y-65506451D01*
X100188043Y-65504942D01*
X100139418Y-65503147D01*
X100108433Y-65501121D01*
X100097556Y-65498922D01*
X100097578Y-65498463D01*
X100104614Y-65482910D01*
X100120434Y-65460071D01*
X100124734Y-65454638D01*
X100135777Y-65440606D01*
X100145311Y-65427186D01*
X100153461Y-65412722D01*
X100160352Y-65395556D01*
X100166111Y-65374034D01*
X100170862Y-65346498D01*
X100174731Y-65311292D01*
X100177844Y-65266760D01*
X100180325Y-65211246D01*
X100182300Y-65143093D01*
X100183894Y-65060645D01*
X100185234Y-64962246D01*
X100186444Y-64846239D01*
X100187649Y-64710968D01*
X100188595Y-64599586D01*
X100989378Y-64599586D01*
X100989378Y-64795462D01*
X101034048Y-64851973D01*
X101046785Y-64867212D01*
X101093604Y-64909844D01*
X101154255Y-64945672D01*
X101164897Y-64950850D01*
X101203676Y-64967745D01*
X101238692Y-64977909D01*
X101278722Y-64983325D01*
X101332541Y-64985978D01*
X101350648Y-64986383D01*
X101426011Y-64983540D01*
X101486743Y-64971620D01*
X101538452Y-64949037D01*
X101586746Y-64914211D01*
X101591803Y-64909798D01*
X101640272Y-64854160D01*
X101668459Y-64790333D01*
X101677752Y-64715282D01*
X101670520Y-64643693D01*
X101645796Y-64580645D01*
X101601249Y-64522758D01*
X101546319Y-64475808D01*
X101473894Y-64435961D01*
X101387340Y-64408263D01*
X101284670Y-64392096D01*
X101163894Y-64386842D01*
X101155007Y-64386857D01*
X101099660Y-64387655D01*
X101052736Y-64389488D01*
X101018953Y-64392111D01*
X101003028Y-64395274D01*
X100998943Y-64401741D01*
X100994572Y-64423875D01*
X100991604Y-64462988D01*
X100989914Y-64520939D01*
X100989378Y-64599586D01*
X100188595Y-64599586D01*
X100188975Y-64554778D01*
X100190228Y-64412012D01*
X100191651Y-64266942D01*
X100193176Y-64141027D01*
X100194933Y-64032436D01*
X100197051Y-63939334D01*
X100199660Y-63859891D01*
X100202890Y-63792273D01*
X100206869Y-63734649D01*
X100211728Y-63685185D01*
X100217597Y-63642050D01*
X100224604Y-63603410D01*
X100232880Y-63567434D01*
X100242554Y-63532289D01*
X100253756Y-63496142D01*
X100266616Y-63457161D01*
X100282090Y-63414091D01*
X100324994Y-63321871D01*
X100378735Y-63242099D01*
X100447576Y-63167965D01*
X100525185Y-63104405D01*
X100629761Y-63042725D01*
X100749244Y-62995202D01*
X100884508Y-62961567D01*
X101036426Y-62941552D01*
X101205872Y-62934889D01*
X101263890Y-62935287D01*
X101329398Y-62937335D01*
X101390693Y-62941704D01*
X101452097Y-62949035D01*
X101517932Y-62959969D01*
X101592520Y-62975147D01*
X101680184Y-62995209D01*
X101785245Y-63020797D01*
X101813806Y-63027820D01*
X101889054Y-63045776D01*
X101959388Y-63061820D01*
X102020567Y-63075028D01*
X102068354Y-63084474D01*
X102098511Y-63089231D01*
X102126783Y-63092910D01*
X102153060Y-63098187D01*
X102163059Y-63102942D01*
X102159952Y-63111781D01*
X102149194Y-63139072D01*
X102131864Y-63181906D01*
X102109126Y-63237425D01*
X102082147Y-63302772D01*
X102052090Y-63375089D01*
X102045493Y-63390879D01*
X102006907Y-63481484D01*
X101975768Y-63551217D01*
X101951917Y-63600405D01*
X101935198Y-63629374D01*
X101925454Y-63638452D01*
X101917766Y-63636405D01*
X101891415Y-63626760D01*
X101852982Y-63611190D01*
X101807822Y-63591815D01*
X101713293Y-63553814D01*
X101576480Y-63512780D01*
X101435289Y-63487612D01*
X101397314Y-63483611D01*
X101294059Y-63481447D01*
X101206952Y-63494622D01*
X101135129Y-63523756D01*
X101077731Y-63569466D01*
X101033896Y-63632372D01*
X101002762Y-63713092D01*
X100983470Y-63812245D01*
X100976050Y-63871224D01*
X101137936Y-63864445D01*
X101264495Y-63862813D01*
X101415951Y-63869194D01*
X101564396Y-63883777D01*
X101700578Y-63905882D01*
X101765245Y-63920821D01*
X101897490Y-63963741D01*
X102019762Y-64020340D01*
X102129685Y-64089017D01*
X102224883Y-64168170D01*
X102302980Y-64256196D01*
X102361599Y-64351493D01*
X102385595Y-64403864D01*
X102411232Y-64474590D01*
X102427478Y-64545812D01*
X102435822Y-64624712D01*
X102437690Y-64715282D01*
X102437755Y-64718467D01*
G36*
X102437755Y-64718467D02*
G01*
X102437261Y-64752363D01*
X102433632Y-64827202D01*
X102426022Y-64889401D01*
X102413688Y-64945984D01*
X102369313Y-65072076D01*
X102306400Y-65186679D01*
X102226238Y-65287568D01*
X102129740Y-65373924D01*
X102017822Y-65444932D01*
X101891397Y-65499776D01*
X101751378Y-65537638D01*
X101715149Y-65543351D01*
X101636155Y-65549313D01*
X101547841Y-65549646D01*
X101458075Y-65544659D01*
X101374722Y-65534666D01*
X101305651Y-65519978D01*
X101219187Y-65489749D01*
X101109286Y-65435057D01*
X101011956Y-65367543D01*
X100949867Y-65316556D01*
X100946605Y-65412622D01*
X100943343Y-65508689D01*
X100520450Y-65508689D01*
X100509543Y-65508686D01*
X100415056Y-65508380D01*
X100328331Y-65507616D01*
X100251837Y-65506451D01*
X100188043Y-65504942D01*
X100139418Y-65503147D01*
X100108433Y-65501121D01*
X100097556Y-65498922D01*
X100097578Y-65498463D01*
X100104614Y-65482910D01*
X100120434Y-65460071D01*
X100124734Y-65454638D01*
X100135777Y-65440606D01*
X100145311Y-65427186D01*
X100153461Y-65412722D01*
X100160352Y-65395556D01*
X100166111Y-65374034D01*
X100170862Y-65346498D01*
X100174731Y-65311292D01*
X100177844Y-65266760D01*
X100180325Y-65211246D01*
X100182300Y-65143093D01*
X100183894Y-65060645D01*
X100185234Y-64962246D01*
X100186444Y-64846239D01*
X100187649Y-64710968D01*
X100188595Y-64599586D01*
X100989378Y-64599586D01*
X100989378Y-64795462D01*
X101034048Y-64851973D01*
X101046785Y-64867212D01*
X101093604Y-64909844D01*
X101154255Y-64945672D01*
X101164897Y-64950850D01*
X101203676Y-64967745D01*
X101238692Y-64977909D01*
X101278722Y-64983325D01*
X101332541Y-64985978D01*
X101350648Y-64986383D01*
X101426011Y-64983540D01*
X101486743Y-64971620D01*
X101538452Y-64949037D01*
X101586746Y-64914211D01*
X101591803Y-64909798D01*
X101640272Y-64854160D01*
X101668459Y-64790333D01*
X101677752Y-64715282D01*
X101670520Y-64643693D01*
X101645796Y-64580645D01*
X101601249Y-64522758D01*
X101546319Y-64475808D01*
X101473894Y-64435961D01*
X101387340Y-64408263D01*
X101284670Y-64392096D01*
X101163894Y-64386842D01*
X101155007Y-64386857D01*
X101099660Y-64387655D01*
X101052736Y-64389488D01*
X101018953Y-64392111D01*
X101003028Y-64395274D01*
X100998943Y-64401741D01*
X100994572Y-64423875D01*
X100991604Y-64462988D01*
X100989914Y-64520939D01*
X100989378Y-64599586D01*
X100188595Y-64599586D01*
X100188975Y-64554778D01*
X100190228Y-64412012D01*
X100191651Y-64266942D01*
X100193176Y-64141027D01*
X100194933Y-64032436D01*
X100197051Y-63939334D01*
X100199660Y-63859891D01*
X100202890Y-63792273D01*
X100206869Y-63734649D01*
X100211728Y-63685185D01*
X100217597Y-63642050D01*
X100224604Y-63603410D01*
X100232880Y-63567434D01*
X100242554Y-63532289D01*
X100253756Y-63496142D01*
X100266616Y-63457161D01*
X100282090Y-63414091D01*
X100324994Y-63321871D01*
X100378735Y-63242099D01*
X100447576Y-63167965D01*
X100525185Y-63104405D01*
X100629761Y-63042725D01*
X100749244Y-62995202D01*
X100884508Y-62961567D01*
X101036426Y-62941552D01*
X101205872Y-62934889D01*
X101263890Y-62935287D01*
X101329398Y-62937335D01*
X101390693Y-62941704D01*
X101452097Y-62949035D01*
X101517932Y-62959969D01*
X101592520Y-62975147D01*
X101680184Y-62995209D01*
X101785245Y-63020797D01*
X101813806Y-63027820D01*
X101889054Y-63045776D01*
X101959388Y-63061820D01*
X102020567Y-63075028D01*
X102068354Y-63084474D01*
X102098511Y-63089231D01*
X102126783Y-63092910D01*
X102153060Y-63098187D01*
X102163059Y-63102942D01*
X102159952Y-63111781D01*
X102149194Y-63139072D01*
X102131864Y-63181906D01*
X102109126Y-63237425D01*
X102082147Y-63302772D01*
X102052090Y-63375089D01*
X102045493Y-63390879D01*
X102006907Y-63481484D01*
X101975768Y-63551217D01*
X101951917Y-63600405D01*
X101935198Y-63629374D01*
X101925454Y-63638452D01*
X101917766Y-63636405D01*
X101891415Y-63626760D01*
X101852982Y-63611190D01*
X101807822Y-63591815D01*
X101713293Y-63553814D01*
X101576480Y-63512780D01*
X101435289Y-63487612D01*
X101397314Y-63483611D01*
X101294059Y-63481447D01*
X101206952Y-63494622D01*
X101135129Y-63523756D01*
X101077731Y-63569466D01*
X101033896Y-63632372D01*
X101002762Y-63713092D01*
X100983470Y-63812245D01*
X100976050Y-63871224D01*
X101137936Y-63864445D01*
X101264495Y-63862813D01*
X101415951Y-63869194D01*
X101564396Y-63883777D01*
X101700578Y-63905882D01*
X101765245Y-63920821D01*
X101897490Y-63963741D01*
X102019762Y-64020340D01*
X102129685Y-64089017D01*
X102224883Y-64168170D01*
X102302980Y-64256196D01*
X102361599Y-64351493D01*
X102385595Y-64403864D01*
X102411232Y-64474590D01*
X102427478Y-64545812D01*
X102435822Y-64624712D01*
X102437690Y-64715282D01*
X102437755Y-64718467D01*
G37*
X109985614Y-62186792D02*
X109986059Y-62318011D01*
X109986362Y-62465216D01*
X109986548Y-62629349D01*
X109986642Y-62811352D01*
X109986671Y-63012165D01*
X109986661Y-63232732D01*
X109986636Y-63473992D01*
X109986622Y-63736889D01*
X109986622Y-63779040D01*
X109986646Y-64039668D01*
X109986685Y-64278796D01*
X109986708Y-64497360D01*
X109986687Y-64696295D01*
X109986593Y-64876535D01*
X109986395Y-65039015D01*
X109986063Y-65184670D01*
X109985569Y-65314434D01*
X109984883Y-65429243D01*
X109983976Y-65530030D01*
X109982817Y-65617730D01*
X109981378Y-65693279D01*
X109979629Y-65757611D01*
X109977540Y-65811661D01*
X109975083Y-65856363D01*
X109972227Y-65892652D01*
X109968943Y-65921463D01*
X109965202Y-65943731D01*
X109960974Y-65960390D01*
X109956229Y-65972375D01*
X109950939Y-65980621D01*
X109945073Y-65986062D01*
X109938602Y-65989634D01*
X109931497Y-65992270D01*
X109923728Y-65994906D01*
X109915266Y-65998477D01*
X109910908Y-66000145D01*
X109902395Y-66002111D01*
X109889694Y-66003911D01*
X109871885Y-66005555D01*
X109848049Y-66007047D01*
X109817266Y-66008397D01*
X109778617Y-66009611D01*
X109731182Y-66010697D01*
X109674043Y-66011661D01*
X109606279Y-66012511D01*
X109526971Y-66013253D01*
X109435199Y-66013897D01*
X109330044Y-66014447D01*
X109210587Y-66014913D01*
X109075908Y-66015300D01*
X108925088Y-66015616D01*
X108757206Y-66015869D01*
X108571345Y-66016066D01*
X108366583Y-66016213D01*
X108142002Y-66016318D01*
X107896682Y-66016389D01*
X107629704Y-66016432D01*
X107591321Y-66016437D01*
X107325922Y-66016480D01*
X107082050Y-66016525D01*
X106858783Y-66016548D01*
X106655196Y-66016524D01*
X106470367Y-66016430D01*
X106303373Y-66016243D01*
X106153290Y-66015939D01*
X106019196Y-66015494D01*
X105900166Y-66014885D01*
X105795279Y-66014089D01*
X105703610Y-66013080D01*
X105624237Y-66011837D01*
X105556237Y-66010335D01*
X105498686Y-66008551D01*
X105450662Y-66006461D01*
X105411240Y-66004042D01*
X105379499Y-66001270D01*
X105354514Y-65998121D01*
X105335364Y-65994572D01*
X105321123Y-65990598D01*
X105310871Y-65986178D01*
X105303682Y-65981286D01*
X105298635Y-65975900D01*
X105294805Y-65969996D01*
X105291271Y-65963549D01*
X105287108Y-65956537D01*
X105286025Y-65954687D01*
X105283813Y-65949180D01*
X105281786Y-65940868D01*
X105279938Y-65928809D01*
X105278261Y-65912063D01*
X105276745Y-65889687D01*
X105275383Y-65860740D01*
X105274167Y-65824280D01*
X105273089Y-65779367D01*
X105272140Y-65725057D01*
X105271312Y-65660410D01*
X105270597Y-65584484D01*
X105269987Y-65496338D01*
X105269942Y-65487493D01*
X105561378Y-65487493D01*
X105565260Y-65488765D01*
X105588520Y-65490791D01*
X105630874Y-65492626D01*
X105690132Y-65494227D01*
X105764107Y-65495549D01*
X105850610Y-65496548D01*
X105947452Y-65497180D01*
X106052445Y-65497400D01*
X106750651Y-65497400D01*
X107905090Y-65497400D01*
X107904456Y-65421200D01*
X107905574Y-65379160D01*
X107911304Y-65343334D01*
X107923890Y-65305772D01*
X107945568Y-65257577D01*
X107948789Y-65250897D01*
X107974188Y-65201359D01*
X108000996Y-65153369D01*
X108023917Y-65116466D01*
X108028485Y-65109834D01*
X108050516Y-65078593D01*
X108082693Y-65033654D01*
X108123457Y-64977147D01*
X108171245Y-64911204D01*
X108224498Y-64837957D01*
X108281655Y-64759536D01*
X108341155Y-64678072D01*
X108401437Y-64595698D01*
X108460940Y-64514544D01*
X108518105Y-64436742D01*
X108571370Y-64364423D01*
X108619174Y-64299718D01*
X108659957Y-64244759D01*
X108692158Y-64201676D01*
X108714216Y-64172602D01*
X108724571Y-64159667D01*
X108729044Y-64155351D01*
X108733236Y-64153312D01*
X108736643Y-64155926D01*
X108739325Y-64164986D01*
X108741341Y-64182285D01*
X108742748Y-64209614D01*
X108743605Y-64248765D01*
X108743970Y-64301533D01*
X108743903Y-64369707D01*
X108743460Y-64455082D01*
X108742702Y-64559449D01*
X108741685Y-64684600D01*
X108741308Y-64729300D01*
X108740169Y-64850395D01*
X108738972Y-64951688D01*
X108737636Y-65035262D01*
X108736077Y-65103204D01*
X108734215Y-65157599D01*
X108731966Y-65200532D01*
X108729248Y-65234089D01*
X108725979Y-65260355D01*
X108722078Y-65281416D01*
X108717461Y-65299357D01*
X108709192Y-65325770D01*
X108685583Y-65387772D01*
X108659685Y-65440573D01*
X108634535Y-65477645D01*
X108633339Y-65479075D01*
X108631168Y-65483424D01*
X108633328Y-65487026D01*
X108641644Y-65489951D01*
X108657940Y-65492269D01*
X108684041Y-65494051D01*
X108721771Y-65495367D01*
X108772956Y-65496286D01*
X108839420Y-65496878D01*
X108922987Y-65497215D01*
X109025483Y-65497365D01*
X109148732Y-65497400D01*
X109680296Y-65497400D01*
X109641523Y-65439783D01*
X109635432Y-65430893D01*
X109624976Y-65416069D01*
X109615579Y-65402422D01*
X109607183Y-65388765D01*
X109599733Y-65373911D01*
X109593173Y-65356670D01*
X109587446Y-65335855D01*
X109582495Y-65310280D01*
X109578266Y-65278755D01*
X109574701Y-65240093D01*
X109571744Y-65193107D01*
X109569340Y-65136608D01*
X109567431Y-65069409D01*
X109565962Y-64990322D01*
X109564876Y-64898160D01*
X109564118Y-64791734D01*
X109563630Y-64669857D01*
X109563358Y-64531341D01*
X109563243Y-64374999D01*
X109563231Y-64199642D01*
X109563265Y-64004082D01*
X109563289Y-63787133D01*
X109563280Y-63664513D01*
X109563243Y-63459447D01*
X109563227Y-63275116D01*
X109563288Y-63110334D01*
X109563484Y-62963916D01*
X109563870Y-62834674D01*
X109564505Y-62721422D01*
X109565444Y-62622975D01*
X109566745Y-62538144D01*
X109568464Y-62465744D01*
X109570659Y-62404589D01*
X109573385Y-62353492D01*
X109576701Y-62311267D01*
X109580662Y-62276727D01*
X109585325Y-62248686D01*
X109590747Y-62225958D01*
X109596986Y-62207356D01*
X109604097Y-62191693D01*
X109612138Y-62177784D01*
X109621166Y-62164441D01*
X109631236Y-62150479D01*
X109642407Y-62134711D01*
X109682197Y-62076867D01*
X108622314Y-62076867D01*
X108660311Y-62139966D01*
X108674993Y-62165005D01*
X108689531Y-62192586D01*
X108701627Y-62220700D01*
X108711532Y-62251551D01*
X108719494Y-62287344D01*
X108725761Y-62330283D01*
X108730582Y-62382574D01*
X108734206Y-62446419D01*
X108736881Y-62524025D01*
X108738857Y-62617594D01*
X108740382Y-62729333D01*
X108741704Y-62861445D01*
X108742613Y-62981434D01*
X108743020Y-63098063D01*
X108742767Y-63193531D01*
X108741857Y-63267556D01*
X108740293Y-63319855D01*
X108738079Y-63350149D01*
X108735220Y-63358156D01*
X108732161Y-63354858D01*
X108714006Y-63333408D01*
X108684275Y-63296889D01*
X108644639Y-63247442D01*
X108596771Y-63187207D01*
X108542343Y-63118327D01*
X108483027Y-63042943D01*
X108420495Y-62963196D01*
X108356421Y-62881228D01*
X108292475Y-62799180D01*
X108230331Y-62719194D01*
X108171661Y-62643411D01*
X108118137Y-62573973D01*
X108071430Y-62513021D01*
X108033214Y-62462696D01*
X108005161Y-62425140D01*
X107988943Y-62402495D01*
X107943635Y-62330212D01*
X107903661Y-62250463D01*
X107882130Y-62182188D01*
X107878827Y-62124844D01*
X107884116Y-62076867D01*
X106752356Y-62077117D01*
X106791867Y-62107722D01*
X106801248Y-62115089D01*
X106864183Y-62169438D01*
X106932997Y-62237259D01*
X107009596Y-62320516D01*
X107095888Y-62421178D01*
X107113052Y-62441847D01*
X107153833Y-62491409D01*
X107203588Y-62552326D01*
X107260955Y-62622898D01*
X107324569Y-62701424D01*
X107393069Y-62786204D01*
X107465090Y-62875537D01*
X107539270Y-62967722D01*
X107554517Y-62986702D01*
X107614246Y-63061060D01*
X107688653Y-63153848D01*
X107761131Y-63244388D01*
X107830314Y-63330978D01*
X107894841Y-63411918D01*
X107953347Y-63485506D01*
X108004470Y-63550044D01*
X108046847Y-63603829D01*
X108079115Y-63645162D01*
X108099910Y-63672342D01*
X108107869Y-63683668D01*
X108106111Y-63687771D01*
X108093230Y-63708334D01*
X108068885Y-63744561D01*
X108034247Y-63794824D01*
X107990486Y-63857492D01*
X107938775Y-63930936D01*
X107880284Y-64013527D01*
X107816184Y-64103636D01*
X107747646Y-64199631D01*
X107675843Y-64299885D01*
X107601944Y-64402768D01*
X107527121Y-64506650D01*
X107452545Y-64609901D01*
X107379387Y-64710892D01*
X107308819Y-64807994D01*
X107242011Y-64899577D01*
X107180135Y-64984011D01*
X107124361Y-65059667D01*
X107075862Y-65124916D01*
X107035807Y-65178128D01*
X107005369Y-65217673D01*
X106984944Y-65243026D01*
X106938899Y-65297295D01*
X106888612Y-65353775D01*
X106841815Y-65403669D01*
X106750651Y-65497400D01*
X106052445Y-65497400D01*
X106121356Y-65497349D01*
X106219607Y-65497091D01*
X106309030Y-65496637D01*
X106387333Y-65496010D01*
X106452223Y-65495235D01*
X106501411Y-65494335D01*
X106532604Y-65493334D01*
X106543511Y-65492257D01*
X106542322Y-65489037D01*
X106532176Y-65471452D01*
X106515040Y-65445158D01*
X106506540Y-65432691D01*
X106497329Y-65418622D01*
X106489233Y-65404351D01*
X106482185Y-65388479D01*
X106476117Y-65369609D01*
X106470961Y-65346341D01*
X106466651Y-65317278D01*
X106463119Y-65281021D01*
X106460297Y-65236170D01*
X106458118Y-65181328D01*
X106456514Y-65115097D01*
X106455419Y-65036077D01*
X106454765Y-64942871D01*
X106454484Y-64834079D01*
X106454509Y-64708303D01*
X106454772Y-64564145D01*
X106455206Y-64400207D01*
X106455745Y-64215089D01*
X106456279Y-64036232D01*
X106456805Y-63877374D01*
X106457350Y-63738316D01*
X106457945Y-63617665D01*
X106458619Y-63514028D01*
X106459403Y-63426011D01*
X106460326Y-63352223D01*
X106461419Y-63291269D01*
X106462712Y-63241757D01*
X106464235Y-63202293D01*
X106466019Y-63171484D01*
X106468092Y-63147938D01*
X106470486Y-63130260D01*
X106473230Y-63117059D01*
X106476356Y-63106940D01*
X106479892Y-63098511D01*
X106483791Y-63090375D01*
X106503438Y-63053544D01*
X106522225Y-63023391D01*
X106523272Y-63021908D01*
X106537602Y-62999659D01*
X106543511Y-62986702D01*
X106542504Y-62986249D01*
X106525305Y-62984803D01*
X106488656Y-62983480D01*
X106434962Y-62982316D01*
X106366630Y-62981347D01*
X106286064Y-62980611D01*
X106195670Y-62980142D01*
X106097853Y-62979978D01*
X105652195Y-62979978D01*
X105649120Y-64156845D01*
X105646045Y-65333711D01*
X105619407Y-65392622D01*
X105607485Y-65417183D01*
X105590246Y-65447434D01*
X105577074Y-65464560D01*
X105569076Y-65472591D01*
X105561378Y-65487493D01*
X105269942Y-65487493D01*
X105269474Y-65395029D01*
X105269050Y-65279617D01*
X105268706Y-65149160D01*
X105268434Y-65002716D01*
X105268227Y-64839344D01*
X105268076Y-64658101D01*
X105267972Y-64458048D01*
X105267908Y-64238241D01*
X105267876Y-63997739D01*
X105267867Y-63735602D01*
X105267867Y-61544031D01*
X105306249Y-61505649D01*
X105333355Y-61481911D01*
X105360253Y-61470111D01*
X105396560Y-61467267D01*
X105448489Y-61467267D01*
X105448489Y-61555206D01*
X105450427Y-61605102D01*
X105469199Y-61715523D01*
X105506217Y-61816987D01*
X105559369Y-61908152D01*
X105626546Y-61987673D01*
X105705638Y-62054205D01*
X105794534Y-62106406D01*
X105891125Y-62142930D01*
X105993300Y-62162434D01*
X106098950Y-62163573D01*
X106205964Y-62145005D01*
X106312232Y-62105384D01*
X106409219Y-62047516D01*
X106494293Y-61972684D01*
X106563015Y-61884615D01*
X106613918Y-61785616D01*
X106645535Y-61677993D01*
X106656400Y-61564054D01*
X106656400Y-61467267D01*
X108276753Y-61467267D01*
X108487897Y-61467280D01*
X108692020Y-61467330D01*
X108875686Y-61467430D01*
X109039991Y-61467592D01*
X109186029Y-61467829D01*
X109314894Y-61468153D01*
X109427683Y-61468575D01*
X109525488Y-61469109D01*
X109609404Y-61469767D01*
X109680527Y-61470561D01*
X109739950Y-61471504D01*
X109788768Y-61472608D01*
X109828077Y-61473884D01*
X109858969Y-61475347D01*
X109882541Y-61477007D01*
X109899886Y-61478878D01*
X109912099Y-61480972D01*
X109920275Y-61483300D01*
X109925508Y-61485876D01*
X109931504Y-61489445D01*
X109938279Y-61492978D01*
X109944478Y-61496488D01*
X109950126Y-61500918D01*
X109955247Y-61507208D01*
X109959869Y-61516301D01*
X109964015Y-61529139D01*
X109967713Y-61546662D01*
X109970987Y-61569813D01*
X109973863Y-61599534D01*
X109976367Y-61636765D01*
X109978524Y-61682449D01*
X109980360Y-61737527D01*
X109981900Y-61802941D01*
X109983170Y-61879633D01*
X109984195Y-61968544D01*
X109985001Y-62070617D01*
X109985034Y-62076867D01*
X109985614Y-62186792D01*
G36*
X109985614Y-62186792D02*
G01*
X109986059Y-62318011D01*
X109986362Y-62465216D01*
X109986548Y-62629349D01*
X109986642Y-62811352D01*
X109986671Y-63012165D01*
X109986661Y-63232732D01*
X109986636Y-63473992D01*
X109986622Y-63736889D01*
X109986622Y-63779040D01*
X109986646Y-64039668D01*
X109986685Y-64278796D01*
X109986708Y-64497360D01*
X109986687Y-64696295D01*
X109986593Y-64876535D01*
X109986395Y-65039015D01*
X109986063Y-65184670D01*
X109985569Y-65314434D01*
X109984883Y-65429243D01*
X109983976Y-65530030D01*
X109982817Y-65617730D01*
X109981378Y-65693279D01*
X109979629Y-65757611D01*
X109977540Y-65811661D01*
X109975083Y-65856363D01*
X109972227Y-65892652D01*
X109968943Y-65921463D01*
X109965202Y-65943731D01*
X109960974Y-65960390D01*
X109956229Y-65972375D01*
X109950939Y-65980621D01*
X109945073Y-65986062D01*
X109938602Y-65989634D01*
X109931497Y-65992270D01*
X109923728Y-65994906D01*
X109915266Y-65998477D01*
X109910908Y-66000145D01*
X109902395Y-66002111D01*
X109889694Y-66003911D01*
X109871885Y-66005555D01*
X109848049Y-66007047D01*
X109817266Y-66008397D01*
X109778617Y-66009611D01*
X109731182Y-66010697D01*
X109674043Y-66011661D01*
X109606279Y-66012511D01*
X109526971Y-66013253D01*
X109435199Y-66013897D01*
X109330044Y-66014447D01*
X109210587Y-66014913D01*
X109075908Y-66015300D01*
X108925088Y-66015616D01*
X108757206Y-66015869D01*
X108571345Y-66016066D01*
X108366583Y-66016213D01*
X108142002Y-66016318D01*
X107896682Y-66016389D01*
X107629704Y-66016432D01*
X107591321Y-66016437D01*
X107325922Y-66016480D01*
X107082050Y-66016525D01*
X106858783Y-66016548D01*
X106655196Y-66016524D01*
X106470367Y-66016430D01*
X106303373Y-66016243D01*
X106153290Y-66015939D01*
X106019196Y-66015494D01*
X105900166Y-66014885D01*
X105795279Y-66014089D01*
X105703610Y-66013080D01*
X105624237Y-66011837D01*
X105556237Y-66010335D01*
X105498686Y-66008551D01*
X105450662Y-66006461D01*
X105411240Y-66004042D01*
X105379499Y-66001270D01*
X105354514Y-65998121D01*
X105335364Y-65994572D01*
X105321123Y-65990598D01*
X105310871Y-65986178D01*
X105303682Y-65981286D01*
X105298635Y-65975900D01*
X105294805Y-65969996D01*
X105291271Y-65963549D01*
X105287108Y-65956537D01*
X105286025Y-65954687D01*
X105283813Y-65949180D01*
X105281786Y-65940868D01*
X105279938Y-65928809D01*
X105278261Y-65912063D01*
X105276745Y-65889687D01*
X105275383Y-65860740D01*
X105274167Y-65824280D01*
X105273089Y-65779367D01*
X105272140Y-65725057D01*
X105271312Y-65660410D01*
X105270597Y-65584484D01*
X105269987Y-65496338D01*
X105269942Y-65487493D01*
X105561378Y-65487493D01*
X105565260Y-65488765D01*
X105588520Y-65490791D01*
X105630874Y-65492626D01*
X105690132Y-65494227D01*
X105764107Y-65495549D01*
X105850610Y-65496548D01*
X105947452Y-65497180D01*
X106052445Y-65497400D01*
X106750651Y-65497400D01*
X107905090Y-65497400D01*
X107904456Y-65421200D01*
X107905574Y-65379160D01*
X107911304Y-65343334D01*
X107923890Y-65305772D01*
X107945568Y-65257577D01*
X107948789Y-65250897D01*
X107974188Y-65201359D01*
X108000996Y-65153369D01*
X108023917Y-65116466D01*
X108028485Y-65109834D01*
X108050516Y-65078593D01*
X108082693Y-65033654D01*
X108123457Y-64977147D01*
X108171245Y-64911204D01*
X108224498Y-64837957D01*
X108281655Y-64759536D01*
X108341155Y-64678072D01*
X108401437Y-64595698D01*
X108460940Y-64514544D01*
X108518105Y-64436742D01*
X108571370Y-64364423D01*
X108619174Y-64299718D01*
X108659957Y-64244759D01*
X108692158Y-64201676D01*
X108714216Y-64172602D01*
X108724571Y-64159667D01*
X108729044Y-64155351D01*
X108733236Y-64153312D01*
X108736643Y-64155926D01*
X108739325Y-64164986D01*
X108741341Y-64182285D01*
X108742748Y-64209614D01*
X108743605Y-64248765D01*
X108743970Y-64301533D01*
X108743903Y-64369707D01*
X108743460Y-64455082D01*
X108742702Y-64559449D01*
X108741685Y-64684600D01*
X108741308Y-64729300D01*
X108740169Y-64850395D01*
X108738972Y-64951688D01*
X108737636Y-65035262D01*
X108736077Y-65103204D01*
X108734215Y-65157599D01*
X108731966Y-65200532D01*
X108729248Y-65234089D01*
X108725979Y-65260355D01*
X108722078Y-65281416D01*
X108717461Y-65299357D01*
X108709192Y-65325770D01*
X108685583Y-65387772D01*
X108659685Y-65440573D01*
X108634535Y-65477645D01*
X108633339Y-65479075D01*
X108631168Y-65483424D01*
X108633328Y-65487026D01*
X108641644Y-65489951D01*
X108657940Y-65492269D01*
X108684041Y-65494051D01*
X108721771Y-65495367D01*
X108772956Y-65496286D01*
X108839420Y-65496878D01*
X108922987Y-65497215D01*
X109025483Y-65497365D01*
X109148732Y-65497400D01*
X109680296Y-65497400D01*
X109641523Y-65439783D01*
X109635432Y-65430893D01*
X109624976Y-65416069D01*
X109615579Y-65402422D01*
X109607183Y-65388765D01*
X109599733Y-65373911D01*
X109593173Y-65356670D01*
X109587446Y-65335855D01*
X109582495Y-65310280D01*
X109578266Y-65278755D01*
X109574701Y-65240093D01*
X109571744Y-65193107D01*
X109569340Y-65136608D01*
X109567431Y-65069409D01*
X109565962Y-64990322D01*
X109564876Y-64898160D01*
X109564118Y-64791734D01*
X109563630Y-64669857D01*
X109563358Y-64531341D01*
X109563243Y-64374999D01*
X109563231Y-64199642D01*
X109563265Y-64004082D01*
X109563289Y-63787133D01*
X109563280Y-63664513D01*
X109563243Y-63459447D01*
X109563227Y-63275116D01*
X109563288Y-63110334D01*
X109563484Y-62963916D01*
X109563870Y-62834674D01*
X109564505Y-62721422D01*
X109565444Y-62622975D01*
X109566745Y-62538144D01*
X109568464Y-62465744D01*
X109570659Y-62404589D01*
X109573385Y-62353492D01*
X109576701Y-62311267D01*
X109580662Y-62276727D01*
X109585325Y-62248686D01*
X109590747Y-62225958D01*
X109596986Y-62207356D01*
X109604097Y-62191693D01*
X109612138Y-62177784D01*
X109621166Y-62164441D01*
X109631236Y-62150479D01*
X109642407Y-62134711D01*
X109682197Y-62076867D01*
X108622314Y-62076867D01*
X108660311Y-62139966D01*
X108674993Y-62165005D01*
X108689531Y-62192586D01*
X108701627Y-62220700D01*
X108711532Y-62251551D01*
X108719494Y-62287344D01*
X108725761Y-62330283D01*
X108730582Y-62382574D01*
X108734206Y-62446419D01*
X108736881Y-62524025D01*
X108738857Y-62617594D01*
X108740382Y-62729333D01*
X108741704Y-62861445D01*
X108742613Y-62981434D01*
X108743020Y-63098063D01*
X108742767Y-63193531D01*
X108741857Y-63267556D01*
X108740293Y-63319855D01*
X108738079Y-63350149D01*
X108735220Y-63358156D01*
X108732161Y-63354858D01*
X108714006Y-63333408D01*
X108684275Y-63296889D01*
X108644639Y-63247442D01*
X108596771Y-63187207D01*
X108542343Y-63118327D01*
X108483027Y-63042943D01*
X108420495Y-62963196D01*
X108356421Y-62881228D01*
X108292475Y-62799180D01*
X108230331Y-62719194D01*
X108171661Y-62643411D01*
X108118137Y-62573973D01*
X108071430Y-62513021D01*
X108033214Y-62462696D01*
X108005161Y-62425140D01*
X107988943Y-62402495D01*
X107943635Y-62330212D01*
X107903661Y-62250463D01*
X107882130Y-62182188D01*
X107878827Y-62124844D01*
X107884116Y-62076867D01*
X106752356Y-62077117D01*
X106791867Y-62107722D01*
X106801248Y-62115089D01*
X106864183Y-62169438D01*
X106932997Y-62237259D01*
X107009596Y-62320516D01*
X107095888Y-62421178D01*
X107113052Y-62441847D01*
X107153833Y-62491409D01*
X107203588Y-62552326D01*
X107260955Y-62622898D01*
X107324569Y-62701424D01*
X107393069Y-62786204D01*
X107465090Y-62875537D01*
X107539270Y-62967722D01*
X107554517Y-62986702D01*
X107614246Y-63061060D01*
X107688653Y-63153848D01*
X107761131Y-63244388D01*
X107830314Y-63330978D01*
X107894841Y-63411918D01*
X107953347Y-63485506D01*
X108004470Y-63550044D01*
X108046847Y-63603829D01*
X108079115Y-63645162D01*
X108099910Y-63672342D01*
X108107869Y-63683668D01*
X108106111Y-63687771D01*
X108093230Y-63708334D01*
X108068885Y-63744561D01*
X108034247Y-63794824D01*
X107990486Y-63857492D01*
X107938775Y-63930936D01*
X107880284Y-64013527D01*
X107816184Y-64103636D01*
X107747646Y-64199631D01*
X107675843Y-64299885D01*
X107601944Y-64402768D01*
X107527121Y-64506650D01*
X107452545Y-64609901D01*
X107379387Y-64710892D01*
X107308819Y-64807994D01*
X107242011Y-64899577D01*
X107180135Y-64984011D01*
X107124361Y-65059667D01*
X107075862Y-65124916D01*
X107035807Y-65178128D01*
X107005369Y-65217673D01*
X106984944Y-65243026D01*
X106938899Y-65297295D01*
X106888612Y-65353775D01*
X106841815Y-65403669D01*
X106750651Y-65497400D01*
X106052445Y-65497400D01*
X106121356Y-65497349D01*
X106219607Y-65497091D01*
X106309030Y-65496637D01*
X106387333Y-65496010D01*
X106452223Y-65495235D01*
X106501411Y-65494335D01*
X106532604Y-65493334D01*
X106543511Y-65492257D01*
X106542322Y-65489037D01*
X106532176Y-65471452D01*
X106515040Y-65445158D01*
X106506540Y-65432691D01*
X106497329Y-65418622D01*
X106489233Y-65404351D01*
X106482185Y-65388479D01*
X106476117Y-65369609D01*
X106470961Y-65346341D01*
X106466651Y-65317278D01*
X106463119Y-65281021D01*
X106460297Y-65236170D01*
X106458118Y-65181328D01*
X106456514Y-65115097D01*
X106455419Y-65036077D01*
X106454765Y-64942871D01*
X106454484Y-64834079D01*
X106454509Y-64708303D01*
X106454772Y-64564145D01*
X106455206Y-64400207D01*
X106455745Y-64215089D01*
X106456279Y-64036232D01*
X106456805Y-63877374D01*
X106457350Y-63738316D01*
X106457945Y-63617665D01*
X106458619Y-63514028D01*
X106459403Y-63426011D01*
X106460326Y-63352223D01*
X106461419Y-63291269D01*
X106462712Y-63241757D01*
X106464235Y-63202293D01*
X106466019Y-63171484D01*
X106468092Y-63147938D01*
X106470486Y-63130260D01*
X106473230Y-63117059D01*
X106476356Y-63106940D01*
X106479892Y-63098511D01*
X106483791Y-63090375D01*
X106503438Y-63053544D01*
X106522225Y-63023391D01*
X106523272Y-63021908D01*
X106537602Y-62999659D01*
X106543511Y-62986702D01*
X106542504Y-62986249D01*
X106525305Y-62984803D01*
X106488656Y-62983480D01*
X106434962Y-62982316D01*
X106366630Y-62981347D01*
X106286064Y-62980611D01*
X106195670Y-62980142D01*
X106097853Y-62979978D01*
X105652195Y-62979978D01*
X105649120Y-64156845D01*
X105646045Y-65333711D01*
X105619407Y-65392622D01*
X105607485Y-65417183D01*
X105590246Y-65447434D01*
X105577074Y-65464560D01*
X105569076Y-65472591D01*
X105561378Y-65487493D01*
X105269942Y-65487493D01*
X105269474Y-65395029D01*
X105269050Y-65279617D01*
X105268706Y-65149160D01*
X105268434Y-65002716D01*
X105268227Y-64839344D01*
X105268076Y-64658101D01*
X105267972Y-64458048D01*
X105267908Y-64238241D01*
X105267876Y-63997739D01*
X105267867Y-63735602D01*
X105267867Y-61544031D01*
X105306249Y-61505649D01*
X105333355Y-61481911D01*
X105360253Y-61470111D01*
X105396560Y-61467267D01*
X105448489Y-61467267D01*
X105448489Y-61555206D01*
X105450427Y-61605102D01*
X105469199Y-61715523D01*
X105506217Y-61816987D01*
X105559369Y-61908152D01*
X105626546Y-61987673D01*
X105705638Y-62054205D01*
X105794534Y-62106406D01*
X105891125Y-62142930D01*
X105993300Y-62162434D01*
X106098950Y-62163573D01*
X106205964Y-62145005D01*
X106312232Y-62105384D01*
X106409219Y-62047516D01*
X106494293Y-61972684D01*
X106563015Y-61884615D01*
X106613918Y-61785616D01*
X106645535Y-61677993D01*
X106656400Y-61564054D01*
X106656400Y-61467267D01*
X108276753Y-61467267D01*
X108487897Y-61467280D01*
X108692020Y-61467330D01*
X108875686Y-61467430D01*
X109039991Y-61467592D01*
X109186029Y-61467829D01*
X109314894Y-61468153D01*
X109427683Y-61468575D01*
X109525488Y-61469109D01*
X109609404Y-61469767D01*
X109680527Y-61470561D01*
X109739950Y-61471504D01*
X109788768Y-61472608D01*
X109828077Y-61473884D01*
X109858969Y-61475347D01*
X109882541Y-61477007D01*
X109899886Y-61478878D01*
X109912099Y-61480972D01*
X109920275Y-61483300D01*
X109925508Y-61485876D01*
X109931504Y-61489445D01*
X109938279Y-61492978D01*
X109944478Y-61496488D01*
X109950126Y-61500918D01*
X109955247Y-61507208D01*
X109959869Y-61516301D01*
X109964015Y-61529139D01*
X109967713Y-61546662D01*
X109970987Y-61569813D01*
X109973863Y-61599534D01*
X109976367Y-61636765D01*
X109978524Y-61682449D01*
X109980360Y-61737527D01*
X109981900Y-61802941D01*
X109983170Y-61879633D01*
X109984195Y-61968544D01*
X109985001Y-62070617D01*
X109985034Y-62076867D01*
X109985614Y-62186792D01*
G37*
%TD*%
M02*
