%TF.GenerationSoftware,KiCad,Pcbnew,9.0.4*%
%TF.CreationDate,2025-09-30T03:14:49+08:00*%
%TF.ProjectId,MCU Datalogger,4d435520-4461-4746-916c-6f676765722e,1*%
%TF.SameCoordinates,Original*%
%TF.FileFunction,Copper,L1,Top*%
%TF.FilePolarity,Positive*%
%FSLAX46Y46*%
G04 Gerber Fmt 4.6, Leading zero omitted, Abs format (unit mm)*
G04 Created by KiCad (PCBNEW 9.0.4) date 2025-09-30 03:14:49*
%MOMM*%
%LPD*%
G01*
G04 APERTURE LIST*
G04 Aperture macros list*
%AMRoundRect*
0 Rectangle with rounded corners*
0 $1 Rounding radius*
0 $2 $3 $4 $5 $6 $7 $8 $9 X,Y pos of 4 corners*
0 Add a 4 corners polygon primitive as box body*
4,1,4,$2,$3,$4,$5,$6,$7,$8,$9,$2,$3,0*
0 Add four circle primitives for the rounded corners*
1,1,$1+$1,$2,$3*
1,1,$1+$1,$4,$5*
1,1,$1+$1,$6,$7*
1,1,$1+$1,$8,$9*
0 Add four rect primitives between the rounded corners*
20,1,$1+$1,$2,$3,$4,$5,0*
20,1,$1+$1,$4,$5,$6,$7,0*
20,1,$1+$1,$6,$7,$8,$9,0*
20,1,$1+$1,$8,$9,$2,$3,0*%
G04 Aperture macros list end*
%TA.AperFunction,ComponentPad*%
%ADD10R,1.700000X1.700000*%
%TD*%
%TA.AperFunction,ComponentPad*%
%ADD11C,1.700000*%
%TD*%
%TA.AperFunction,SMDPad,CuDef*%
%ADD12RoundRect,0.250000X0.262500X0.450000X-0.262500X0.450000X-0.262500X-0.450000X0.262500X-0.450000X0*%
%TD*%
%TA.AperFunction,SMDPad,CuDef*%
%ADD13RoundRect,0.250001X1.499999X0.949999X-1.499999X0.949999X-1.499999X-0.949999X1.499999X-0.949999X0*%
%TD*%
%TA.AperFunction,SMDPad,CuDef*%
%ADD14RoundRect,0.068750X-0.206250X-0.666250X0.206250X-0.666250X0.206250X0.666250X-0.206250X0.666250X0*%
%TD*%
%TA.AperFunction,SMDPad,CuDef*%
%ADD15RoundRect,0.068750X-0.666250X-0.206250X0.666250X-0.206250X0.666250X0.206250X-0.666250X0.206250X0*%
%TD*%
%TA.AperFunction,SMDPad,CuDef*%
%ADD16RoundRect,0.250000X-0.262500X-0.450000X0.262500X-0.450000X0.262500X0.450000X-0.262500X0.450000X0*%
%TD*%
%TA.AperFunction,SMDPad,CuDef*%
%ADD17RoundRect,0.073750X-0.911250X-0.221250X0.911250X-0.221250X0.911250X0.221250X-0.911250X0.221250X0*%
%TD*%
%TA.AperFunction,SMDPad,CuDef*%
%ADD18RoundRect,0.162500X-0.650000X-0.162500X0.650000X-0.162500X0.650000X0.162500X-0.650000X0.162500X0*%
%TD*%
%TA.AperFunction,SMDPad,CuDef*%
%ADD19RoundRect,0.243750X-0.243750X-0.456250X0.243750X-0.456250X0.243750X0.456250X-0.243750X0.456250X0*%
%TD*%
%TA.AperFunction,SMDPad,CuDef*%
%ADD20RoundRect,0.250000X-0.250000X-0.475000X0.250000X-0.475000X0.250000X0.475000X-0.250000X0.475000X0*%
%TD*%
%TA.AperFunction,SMDPad,CuDef*%
%ADD21RoundRect,0.250001X0.949999X-1.499999X0.949999X1.499999X-0.949999X1.499999X-0.949999X-1.499999X0*%
%TD*%
%TA.AperFunction,ViaPad*%
%ADD22C,0.600000*%
%TD*%
%TA.AperFunction,Conductor*%
%ADD23C,0.200000*%
%TD*%
G04 APERTURE END LIST*
D10*
%TO.P,J3,1,Pin_1*%
%TO.N,GND*%
X120015000Y-84455000D03*
D11*
%TO.P,J3,2,Pin_2*%
%TO.N,/Vcc*%
X122555000Y-84455000D03*
%TO.P,J3,3,Pin_3*%
%TO.N,/RX*%
X125095000Y-84455000D03*
%TO.P,J3,4,Pin_4*%
%TO.N,/TX*%
X127635000Y-84455000D03*
%TD*%
%TO.P,J1,9,Pin_9*%
%TO.N,/Vcc*%
X114935000Y-84455000D03*
%TO.P,J1,8,Pin_8*%
%TO.N,GND*%
X112395000Y-84455000D03*
%TO.P,J1,7,Pin_7*%
%TO.N,/D8*%
X109855000Y-84455000D03*
%TO.P,J1,6,Pin_6*%
%TO.N,/D7*%
X107315000Y-84455000D03*
%TO.P,J1,5,Pin_5*%
%TO.N,/D6*%
X104775000Y-84455000D03*
%TO.P,J1,4,Pin_4*%
%TO.N,/D5*%
X102235000Y-84455000D03*
%TO.P,J1,3,Pin_3*%
%TO.N,/D4*%
X99695000Y-84455000D03*
%TO.P,J1,2,Pin_2*%
%TO.N,/D3*%
X97155000Y-84455000D03*
D10*
%TO.P,J1,1,Pin_1*%
%TO.N,/D2*%
X94615000Y-84455000D03*
%TD*%
D12*
%TO.P,R5,2*%
%TO.N,Net-(D1-K)*%
X124817500Y-63500000D03*
%TO.P,R5,1*%
%TO.N,GND*%
X126642500Y-63500000D03*
%TD*%
D13*
%TO.P,Y2,2,2*%
%TO.N,Net-(U4-PB6)*%
X109795000Y-76835000D03*
%TO.P,Y2,1,1*%
%TO.N,Net-(U4-PB7)*%
X114995000Y-76835000D03*
%TD*%
D14*
%TO.P,U4,32,PD2*%
%TO.N,/D2*%
X109595000Y-63775000D03*
%TO.P,U4,31,PD1*%
%TO.N,/TX*%
X110395000Y-63775000D03*
%TO.P,U4,30,PD0*%
%TO.N,/RX*%
X111195000Y-63775000D03*
%TO.P,U4,29,PC6/~{RESET}*%
%TO.N,/RESET*%
X111995000Y-63775000D03*
%TO.P,U4,28,PC5*%
%TO.N,/SCK*%
X112795000Y-63775000D03*
%TO.P,U4,27,PC4*%
%TO.N,/SDA*%
X113595000Y-63775000D03*
%TO.P,U4,26,PC3*%
%TO.N,unconnected-(U4-PC3-Pad26)*%
X114395000Y-63775000D03*
%TO.P,U4,25,PC2*%
%TO.N,unconnected-(U4-PC2-Pad25)*%
X115195000Y-63775000D03*
D15*
%TO.P,U4,24,PC1*%
%TO.N,unconnected-(U4-PC1-Pad24)*%
X116565000Y-65145000D03*
%TO.P,U4,23,PC0*%
%TO.N,unconnected-(U4-PC0-Pad23)*%
X116565000Y-65945000D03*
%TO.P,U4,22,ADC7*%
%TO.N,unconnected-(U4-ADC7-Pad22)*%
X116565000Y-66745000D03*
%TO.P,U4,21,GND*%
%TO.N,GND*%
X116565000Y-67545000D03*
%TO.P,U4,20,AREF*%
%TO.N,Net-(U4-AREF)*%
X116565000Y-68345000D03*
%TO.P,U4,19,ADC6*%
%TO.N,unconnected-(U4-ADC6-Pad19)*%
X116565000Y-69145000D03*
%TO.P,U4,18,AVCC*%
%TO.N,Net-(BT1-+)*%
X116565000Y-69945000D03*
%TO.P,U4,17,PB5*%
%TO.N,/SCK*%
X116565000Y-70745000D03*
D14*
%TO.P,U4,16,PB4*%
%TO.N,/MISO*%
X115195000Y-72115000D03*
%TO.P,U4,15,PB3*%
%TO.N,/MOSI*%
X114395000Y-72115000D03*
%TO.P,U4,14,PB2*%
%TO.N,unconnected-(U4-PB2-Pad14)*%
X113595000Y-72115000D03*
%TO.P,U4,13,PB1*%
%TO.N,unconnected-(U4-PB1-Pad13)*%
X112795000Y-72115000D03*
%TO.P,U4,12,PB0*%
%TO.N,/D8*%
X111995000Y-72115000D03*
%TO.P,U4,11,PD7*%
%TO.N,/D7*%
X111195000Y-72115000D03*
%TO.P,U4,10,PD6*%
%TO.N,/D6*%
X110395000Y-72115000D03*
%TO.P,U4,9,PD5*%
%TO.N,/D5*%
X109595000Y-72115000D03*
D15*
%TO.P,U4,8,PB7*%
%TO.N,Net-(U4-PB7)*%
X108225000Y-70745000D03*
%TO.P,U4,7,PB6*%
%TO.N,Net-(U4-PB6)*%
X108225000Y-69945000D03*
%TO.P,U4,6,VCC*%
%TO.N,unconnected-(U4-VCC-Pad6)*%
X108225000Y-69145000D03*
%TO.P,U4,5,GND*%
%TO.N,GND*%
X108225000Y-68345000D03*
%TO.P,U4,4,VCC*%
%TO.N,Net-(BT1-+)*%
X108225000Y-67545000D03*
%TO.P,U4,3,GND*%
%TO.N,GND*%
X108225000Y-66745000D03*
%TO.P,U4,2,PD4*%
%TO.N,/D4*%
X108225000Y-65945000D03*
%TO.P,U4,1,PD3*%
%TO.N,/D3*%
X108225000Y-65145000D03*
%TD*%
D16*
%TO.P,R1,2*%
%TO.N,Net-(U2-~{INTA})*%
X98067500Y-80010000D03*
%TO.P,R1,1*%
%TO.N,/Vcc*%
X96242500Y-80010000D03*
%TD*%
D17*
%TO.P,U2,8,VCC*%
%TO.N,/Vcc*%
X101535000Y-73660000D03*
%TO.P,U2,7,SQW/~INT*%
%TO.N,Net-(U2-SQW{slash}~INT)*%
X101535000Y-74930000D03*
%TO.P,U2,6,SCL*%
%TO.N,/SCK*%
X101535000Y-76200000D03*
%TO.P,U2,5,SDA*%
%TO.N,/SDA*%
X101535000Y-77470000D03*
%TO.P,U2,4,GND*%
%TO.N,GND*%
X96585000Y-77470000D03*
%TO.P,U2,3,~{INTA}*%
%TO.N,Net-(U2-~{INTA})*%
X96585000Y-76200000D03*
%TO.P,U2,2,X2*%
%TO.N,Net-(U2-X2)*%
X96585000Y-74930000D03*
%TO.P,U2,1,X1*%
%TO.N,Net-(U2-X1)*%
X96585000Y-73660000D03*
%TD*%
D18*
%TO.P,U1,1,A0*%
%TO.N,/Vcc*%
X95472500Y-66675000D03*
%TO.P,U1,2,A1*%
X95472500Y-67945000D03*
%TO.P,U1,3,A2*%
X95472500Y-69215000D03*
%TO.P,U1,4,GND*%
%TO.N,GND*%
X95472500Y-70485000D03*
%TO.P,U1,5,SDA*%
%TO.N,/SDA*%
X102647500Y-70485000D03*
%TO.P,U1,6,SCL*%
%TO.N,/SCK*%
X102647500Y-69215000D03*
%TO.P,U1,7,WP*%
%TO.N,GND*%
X102647500Y-67945000D03*
%TO.P,U1,8,VCC*%
%TO.N,/Vcc*%
X102647500Y-66675000D03*
%TD*%
%TO.P,U3,8,VCC*%
%TO.N,/Vcc*%
X102647500Y-59690000D03*
%TO.P,U3,7,WP*%
%TO.N,GND*%
X102647500Y-60960000D03*
%TO.P,U3,6,SCL*%
%TO.N,/SCK*%
X102647500Y-62230000D03*
%TO.P,U3,5,SDA*%
%TO.N,/SDA*%
X102647500Y-63500000D03*
%TO.P,U3,4,GND*%
%TO.N,GND*%
X95472500Y-63500000D03*
%TO.P,U3,3,A2*%
%TO.N,/Vcc*%
X95472500Y-62230000D03*
%TO.P,U3,2,A1*%
%TO.N,GND*%
X95472500Y-60960000D03*
%TO.P,U3,1,A0*%
%TO.N,/Vcc*%
X95472500Y-59690000D03*
%TD*%
D19*
%TO.P,D1,1,K*%
%TO.N,Net-(D1-K)*%
X124792500Y-59690000D03*
%TO.P,D1,2,A*%
%TO.N,/SCK*%
X126667500Y-59690000D03*
%TD*%
D20*
%TO.P,C3,1*%
%TO.N,Net-(U4-PB7)*%
X110175000Y-59690000D03*
%TO.P,C3,2*%
%TO.N,GND*%
X112075000Y-59690000D03*
%TD*%
%TO.P,C1,1*%
%TO.N,/Vcc*%
X105410000Y-59690000D03*
%TO.P,C1,2*%
%TO.N,GND*%
X107310000Y-59690000D03*
%TD*%
D16*
%TO.P,R6,1*%
%TO.N,/Vcc*%
X124817500Y-67310000D03*
%TO.P,R6,2*%
%TO.N,/RESET*%
X126642500Y-67310000D03*
%TD*%
D10*
%TO.P,BT1,1,+*%
%TO.N,Net-(BT1-+)*%
X91440000Y-65400000D03*
D11*
%TO.P,BT1,2,-*%
%TO.N,GND*%
X91440000Y-67940000D03*
%TD*%
D16*
%TO.P,R4,1*%
%TO.N,/Vcc*%
X120372500Y-67310000D03*
%TO.P,R4,2*%
%TO.N,/SDA*%
X122197500Y-67310000D03*
%TD*%
D19*
%TO.P,D2,1,K*%
%TO.N,Net-(D2-K)*%
X120045000Y-59690000D03*
%TO.P,D2,2,A*%
%TO.N,/Vcc*%
X121920000Y-59690000D03*
%TD*%
D16*
%TO.P,R3,1*%
%TO.N,/Vcc*%
X120372500Y-71120000D03*
%TO.P,R3,2*%
%TO.N,/SCK*%
X122197500Y-71120000D03*
%TD*%
D10*
%TO.P,J4,1,Pin_1*%
%TO.N,/MISO*%
X130170000Y-64135000D03*
D11*
%TO.P,J4,2,Pin_2*%
%TO.N,/Vcc*%
X132710000Y-64135000D03*
%TO.P,J4,3,Pin_3*%
%TO.N,/SCK*%
X130170000Y-66675000D03*
%TO.P,J4,4,Pin_4*%
%TO.N,/MOSI*%
X132710000Y-66675000D03*
%TO.P,J4,5,Pin_5*%
%TO.N,/RESET*%
X130170000Y-69215000D03*
%TO.P,J4,6,Pin_6*%
%TO.N,GND*%
X132710000Y-69215000D03*
%TD*%
D20*
%TO.P,C2,1*%
%TO.N,Net-(U4-PB6)*%
X120335000Y-74930000D03*
%TO.P,C2,2*%
%TO.N,GND*%
X122235000Y-74930000D03*
%TD*%
%TO.P,C4,1*%
%TO.N,GND*%
X120335000Y-78740000D03*
%TO.P,C4,2*%
%TO.N,Net-(U4-AREF)*%
X122235000Y-78740000D03*
%TD*%
D16*
%TO.P,R7,1*%
%TO.N,Net-(D2-K)*%
X120372500Y-63500000D03*
%TO.P,R7,2*%
%TO.N,GND*%
X122197500Y-63500000D03*
%TD*%
D20*
%TO.P,C5,1*%
%TO.N,/Vcc*%
X115255000Y-59690000D03*
%TO.P,C5,2*%
%TO.N,GND*%
X117155000Y-59690000D03*
%TD*%
D21*
%TO.P,Y1,1,1*%
%TO.N,Net-(U2-X2)*%
X91440000Y-79375000D03*
%TO.P,Y1,2,2*%
%TO.N,Net-(U2-X1)*%
X91440000Y-74175000D03*
%TD*%
D10*
%TO.P,J2,1,Pin_1*%
%TO.N,GND*%
X132715000Y-73025000D03*
D11*
%TO.P,J2,2,Pin_2*%
%TO.N,/Vcc*%
X132715000Y-75565000D03*
%TO.P,J2,3,Pin_3*%
%TO.N,/SDA*%
X132715000Y-78105000D03*
%TO.P,J2,4,Pin_4*%
%TO.N,/SCK*%
X132715000Y-80645000D03*
%TD*%
D16*
%TO.P,R2,1*%
%TO.N,/Vcc*%
X100052500Y-80010000D03*
%TO.P,R2,2*%
%TO.N,Net-(U2-SQW{slash}~INT)*%
X101877500Y-80010000D03*
%TD*%
D22*
%TO.N,*%
X124968000Y-79883000D03*
X125349000Y-74549000D03*
%TO.N,GND*%
X100965000Y-67779997D03*
%TO.N,Net-(D2-K)*%
X120650000Y-62230000D03*
X119380000Y-60960000D03*
%TO.N,GND*%
X126150764Y-61380764D03*
X122555000Y-62230000D03*
X118110000Y-59690000D03*
%TO.N,/Vcc*%
X98425000Y-62865000D03*
X97611473Y-61560000D03*
%TO.N,GND*%
X116255000Y-59227074D03*
X113665000Y-59220000D03*
%TO.N,/Vcc*%
X97155000Y-78740000D03*
X99060000Y-78740000D03*
%TO.N,GND*%
X120756765Y-79903235D03*
%TO.N,/Vcc*%
X125095000Y-65886000D03*
X131520002Y-64686000D03*
%TO.N,GND*%
X109255000Y-66900227D03*
X109255000Y-68500226D03*
X111175000Y-59227074D03*
X108585000Y-59220000D03*
%TO.N,Net-(U2-X2)*%
X95250000Y-75565000D03*
X93345000Y-78105000D03*
%TO.N,/SCK*%
X100965000Y-62865000D03*
X100965000Y-68580000D03*
%TO.N,Net-(BT1-+)*%
X106786765Y-67416765D03*
%TO.N,Net-(U4-PB6)*%
X120015000Y-76200000D03*
X112395000Y-78105000D03*
X106680000Y-70485000D03*
%TO.N,Net-(U4-PB7)*%
X108585000Y-61595000D03*
X114300000Y-74930000D03*
X109855000Y-70485000D03*
%TO.N,Net-(U4-AREF)*%
X114300000Y-68580000D03*
X119352863Y-75568676D03*
%TO.N,/SCK*%
X122555000Y-73330265D03*
X127635000Y-61595000D03*
X115708660Y-70688604D03*
X121920000Y-69215000D03*
X112560003Y-65405000D03*
X106680000Y-62865000D03*
X128270000Y-66040000D03*
%TO.N,/SDA*%
X113665000Y-65405000D03*
X121920000Y-66040000D03*
X105938235Y-63393235D03*
%TO.N,/RESET*%
X125730000Y-69215000D03*
X111760000Y-65405000D03*
%TO.N,/MOSI*%
X127000000Y-71120000D03*
X114935000Y-70485000D03*
%TO.N,/MISO*%
X117100735Y-72129265D03*
X127635000Y-64686000D03*
%TD*%
D23*
%TO.N,/Vcc*%
X96242500Y-80160500D02*
X96242500Y-80010000D01*
X92710000Y-83693000D02*
X96242500Y-80160500D01*
X113784000Y-85606000D02*
X93464000Y-85606000D01*
X93464000Y-85606000D02*
X92710000Y-84852000D01*
X92710000Y-84852000D02*
X92710000Y-83693000D01*
X114935000Y-84455000D02*
X113784000Y-85606000D01*
%TO.N,/D3*%
X97155000Y-81915000D02*
X102870000Y-81915000D01*
%TO.N,GND*%
X102647500Y-67945000D02*
X101130003Y-67945000D01*
X101130003Y-67945000D02*
X100965000Y-67779997D01*
%TO.N,Net-(D2-K)*%
X120372500Y-62507500D02*
X120650000Y-62230000D01*
X120372500Y-63500000D02*
X120372500Y-62507500D01*
X120045000Y-60295000D02*
X119380000Y-60960000D01*
X120045000Y-59690000D02*
X120045000Y-60295000D01*
%TO.N,/Vcc*%
X118979000Y-61829000D02*
X119380000Y-62230000D01*
X117394000Y-61829000D02*
X118979000Y-61829000D01*
X115255000Y-59690000D02*
X117394000Y-61829000D01*
X119380000Y-62230000D02*
X121920000Y-59690000D01*
X119380000Y-66317500D02*
X119380000Y-62230000D01*
X120372500Y-67310000D02*
X119380000Y-66317500D01*
%TO.N,GND*%
X126642500Y-61872500D02*
X126150764Y-61380764D01*
X126642500Y-63500000D02*
X126642500Y-61872500D01*
%TO.N,Net-(D1-K)*%
X124817500Y-59715000D02*
X124792500Y-59690000D01*
X124817500Y-63500000D02*
X124817500Y-59715000D01*
%TO.N,Net-(D2-K)*%
X120045000Y-63172500D02*
X120372500Y-63500000D01*
%TO.N,GND*%
X122197500Y-62587500D02*
X122555000Y-62230000D01*
X122197500Y-63500000D02*
X122197500Y-62587500D01*
X117155000Y-59690000D02*
X118110000Y-59690000D01*
X117155000Y-59690000D02*
X117155000Y-59847500D01*
%TO.N,/Vcc*%
X115255000Y-59690000D02*
X114935000Y-59690000D01*
X124817500Y-69998660D02*
X124817500Y-67310000D01*
X120372500Y-71120000D02*
X121373500Y-72121000D01*
X121373500Y-72121000D02*
X122695160Y-72121000D01*
X122695160Y-72121000D02*
X124817500Y-69998660D01*
X131564000Y-76716000D02*
X132715000Y-75565000D01*
X131564000Y-78581760D02*
X131564000Y-76716000D01*
X132238240Y-79256000D02*
X131564000Y-78581760D01*
X133191760Y-79256000D02*
X132238240Y-79256000D01*
X133866000Y-82034000D02*
X133866000Y-79930240D01*
X130294000Y-85606000D02*
X133866000Y-82034000D01*
X133866000Y-79930240D02*
X133191760Y-79256000D01*
X123706000Y-85606000D02*
X130294000Y-85606000D01*
X122555000Y-84455000D02*
X123706000Y-85606000D01*
X96941473Y-62230000D02*
X97611473Y-61560000D01*
X95472500Y-62230000D02*
X96941473Y-62230000D01*
X95472500Y-67945000D02*
X95472500Y-69215000D01*
X95472500Y-66675000D02*
X95472500Y-67945000D01*
%TO.N,GND*%
X115185227Y-66900227D02*
X109255000Y-66900227D01*
X115830000Y-67545000D02*
X115185227Y-66900227D01*
X116565000Y-67545000D02*
X115830000Y-67545000D01*
X116717926Y-59690000D02*
X116255000Y-59227074D01*
X117155000Y-59690000D02*
X116717926Y-59690000D01*
X113195000Y-59690000D02*
X113665000Y-59220000D01*
X112075000Y-59690000D02*
X113195000Y-59690000D01*
%TO.N,/Vcc*%
X128905000Y-75565000D02*
X132715000Y-75565000D01*
X124817500Y-71477500D02*
X128905000Y-75565000D01*
X124817500Y-67310000D02*
X124817500Y-71477500D01*
X96242500Y-79652500D02*
X97155000Y-78740000D01*
X96242500Y-80010000D02*
X96242500Y-79652500D01*
X100052500Y-79732500D02*
X99060000Y-78740000D01*
X100052500Y-80010000D02*
X100052500Y-79732500D01*
%TO.N,GND*%
X111612074Y-59227074D02*
X112075000Y-59690000D01*
X111175000Y-59227074D02*
X111612074Y-59227074D01*
%TO.N,/Vcc*%
X120372500Y-67310000D02*
X120372500Y-71120000D01*
%TO.N,GND*%
X113546000Y-83304000D02*
X118864000Y-83304000D01*
X118864000Y-83304000D02*
X120015000Y-84455000D01*
X112395000Y-84455000D02*
X113546000Y-83304000D01*
X120335000Y-79481470D02*
X120756765Y-79903235D01*
X120335000Y-78740000D02*
X120335000Y-79481470D01*
%TO.N,/Vcc*%
X124817500Y-66163500D02*
X125095000Y-65886000D01*
X124817500Y-67310000D02*
X124817500Y-66163500D01*
X132071002Y-64135000D02*
X131520002Y-64686000D01*
X132710000Y-64135000D02*
X132071002Y-64135000D01*
%TO.N,GND*%
X122720160Y-79766000D02*
X121361000Y-79766000D01*
X123036000Y-79450160D02*
X122720160Y-79766000D01*
X121361000Y-79766000D02*
X120335000Y-78740000D01*
X123036000Y-75731000D02*
X123036000Y-79450160D01*
X122235000Y-74930000D02*
X123036000Y-75731000D01*
X109099773Y-66745000D02*
X109255000Y-66900227D01*
X108225000Y-66745000D02*
X109099773Y-66745000D01*
X109099774Y-68345000D02*
X109255000Y-68500226D01*
X108225000Y-68345000D02*
X109099774Y-68345000D01*
X112075000Y-59690000D02*
X111637926Y-59690000D01*
X108115000Y-59690000D02*
X108585000Y-59220000D01*
X107310000Y-59690000D02*
X108115000Y-59690000D01*
X95674990Y-70485000D02*
X95472500Y-70485000D01*
X97871000Y-72883500D02*
X95472500Y-70485000D01*
X97871000Y-74038520D02*
X97871000Y-72883500D01*
X94649000Y-76519000D02*
X94649000Y-74896000D01*
X95289000Y-74256000D02*
X97653520Y-74256000D01*
X95600000Y-77470000D02*
X94649000Y-76519000D01*
X94649000Y-74896000D02*
X95289000Y-74256000D01*
X97653520Y-74256000D02*
X97871000Y-74038520D01*
X96585000Y-77470000D02*
X95600000Y-77470000D01*
%TO.N,Net-(U2-X2)*%
X95885000Y-74930000D02*
X95250000Y-75565000D01*
X96585000Y-74930000D02*
X95885000Y-74930000D01*
X92710000Y-78105000D02*
X93345000Y-78105000D01*
X91440000Y-79375000D02*
X92710000Y-78105000D01*
%TO.N,/Vcc*%
X92710000Y-62230000D02*
X95472500Y-62230000D01*
X92075000Y-61595000D02*
X92710000Y-62230000D01*
X92075000Y-60325000D02*
X92075000Y-61595000D01*
X92710000Y-59690000D02*
X92075000Y-60325000D01*
X95472500Y-59690000D02*
X92710000Y-59690000D01*
X102647500Y-59690000D02*
X105410000Y-59690000D01*
%TO.N,GND*%
X95472500Y-60960000D02*
X99060000Y-60960000D01*
X99060000Y-60960000D02*
X102647500Y-60960000D01*
X96520000Y-63500000D02*
X99060000Y-60960000D01*
X95472500Y-63500000D02*
X96520000Y-63500000D01*
X90170000Y-64135000D02*
X90805000Y-63500000D01*
X90170000Y-66670000D02*
X90170000Y-64135000D01*
X90805000Y-63500000D02*
X95472500Y-63500000D01*
X91440000Y-67940000D02*
X90170000Y-66670000D01*
X93985000Y-70485000D02*
X95472500Y-70485000D01*
X91440000Y-67940000D02*
X93985000Y-70485000D01*
%TO.N,/SCK*%
X101600000Y-62230000D02*
X100965000Y-62865000D01*
X102647500Y-62230000D02*
X101600000Y-62230000D01*
X101600000Y-69215000D02*
X100965000Y-68580000D01*
X102647500Y-69215000D02*
X101600000Y-69215000D01*
%TO.N,/Vcc*%
X98012500Y-66675000D02*
X102647500Y-66675000D01*
X95472500Y-69215000D02*
X98012500Y-66675000D01*
%TO.N,Net-(BT1-+)*%
X114935000Y-69215000D02*
X115665000Y-69945000D01*
X108225000Y-67545000D02*
X106915000Y-67545000D01*
X108225000Y-67545000D02*
X112415057Y-67545000D01*
X112415057Y-67545000D02*
X114085057Y-69215000D01*
X115665000Y-69945000D02*
X116565000Y-69945000D01*
X106915000Y-67545000D02*
X106786765Y-67416765D01*
X114085057Y-69215000D02*
X114935000Y-69215000D01*
%TO.N,/Vcc*%
X115255000Y-59690000D02*
X115255000Y-59881160D01*
%TO.N,Net-(U4-PB6)*%
X120335000Y-74930000D02*
X120335000Y-75880000D01*
X111065000Y-78105000D02*
X112395000Y-78105000D01*
X109795000Y-76835000D02*
X111065000Y-78105000D01*
X107220000Y-69945000D02*
X106680000Y-70485000D01*
X120335000Y-75880000D02*
X120015000Y-76200000D01*
X108225000Y-69945000D02*
X107220000Y-69945000D01*
%TO.N,Net-(U4-PB7)*%
X114995000Y-75625000D02*
X114300000Y-74930000D01*
X108225000Y-70745000D02*
X109595000Y-70745000D01*
X109595000Y-70745000D02*
X109855000Y-70485000D01*
X110175000Y-59690000D02*
X108585000Y-61280000D01*
X108585000Y-61280000D02*
X108585000Y-61595000D01*
X108225000Y-70745000D02*
X108225000Y-70760000D01*
X114995000Y-76835000D02*
X114995000Y-75625000D01*
X110175000Y-59690000D02*
X110490000Y-59690000D01*
%TO.N,Net-(U4-AREF)*%
X120965000Y-77470000D02*
X119146000Y-77470000D01*
X116565000Y-68345000D02*
X114535000Y-68345000D01*
X122235000Y-78740000D02*
X120965000Y-77470000D01*
X119146000Y-75775539D02*
X119352863Y-75568676D01*
X119146000Y-77470000D02*
X119146000Y-75775539D01*
X114535000Y-68345000D02*
X114300000Y-68580000D01*
%TO.N,/SCK*%
X128905000Y-66675000D02*
X128270000Y-66040000D01*
X116565000Y-70745000D02*
X116789000Y-70521000D01*
X125400265Y-73330265D02*
X122555000Y-73330265D01*
X122197500Y-71120000D02*
X122555000Y-71120000D01*
X103104000Y-75616000D02*
X103104000Y-72413990D01*
X112795000Y-65170003D02*
X112560003Y-65405000D01*
X102445010Y-69215000D02*
X102647500Y-69215000D01*
X101535000Y-76200000D02*
X102520000Y-76200000D01*
X132715000Y-80645000D02*
X125400265Y-73330265D01*
X103104000Y-72413990D02*
X101534000Y-70843990D01*
X126667500Y-59690000D02*
X126667500Y-60627500D01*
X112560003Y-65405000D02*
X112560003Y-65454940D01*
X101534000Y-70126010D02*
X102445010Y-69215000D01*
X106045000Y-62230000D02*
X106680000Y-62865000D01*
X102647500Y-62230000D02*
X106045000Y-62230000D01*
X122197500Y-69492500D02*
X121920000Y-69215000D01*
X116565000Y-70745000D02*
X115765056Y-70745000D01*
X101534000Y-70843990D02*
X101534000Y-70126010D01*
X130170000Y-66675000D02*
X128905000Y-66675000D01*
X116789000Y-70521000D02*
X116840000Y-70521000D01*
X102520000Y-76200000D02*
X103104000Y-75616000D01*
X122197500Y-71120000D02*
X122197500Y-69492500D01*
X112795000Y-63775000D02*
X112795000Y-65170003D01*
X126667500Y-60627500D02*
X127635000Y-61595000D01*
X115765056Y-70745000D02*
X115708660Y-70688604D01*
%TO.N,/D3*%
X97155000Y-84455000D02*
X97155000Y-81915000D01*
X104775000Y-80010000D02*
X104775000Y-79942100D01*
X102870000Y-81915000D02*
X104775000Y-80010000D01*
X104775000Y-79942100D02*
X105176000Y-79541100D01*
X106940000Y-65145000D02*
X108225000Y-65145000D01*
X105176000Y-79541100D02*
X105176000Y-66909000D01*
X105176000Y-66909000D02*
X106940000Y-65145000D01*
%TO.N,/D5*%
X102235000Y-84455000D02*
X102235000Y-83185000D01*
X109320000Y-72390000D02*
X109595000Y-72115000D01*
X102235000Y-83185000D02*
X102734200Y-83185000D01*
X102734200Y-83185000D02*
X106212000Y-79707200D01*
X106212000Y-73660000D02*
X107482000Y-72390000D01*
X109819000Y-72339000D02*
X109595000Y-72115000D01*
X107482000Y-72390000D02*
X109320000Y-72390000D01*
X106212000Y-79707200D02*
X106212000Y-73660000D01*
%TO.N,/D2*%
X106680000Y-63500000D02*
X109320000Y-63500000D01*
X96520000Y-81280000D02*
X102870000Y-81280000D01*
X109320000Y-63500000D02*
X109595000Y-63775000D01*
X102870000Y-81280000D02*
X104775000Y-79375000D01*
X104775000Y-79375000D02*
X104775000Y-65405000D01*
X94615000Y-84455000D02*
X94615000Y-83185000D01*
X104775000Y-65405000D02*
X106680000Y-63500000D01*
X94615000Y-83185000D02*
X96520000Y-81280000D01*
%TO.N,/D6*%
X104775000Y-84455000D02*
X103720650Y-83400650D01*
X110395000Y-72850000D02*
X110395000Y-72115000D01*
X107414100Y-73025000D02*
X109107688Y-73025000D01*
X110619000Y-72339000D02*
X110395000Y-72115000D01*
X103720650Y-82765650D02*
X106729550Y-79756750D01*
X110094000Y-73151000D02*
X110395000Y-72850000D01*
X109107688Y-73025000D02*
X109233688Y-73151000D01*
X106729550Y-79756750D02*
X106729550Y-73709550D01*
X106729550Y-73709550D02*
X107414100Y-73025000D01*
X109233688Y-73151000D02*
X110094000Y-73151000D01*
X103720650Y-83400650D02*
X103720650Y-82765650D01*
%TO.N,/D8*%
X111185000Y-73660000D02*
X111995000Y-72850000D01*
X109855000Y-84455000D02*
X109220000Y-84455000D01*
X106192750Y-81427750D02*
X107531550Y-80088950D01*
X110952101Y-73660000D02*
X111185000Y-73660000D01*
X111995000Y-72115000D02*
X111771000Y-72339000D01*
X107531550Y-80088950D02*
X107531550Y-74076600D01*
X111995000Y-72850000D02*
X111995000Y-72115000D01*
X110535500Y-74076600D02*
X110952101Y-73660000D01*
X109220000Y-84455000D02*
X106192750Y-81427750D01*
X107531550Y-74076600D02*
X110535500Y-74076600D01*
%TO.N,/D4*%
X99695000Y-84455000D02*
X99695000Y-82550000D01*
X105811000Y-79541100D02*
X105811000Y-67544000D01*
X107410000Y-65945000D02*
X108225000Y-65945000D01*
X99695000Y-82550000D02*
X102802100Y-82550000D01*
X102802100Y-82550000D02*
X105811000Y-79541100D01*
X105811000Y-67544000D02*
X107410000Y-65945000D01*
%TO.N,/D7*%
X107130550Y-79922850D02*
X107130550Y-73875650D01*
X105410000Y-82550000D02*
X104503400Y-82550000D01*
X111195000Y-72850000D02*
X111195000Y-72115000D01*
X107130550Y-73875650D02*
X107330600Y-73675600D01*
X110369400Y-73675600D02*
X111195000Y-72850000D01*
X111370000Y-72290000D02*
X111195000Y-72115000D01*
X107315000Y-84455000D02*
X105410000Y-82550000D01*
X104503400Y-82550000D02*
X107130550Y-79922850D01*
X107330600Y-73675600D02*
X110369400Y-73675600D01*
%TO.N,/SDA*%
X113595000Y-65335000D02*
X113665000Y-65405000D01*
X102647500Y-70485000D02*
X103505000Y-71342500D01*
X122197500Y-66317500D02*
X121920000Y-66040000D01*
X105410000Y-62865000D02*
X105938235Y-63393235D01*
X122197500Y-67310000D02*
X122197500Y-66317500D01*
X133866000Y-76954000D02*
X132715000Y-78105000D01*
X102647500Y-63500000D02*
X103282500Y-62865000D01*
X102647500Y-70485000D02*
X103459999Y-70485000D01*
X102870000Y-77470000D02*
X101535000Y-77470000D01*
X103505000Y-62865000D02*
X105410000Y-62865000D01*
X113595000Y-63775000D02*
X113595000Y-65335000D01*
X104140000Y-69804999D02*
X104140000Y-64992500D01*
X103505000Y-76835000D02*
X102870000Y-77470000D01*
X103459999Y-70485000D02*
X104140000Y-69804999D01*
X124221500Y-65286000D02*
X132948760Y-65286000D01*
X104140000Y-64992500D02*
X102647500Y-63500000D01*
X132948760Y-65286000D02*
X133866000Y-66203240D01*
X122197500Y-67310000D02*
X124221500Y-65286000D01*
X103282500Y-62865000D02*
X103505000Y-62865000D01*
X133866000Y-66203240D02*
X133866000Y-76954000D01*
X103505000Y-71342500D02*
X103505000Y-76835000D01*
%TO.N,/RX*%
X118110000Y-78672100D02*
X118110000Y-63500000D01*
X117349000Y-62739000D02*
X111496000Y-62739000D01*
X120717900Y-81280000D02*
X123825000Y-81280000D01*
X111496000Y-62739000D02*
X111195000Y-63040000D01*
X111195000Y-63040000D02*
X111195000Y-63775000D01*
X125095000Y-82550000D02*
X125095000Y-84455000D01*
X123825000Y-81280000D02*
X125095000Y-82550000D01*
X118110000Y-78672100D02*
X120717900Y-81280000D01*
X118110000Y-63500000D02*
X117349000Y-62739000D01*
%TO.N,/TX*%
X123825000Y-80645000D02*
X127635000Y-84455000D01*
X110395000Y-63775000D02*
X110395000Y-63040000D01*
X118110000Y-62230000D02*
X118745000Y-62865000D01*
X111205000Y-62230000D02*
X118110000Y-62230000D01*
X120650000Y-80645000D02*
X123825000Y-80645000D01*
X118745000Y-78740000D02*
X120650000Y-80645000D01*
X110395000Y-63040000D02*
X111205000Y-62230000D01*
X118745000Y-62865000D02*
X118745000Y-78740000D01*
%TO.N,/RESET*%
X126642500Y-68302500D02*
X125730000Y-69215000D01*
X111995000Y-65170000D02*
X111760000Y-65405000D01*
X126642500Y-67310000D02*
X128265000Y-67310000D01*
X128265000Y-67310000D02*
X130170000Y-69215000D01*
X126642500Y-67310000D02*
X126642500Y-68302500D01*
X111995000Y-63775000D02*
X111995000Y-65170000D01*
%TO.N,/MOSI*%
X131321000Y-68064000D02*
X131321000Y-70609000D01*
X132710000Y-66675000D02*
X132715000Y-66675000D01*
X114395000Y-72115000D02*
X114395000Y-71025000D01*
X131321000Y-70609000D02*
X130810000Y-71120000D01*
X114395000Y-71025000D02*
X114935000Y-70485000D01*
X130810000Y-71120000D02*
X127000000Y-71120000D01*
X132710000Y-66675000D02*
X131321000Y-68064000D01*
%TO.N,/MISO*%
X128186000Y-64135000D02*
X127635000Y-64686000D01*
X117086470Y-72115000D02*
X117100735Y-72129265D01*
X115195000Y-72115000D02*
X117086470Y-72115000D01*
X130170000Y-64135000D02*
X128186000Y-64135000D01*
%TO.N,Net-(U2-~{INTA})*%
X96585000Y-76200000D02*
X97155000Y-76200000D01*
X97155000Y-76200000D02*
X98067500Y-77112500D01*
X98067500Y-77112500D02*
X98067500Y-80010000D01*
%TO.N,Net-(U2-SQW{slash}~INT)*%
X101535000Y-74930000D02*
X100550000Y-74930000D01*
X99695000Y-77827500D02*
X101877500Y-80010000D01*
X100550000Y-74930000D02*
X99695000Y-75785000D01*
X99695000Y-75785000D02*
X99695000Y-77827500D01*
%TO.N,Net-(U2-X1)*%
X91955000Y-73660000D02*
X91440000Y-74175000D01*
X96585000Y-73660000D02*
X91955000Y-73660000D01*
%TD*%
%TA.AperFunction,Conductor*%
%TO.N,/Vcc*%
G36*
X89605703Y-66907248D02*
G01*
X89631890Y-66938966D01*
X89635084Y-66944499D01*
X89689477Y-67038712D01*
X89689481Y-67038717D01*
X89808349Y-67157585D01*
X89808355Y-67157590D01*
X90106241Y-67455476D01*
X90139726Y-67516799D01*
X90136492Y-67581473D01*
X90122753Y-67623757D01*
X90093254Y-67810009D01*
X90089500Y-67833713D01*
X90089500Y-68046287D01*
X90099534Y-68109644D01*
X90122753Y-68256239D01*
X90122753Y-68256241D01*
X90122754Y-68256243D01*
X90183612Y-68443545D01*
X90188444Y-68458414D01*
X90284951Y-68647820D01*
X90409890Y-68819786D01*
X90560213Y-68970109D01*
X90732179Y-69095048D01*
X90732181Y-69095049D01*
X90732184Y-69095051D01*
X90921588Y-69191557D01*
X91123757Y-69257246D01*
X91333713Y-69290500D01*
X91333714Y-69290500D01*
X91546286Y-69290500D01*
X91546287Y-69290500D01*
X91756243Y-69257246D01*
X91798523Y-69243507D01*
X91868362Y-69241511D01*
X91924521Y-69273756D01*
X93616284Y-70965520D01*
X93616286Y-70965521D01*
X93616290Y-70965524D01*
X93747285Y-71041153D01*
X93753216Y-71044577D01*
X93905943Y-71085501D01*
X93905945Y-71085501D01*
X94071654Y-71085501D01*
X94071670Y-71085500D01*
X94271514Y-71085500D01*
X94338553Y-71105185D01*
X94359196Y-71121820D01*
X94410607Y-71173232D01*
X94410608Y-71173233D01*
X94410610Y-71173234D01*
X94410612Y-71173236D01*
X94548398Y-71256531D01*
X94702113Y-71304430D01*
X94768909Y-71310500D01*
X95397402Y-71310499D01*
X95464441Y-71330183D01*
X95485083Y-71346818D01*
X96791084Y-72652819D01*
X96824569Y-72714142D01*
X96819585Y-72783834D01*
X96777713Y-72839767D01*
X96712249Y-72864184D01*
X96703403Y-72864500D01*
X95636111Y-72864500D01*
X95523848Y-72879279D01*
X95523837Y-72879282D01*
X95384147Y-72937143D01*
X95258083Y-73033876D01*
X95192914Y-73059070D01*
X95182597Y-73059500D01*
X93264500Y-73059500D01*
X93197461Y-73039815D01*
X93151706Y-72987011D01*
X93140500Y-72935500D01*
X93140500Y-72624997D01*
X93140499Y-72624984D01*
X93140078Y-72620867D01*
X93129999Y-72522203D01*
X93074814Y-72355666D01*
X93053276Y-72320748D01*
X92982713Y-72206348D01*
X92982710Y-72206344D01*
X92858655Y-72082289D01*
X92858651Y-72082286D01*
X92709337Y-71990187D01*
X92709335Y-71990186D01*
X92626065Y-71962593D01*
X92542797Y-71935001D01*
X92542795Y-71935000D01*
X92440015Y-71924500D01*
X92440008Y-71924500D01*
X90439992Y-71924500D01*
X90439984Y-71924500D01*
X90337204Y-71935000D01*
X90337203Y-71935001D01*
X90170664Y-71990186D01*
X90170662Y-71990187D01*
X90021348Y-72082286D01*
X90021344Y-72082289D01*
X89897289Y-72206344D01*
X89897286Y-72206348D01*
X89805187Y-72355662D01*
X89805186Y-72355664D01*
X89750001Y-72522203D01*
X89750000Y-72522204D01*
X89739500Y-72624984D01*
X89739500Y-75725015D01*
X89750000Y-75827795D01*
X89750001Y-75827797D01*
X89765331Y-75874059D01*
X89805186Y-75994335D01*
X89805187Y-75994337D01*
X89897286Y-76143651D01*
X89897289Y-76143655D01*
X90021344Y-76267710D01*
X90021348Y-76267713D01*
X90170662Y-76359812D01*
X90170664Y-76359813D01*
X90170666Y-76359814D01*
X90337203Y-76414999D01*
X90439992Y-76425500D01*
X90439997Y-76425500D01*
X92440003Y-76425500D01*
X92440008Y-76425500D01*
X92542797Y-76414999D01*
X92709334Y-76359814D01*
X92858655Y-76267711D01*
X92982711Y-76143655D01*
X93074814Y-75994334D01*
X93129999Y-75827797D01*
X93140500Y-75725008D01*
X93140500Y-74384500D01*
X93160185Y-74317461D01*
X93212989Y-74271706D01*
X93264500Y-74260500D01*
X94135902Y-74260500D01*
X94202941Y-74280185D01*
X94248696Y-74332989D01*
X94258640Y-74402147D01*
X94229615Y-74465703D01*
X94223583Y-74472181D01*
X94168482Y-74527281D01*
X94168478Y-74527287D01*
X94118952Y-74613069D01*
X94089424Y-74664212D01*
X94089423Y-74664213D01*
X94069218Y-74739619D01*
X94048499Y-74816943D01*
X94048499Y-74816945D01*
X94048499Y-74985046D01*
X94048500Y-74985059D01*
X94048500Y-76432330D01*
X94048499Y-76432348D01*
X94048499Y-76598054D01*
X94048498Y-76598054D01*
X94056428Y-76627649D01*
X94089423Y-76750785D01*
X94104250Y-76776465D01*
X94132256Y-76824973D01*
X94168479Y-76887715D01*
X94287349Y-77006585D01*
X94287355Y-77006590D01*
X95091434Y-77810669D01*
X95118314Y-77850897D01*
X95172143Y-77980851D01*
X95172144Y-77980853D01*
X95264190Y-78100810D01*
X95384147Y-78192856D01*
X95384148Y-78192856D01*
X95384149Y-78192857D01*
X95392261Y-78196217D01*
X95523841Y-78250719D01*
X95636113Y-78265500D01*
X97343000Y-78265499D01*
X97410039Y-78285184D01*
X97455794Y-78337987D01*
X97467000Y-78389499D01*
X97467000Y-78817491D01*
X97447315Y-78884530D01*
X97408098Y-78923029D01*
X97336346Y-78967286D01*
X97242327Y-79061305D01*
X97181003Y-79094789D01*
X97111312Y-79089805D01*
X97066965Y-79061304D01*
X96973345Y-78967684D01*
X96824124Y-78875643D01*
X96824119Y-78875641D01*
X96657697Y-78820494D01*
X96657690Y-78820493D01*
X96554986Y-78810000D01*
X96492500Y-78810000D01*
X96492500Y-79886000D01*
X96472815Y-79953039D01*
X96420011Y-79998794D01*
X96368500Y-80010000D01*
X96242500Y-80010000D01*
X96242500Y-80136000D01*
X96222815Y-80203039D01*
X96170011Y-80248794D01*
X96118500Y-80260000D01*
X95230001Y-80260000D01*
X95230001Y-80509986D01*
X95240494Y-80612697D01*
X95295641Y-80779119D01*
X95295643Y-80779124D01*
X95387684Y-80928345D01*
X95511654Y-81052315D01*
X95617411Y-81117547D01*
X95664136Y-81169495D01*
X95675357Y-81238458D01*
X95647514Y-81302540D01*
X95639995Y-81310767D01*
X94246286Y-82704478D01*
X94134481Y-82816282D01*
X94134479Y-82816284D01*
X94114958Y-82850097D01*
X94099030Y-82877686D01*
X94083068Y-82905332D01*
X94055422Y-82953215D01*
X94039510Y-83012597D01*
X94003144Y-83072256D01*
X93940296Y-83102784D01*
X93919737Y-83104500D01*
X93717130Y-83104500D01*
X93717123Y-83104501D01*
X93657516Y-83110908D01*
X93522671Y-83161202D01*
X93522664Y-83161206D01*
X93407455Y-83247452D01*
X93407452Y-83247455D01*
X93321206Y-83362664D01*
X93321202Y-83362671D01*
X93270908Y-83497517D01*
X93266510Y-83538431D01*
X93264501Y-83557123D01*
X93264500Y-83557135D01*
X93264500Y-85352870D01*
X93264501Y-85352876D01*
X93270908Y-85412483D01*
X93321202Y-85547328D01*
X93321206Y-85547335D01*
X93406438Y-85661189D01*
X93430856Y-85726653D01*
X93416005Y-85794926D01*
X93366600Y-85844332D01*
X93307172Y-85859500D01*
X92260862Y-85859500D01*
X92193823Y-85839815D01*
X92173181Y-85823181D01*
X89436819Y-83086819D01*
X89403334Y-83025496D01*
X89400500Y-82999138D01*
X89400500Y-77824984D01*
X89739500Y-77824984D01*
X89739500Y-80925015D01*
X89750000Y-81027795D01*
X89750001Y-81027797D01*
X89777593Y-81111065D01*
X89805186Y-81194335D01*
X89805187Y-81194337D01*
X89897286Y-81343651D01*
X89897289Y-81343655D01*
X90021344Y-81467710D01*
X90021348Y-81467713D01*
X90170662Y-81559812D01*
X90170664Y-81559813D01*
X90170666Y-81559814D01*
X90337203Y-81614999D01*
X90439992Y-81625500D01*
X90439997Y-81625500D01*
X92440003Y-81625500D01*
X92440008Y-81625500D01*
X92542797Y-81614999D01*
X92709334Y-81559814D01*
X92858655Y-81467711D01*
X92982711Y-81343655D01*
X93074814Y-81194334D01*
X93129999Y-81027797D01*
X93140500Y-80925008D01*
X93140500Y-79510013D01*
X95230000Y-79510013D01*
X95230000Y-79760000D01*
X95992500Y-79760000D01*
X95992500Y-78810000D01*
X95992499Y-78809999D01*
X95930028Y-78810000D01*
X95930011Y-78810001D01*
X95827302Y-78820494D01*
X95660880Y-78875641D01*
X95660875Y-78875643D01*
X95511654Y-78967684D01*
X95387684Y-79091654D01*
X95295643Y-79240875D01*
X95295641Y-79240880D01*
X95240494Y-79407302D01*
X95240493Y-79407309D01*
X95230000Y-79510013D01*
X93140500Y-79510013D01*
X93140500Y-79029500D01*
X93160185Y-78962461D01*
X93212989Y-78916706D01*
X93264500Y-78905500D01*
X93423844Y-78905500D01*
X93423845Y-78905499D01*
X93578497Y-78874737D01*
X93709455Y-78820493D01*
X93724172Y-78814397D01*
X93724172Y-78814396D01*
X93724179Y-78814394D01*
X93855289Y-78726789D01*
X93966789Y-78615289D01*
X94054394Y-78484179D01*
X94114737Y-78338497D01*
X94145500Y-78183842D01*
X94145500Y-78026158D01*
X94145500Y-78026155D01*
X94145499Y-78026153D01*
X94114737Y-77871503D01*
X94099623Y-77835015D01*
X94054397Y-77725827D01*
X94054390Y-77725814D01*
X93966789Y-77594711D01*
X93966786Y-77594707D01*
X93855292Y-77483213D01*
X93855288Y-77483210D01*
X93724185Y-77395609D01*
X93724172Y-77395602D01*
X93578501Y-77335264D01*
X93578489Y-77335261D01*
X93423845Y-77304500D01*
X93423842Y-77304500D01*
X93266158Y-77304500D01*
X93266155Y-77304500D01*
X93111511Y-77335260D01*
X93111502Y-77335263D01*
X93046714Y-77362098D01*
X92977245Y-77369565D01*
X92914766Y-77338289D01*
X92911583Y-77335217D01*
X92858655Y-77282289D01*
X92858651Y-77282286D01*
X92709337Y-77190187D01*
X92709335Y-77190186D01*
X92626065Y-77162593D01*
X92542797Y-77135001D01*
X92542795Y-77135000D01*
X92440015Y-77124500D01*
X92440008Y-77124500D01*
X90439992Y-77124500D01*
X90439984Y-77124500D01*
X90337204Y-77135000D01*
X90337203Y-77135001D01*
X90170664Y-77190186D01*
X90170662Y-77190187D01*
X90021348Y-77282286D01*
X90021344Y-77282289D01*
X89897289Y-77406344D01*
X89897286Y-77406348D01*
X89805187Y-77555662D01*
X89805186Y-77555664D01*
X89750001Y-77722203D01*
X89750000Y-77722204D01*
X89739500Y-77824984D01*
X89400500Y-77824984D01*
X89400500Y-67000961D01*
X89420185Y-66933922D01*
X89472989Y-66888167D01*
X89542147Y-66878223D01*
X89605703Y-66907248D01*
G37*
%TD.AperFunction*%
%TA.AperFunction,Conductor*%
G36*
X96133418Y-85350417D02*
G01*
X96161673Y-85371569D01*
X96275213Y-85485109D01*
X96447179Y-85610048D01*
X96447181Y-85610049D01*
X96447184Y-85610051D01*
X96476553Y-85625015D01*
X96527349Y-85672989D01*
X96544144Y-85740810D01*
X96521607Y-85806945D01*
X96466892Y-85850397D01*
X96420258Y-85859500D01*
X95922828Y-85859500D01*
X95855789Y-85839815D01*
X95810034Y-85787011D01*
X95800090Y-85717853D01*
X95823562Y-85661189D01*
X95908793Y-85547335D01*
X95908792Y-85547335D01*
X95908796Y-85547331D01*
X95957810Y-85415916D01*
X95999681Y-85359984D01*
X96065145Y-85335566D01*
X96133418Y-85350417D01*
G37*
%TD.AperFunction*%
%TA.AperFunction,Conductor*%
G36*
X98496444Y-85108999D02*
G01*
X98535484Y-85154054D01*
X98539591Y-85162115D01*
X98539951Y-85162820D01*
X98664890Y-85334786D01*
X98815213Y-85485109D01*
X98987179Y-85610048D01*
X98987181Y-85610049D01*
X98987184Y-85610051D01*
X99016553Y-85625015D01*
X99067349Y-85672989D01*
X99084144Y-85740810D01*
X99061607Y-85806945D01*
X99006892Y-85850397D01*
X98960258Y-85859500D01*
X97889742Y-85859500D01*
X97822703Y-85839815D01*
X97776948Y-85787011D01*
X97767004Y-85717853D01*
X97796029Y-85654297D01*
X97833447Y-85625015D01*
X97862816Y-85610051D01*
X97949138Y-85547335D01*
X98034786Y-85485109D01*
X98034788Y-85485106D01*
X98034792Y-85485104D01*
X98185104Y-85334792D01*
X98185106Y-85334788D01*
X98185109Y-85334786D01*
X98310048Y-85162820D01*
X98310047Y-85162820D01*
X98310051Y-85162816D01*
X98314514Y-85154054D01*
X98362488Y-85103259D01*
X98430308Y-85086463D01*
X98496444Y-85108999D01*
G37*
%TD.AperFunction*%
%TA.AperFunction,Conductor*%
G36*
X101036444Y-85108999D02*
G01*
X101075484Y-85154054D01*
X101079591Y-85162115D01*
X101079951Y-85162820D01*
X101204890Y-85334786D01*
X101355213Y-85485109D01*
X101527179Y-85610048D01*
X101527181Y-85610049D01*
X101527184Y-85610051D01*
X101556553Y-85625015D01*
X101607349Y-85672989D01*
X101624144Y-85740810D01*
X101601607Y-85806945D01*
X101546892Y-85850397D01*
X101500258Y-85859500D01*
X100429742Y-85859500D01*
X100362703Y-85839815D01*
X100316948Y-85787011D01*
X100307004Y-85717853D01*
X100336029Y-85654297D01*
X100373447Y-85625015D01*
X100402816Y-85610051D01*
X100489138Y-85547335D01*
X100574786Y-85485109D01*
X100574788Y-85485106D01*
X100574792Y-85485104D01*
X100725104Y-85334792D01*
X100725106Y-85334788D01*
X100725109Y-85334786D01*
X100850048Y-85162820D01*
X100850047Y-85162820D01*
X100850051Y-85162816D01*
X100854514Y-85154054D01*
X100902488Y-85103259D01*
X100970308Y-85086463D01*
X101036444Y-85108999D01*
G37*
%TD.AperFunction*%
%TA.AperFunction,Conductor*%
G36*
X103576444Y-85108999D02*
G01*
X103615484Y-85154054D01*
X103619591Y-85162115D01*
X103619951Y-85162820D01*
X103744890Y-85334786D01*
X103895213Y-85485109D01*
X104067179Y-85610048D01*
X104067181Y-85610049D01*
X104067184Y-85610051D01*
X104096553Y-85625015D01*
X104147349Y-85672989D01*
X104164144Y-85740810D01*
X104141607Y-85806945D01*
X104086892Y-85850397D01*
X104040258Y-85859500D01*
X102969742Y-85859500D01*
X102902703Y-85839815D01*
X102856948Y-85787011D01*
X102847004Y-85717853D01*
X102876029Y-85654297D01*
X102913447Y-85625015D01*
X102942816Y-85610051D01*
X103029138Y-85547335D01*
X103114786Y-85485109D01*
X103114788Y-85485106D01*
X103114792Y-85485104D01*
X103265104Y-85334792D01*
X103265106Y-85334788D01*
X103265109Y-85334786D01*
X103390048Y-85162820D01*
X103390047Y-85162820D01*
X103390051Y-85162816D01*
X103394514Y-85154054D01*
X103442488Y-85103259D01*
X103510308Y-85086463D01*
X103576444Y-85108999D01*
G37*
%TD.AperFunction*%
%TA.AperFunction,Conductor*%
G36*
X106116444Y-85108999D02*
G01*
X106155484Y-85154054D01*
X106159591Y-85162115D01*
X106159951Y-85162820D01*
X106284890Y-85334786D01*
X106435213Y-85485109D01*
X106607179Y-85610048D01*
X106607181Y-85610049D01*
X106607184Y-85610051D01*
X106636553Y-85625015D01*
X106687349Y-85672989D01*
X106704144Y-85740810D01*
X106681607Y-85806945D01*
X106626892Y-85850397D01*
X106580258Y-85859500D01*
X105509742Y-85859500D01*
X105442703Y-85839815D01*
X105396948Y-85787011D01*
X105387004Y-85717853D01*
X105416029Y-85654297D01*
X105453447Y-85625015D01*
X105482816Y-85610051D01*
X105569138Y-85547335D01*
X105654786Y-85485109D01*
X105654788Y-85485106D01*
X105654792Y-85485104D01*
X105805104Y-85334792D01*
X105805106Y-85334788D01*
X105805109Y-85334786D01*
X105930048Y-85162820D01*
X105930047Y-85162820D01*
X105930051Y-85162816D01*
X105934514Y-85154054D01*
X105982488Y-85103259D01*
X106050308Y-85086463D01*
X106116444Y-85108999D01*
G37*
%TD.AperFunction*%
%TA.AperFunction,Conductor*%
G36*
X108656444Y-85108999D02*
G01*
X108695484Y-85154054D01*
X108699591Y-85162115D01*
X108699951Y-85162820D01*
X108824890Y-85334786D01*
X108975213Y-85485109D01*
X109147179Y-85610048D01*
X109147181Y-85610049D01*
X109147184Y-85610051D01*
X109176553Y-85625015D01*
X109227349Y-85672989D01*
X109244144Y-85740810D01*
X109221607Y-85806945D01*
X109166892Y-85850397D01*
X109120258Y-85859500D01*
X108049742Y-85859500D01*
X107982703Y-85839815D01*
X107936948Y-85787011D01*
X107927004Y-85717853D01*
X107956029Y-85654297D01*
X107993447Y-85625015D01*
X108022816Y-85610051D01*
X108109138Y-85547335D01*
X108194786Y-85485109D01*
X108194788Y-85485106D01*
X108194792Y-85485104D01*
X108345104Y-85334792D01*
X108345106Y-85334788D01*
X108345109Y-85334786D01*
X108470048Y-85162820D01*
X108470047Y-85162820D01*
X108470051Y-85162816D01*
X108474514Y-85154054D01*
X108522488Y-85103259D01*
X108590308Y-85086463D01*
X108656444Y-85108999D01*
G37*
%TD.AperFunction*%
%TA.AperFunction,Conductor*%
G36*
X111196444Y-85108999D02*
G01*
X111235484Y-85154054D01*
X111239591Y-85162115D01*
X111239951Y-85162820D01*
X111364890Y-85334786D01*
X111515213Y-85485109D01*
X111687179Y-85610048D01*
X111687181Y-85610049D01*
X111687184Y-85610051D01*
X111716553Y-85625015D01*
X111767349Y-85672989D01*
X111784144Y-85740810D01*
X111761607Y-85806945D01*
X111706892Y-85850397D01*
X111660258Y-85859500D01*
X110589742Y-85859500D01*
X110522703Y-85839815D01*
X110476948Y-85787011D01*
X110467004Y-85717853D01*
X110496029Y-85654297D01*
X110533447Y-85625015D01*
X110562816Y-85610051D01*
X110649138Y-85547335D01*
X110734786Y-85485109D01*
X110734788Y-85485106D01*
X110734792Y-85485104D01*
X110885104Y-85334792D01*
X110885106Y-85334788D01*
X110885109Y-85334786D01*
X111010048Y-85162820D01*
X111010047Y-85162820D01*
X111010051Y-85162816D01*
X111014514Y-85154054D01*
X111062488Y-85103259D01*
X111130308Y-85086463D01*
X111196444Y-85108999D01*
G37*
%TD.AperFunction*%
%TA.AperFunction,Conductor*%
G36*
X114469075Y-84647993D02*
G01*
X114534901Y-84762007D01*
X114627993Y-84855099D01*
X114742007Y-84920925D01*
X114805590Y-84937962D01*
X114173282Y-85570269D01*
X114173282Y-85570270D01*
X114227449Y-85609624D01*
X114257655Y-85625015D01*
X114308451Y-85672989D01*
X114325246Y-85740810D01*
X114302709Y-85806945D01*
X114247994Y-85850397D01*
X114201360Y-85859500D01*
X113129742Y-85859500D01*
X113062703Y-85839815D01*
X113016948Y-85787011D01*
X113007004Y-85717853D01*
X113036029Y-85654297D01*
X113073447Y-85625015D01*
X113102816Y-85610051D01*
X113189138Y-85547335D01*
X113274786Y-85485109D01*
X113274788Y-85485106D01*
X113274792Y-85485104D01*
X113425104Y-85334792D01*
X113425106Y-85334788D01*
X113425109Y-85334786D01*
X113510890Y-85216717D01*
X113550051Y-85162816D01*
X113554793Y-85153508D01*
X113602763Y-85102711D01*
X113670583Y-85085911D01*
X113736719Y-85108445D01*
X113775763Y-85153500D01*
X113780373Y-85162547D01*
X113819728Y-85216716D01*
X114452036Y-84584407D01*
X114469075Y-84647993D01*
G37*
%TD.AperFunction*%
%TA.AperFunction,Conductor*%
G36*
X118607539Y-83924185D02*
G01*
X118653294Y-83976989D01*
X118664500Y-84028500D01*
X118664500Y-85352870D01*
X118664501Y-85352876D01*
X118670908Y-85412483D01*
X118721202Y-85547328D01*
X118721206Y-85547335D01*
X118806438Y-85661189D01*
X118830856Y-85726653D01*
X118816005Y-85794926D01*
X118766600Y-85844332D01*
X118707172Y-85859500D01*
X115668640Y-85859500D01*
X115601601Y-85839815D01*
X115555846Y-85787011D01*
X115545902Y-85717853D01*
X115574927Y-85654297D01*
X115612345Y-85625015D01*
X115642554Y-85609622D01*
X115696716Y-85570270D01*
X115696717Y-85570270D01*
X115064408Y-84937962D01*
X115127993Y-84920925D01*
X115242007Y-84855099D01*
X115335099Y-84762007D01*
X115400925Y-84647993D01*
X115417962Y-84584409D01*
X116050270Y-85216717D01*
X116050270Y-85216716D01*
X116089622Y-85162554D01*
X116186095Y-84973217D01*
X116251757Y-84771130D01*
X116251757Y-84771127D01*
X116285000Y-84561246D01*
X116285000Y-84348753D01*
X116251757Y-84138872D01*
X116251757Y-84138869D01*
X116228346Y-84066818D01*
X116226351Y-83996977D01*
X116262431Y-83937144D01*
X116325132Y-83906316D01*
X116346277Y-83904500D01*
X118540500Y-83904500D01*
X118607539Y-83924185D01*
G37*
%TD.AperFunction*%
%TA.AperFunction,Conductor*%
G36*
X122089075Y-84647993D02*
G01*
X122154901Y-84762007D01*
X122247993Y-84855099D01*
X122362007Y-84920925D01*
X122425590Y-84937962D01*
X121793282Y-85570269D01*
X121793282Y-85570270D01*
X121847449Y-85609624D01*
X121877655Y-85625015D01*
X121928451Y-85672989D01*
X121945246Y-85740810D01*
X121922709Y-85806945D01*
X121867994Y-85850397D01*
X121821360Y-85859500D01*
X121322828Y-85859500D01*
X121255789Y-85839815D01*
X121210034Y-85787011D01*
X121200090Y-85717853D01*
X121223562Y-85661189D01*
X121308793Y-85547335D01*
X121308792Y-85547335D01*
X121308796Y-85547331D01*
X121359091Y-85412483D01*
X121365500Y-85352873D01*
X121365499Y-85342312D01*
X121385179Y-85275275D01*
X121401818Y-85254626D01*
X122072037Y-84584408D01*
X122089075Y-84647993D01*
G37*
%TD.AperFunction*%
%TA.AperFunction,Conductor*%
G36*
X123670270Y-85216717D02*
G01*
X123670270Y-85216716D01*
X123709622Y-85162555D01*
X123714232Y-85153507D01*
X123762205Y-85102709D01*
X123830025Y-85085912D01*
X123896161Y-85108447D01*
X123935204Y-85153504D01*
X123939949Y-85162817D01*
X124064890Y-85334786D01*
X124215213Y-85485109D01*
X124387179Y-85610048D01*
X124387181Y-85610049D01*
X124387184Y-85610051D01*
X124416553Y-85625015D01*
X124467349Y-85672989D01*
X124484144Y-85740810D01*
X124461607Y-85806945D01*
X124406892Y-85850397D01*
X124360258Y-85859500D01*
X123288640Y-85859500D01*
X123221601Y-85839815D01*
X123175846Y-85787011D01*
X123165902Y-85717853D01*
X123194927Y-85654297D01*
X123232345Y-85625015D01*
X123262554Y-85609622D01*
X123316716Y-85570270D01*
X123316717Y-85570270D01*
X122684408Y-84937962D01*
X122747993Y-84920925D01*
X122862007Y-84855099D01*
X122955099Y-84762007D01*
X123020925Y-84647993D01*
X123037962Y-84584409D01*
X123670270Y-85216717D01*
G37*
%TD.AperFunction*%
%TA.AperFunction,Conductor*%
G36*
X126436444Y-85108999D02*
G01*
X126475484Y-85154054D01*
X126479591Y-85162115D01*
X126479951Y-85162820D01*
X126604890Y-85334786D01*
X126755213Y-85485109D01*
X126927179Y-85610048D01*
X126927181Y-85610049D01*
X126927184Y-85610051D01*
X126956553Y-85625015D01*
X127007349Y-85672989D01*
X127024144Y-85740810D01*
X127001607Y-85806945D01*
X126946892Y-85850397D01*
X126900258Y-85859500D01*
X125829742Y-85859500D01*
X125762703Y-85839815D01*
X125716948Y-85787011D01*
X125707004Y-85717853D01*
X125736029Y-85654297D01*
X125773447Y-85625015D01*
X125802816Y-85610051D01*
X125889138Y-85547335D01*
X125974786Y-85485109D01*
X125974788Y-85485106D01*
X125974792Y-85485104D01*
X126125104Y-85334792D01*
X126125106Y-85334788D01*
X126125109Y-85334786D01*
X126250048Y-85162820D01*
X126250047Y-85162820D01*
X126250051Y-85162816D01*
X126254514Y-85154054D01*
X126302488Y-85103259D01*
X126370308Y-85086463D01*
X126436444Y-85108999D01*
G37*
%TD.AperFunction*%
%TA.AperFunction,Conductor*%
G36*
X124634389Y-73950450D02*
G01*
X124680144Y-74003254D01*
X124690088Y-74072412D01*
X124670452Y-74123656D01*
X124639609Y-74169814D01*
X124639602Y-74169827D01*
X124579264Y-74315498D01*
X124579261Y-74315510D01*
X124548500Y-74470153D01*
X124548500Y-74627846D01*
X124579261Y-74782489D01*
X124579264Y-74782501D01*
X124639602Y-74928172D01*
X124639609Y-74928185D01*
X124727210Y-75059288D01*
X124727213Y-75059292D01*
X124838707Y-75170786D01*
X124838711Y-75170789D01*
X124969814Y-75258390D01*
X124969827Y-75258397D01*
X125081078Y-75304478D01*
X125115503Y-75318737D01*
X125270153Y-75349499D01*
X125270156Y-75349500D01*
X125270158Y-75349500D01*
X125427844Y-75349500D01*
X125427845Y-75349499D01*
X125582497Y-75318737D01*
X125728179Y-75258394D01*
X125859289Y-75170789D01*
X125970789Y-75059289D01*
X126004497Y-75008842D01*
X126010720Y-74999529D01*
X126064332Y-74954723D01*
X126133657Y-74946016D01*
X126196684Y-74976170D01*
X126201503Y-74980738D01*
X131381241Y-80160476D01*
X131414726Y-80221799D01*
X131411492Y-80286473D01*
X131397753Y-80328757D01*
X131364500Y-80538713D01*
X131364500Y-80751286D01*
X131389841Y-80911286D01*
X131397754Y-80961243D01*
X131448540Y-81117547D01*
X131463444Y-81163414D01*
X131559951Y-81352820D01*
X131684890Y-81524786D01*
X131835213Y-81675109D01*
X132007179Y-81800048D01*
X132007181Y-81800049D01*
X132007184Y-81800051D01*
X132196588Y-81896557D01*
X132398757Y-81962246D01*
X132608713Y-81995500D01*
X132608714Y-81995500D01*
X132821286Y-81995500D01*
X132821287Y-81995500D01*
X133031243Y-81962246D01*
X133233412Y-81896557D01*
X133422816Y-81800051D01*
X133477229Y-81760518D01*
X133594786Y-81675109D01*
X133594788Y-81675106D01*
X133594792Y-81675104D01*
X133745104Y-81524792D01*
X133745106Y-81524788D01*
X133745109Y-81524786D01*
X133870048Y-81352820D01*
X133870047Y-81352820D01*
X133870051Y-81352816D01*
X133885015Y-81323446D01*
X133932989Y-81272651D01*
X134000810Y-81255856D01*
X134066945Y-81278393D01*
X134110397Y-81333108D01*
X134119500Y-81379742D01*
X134119500Y-82999138D01*
X134099815Y-83066177D01*
X134083181Y-83086819D01*
X131346819Y-85823181D01*
X131285496Y-85856666D01*
X131259138Y-85859500D01*
X128369742Y-85859500D01*
X128302703Y-85839815D01*
X128256948Y-85787011D01*
X128247004Y-85717853D01*
X128276029Y-85654297D01*
X128313447Y-85625015D01*
X128342816Y-85610051D01*
X128429138Y-85547335D01*
X128514786Y-85485109D01*
X128514788Y-85485106D01*
X128514792Y-85485104D01*
X128665104Y-85334792D01*
X128665106Y-85334788D01*
X128665109Y-85334786D01*
X128790048Y-85162820D01*
X128790047Y-85162820D01*
X128790051Y-85162816D01*
X128886557Y-84973412D01*
X128922920Y-84861500D01*
X129948391Y-84861500D01*
X130718924Y-84861500D01*
X131150500Y-84429924D01*
X131150500Y-84168500D01*
X129967397Y-84168500D01*
X129974277Y-84211941D01*
X129974944Y-84216764D01*
X129978404Y-84245997D01*
X129978881Y-84250835D01*
X129981959Y-84289914D01*
X129982246Y-84294779D01*
X129983404Y-84324231D01*
X129983500Y-84329103D01*
X129983500Y-84580897D01*
X129983404Y-84585769D01*
X129982246Y-84615221D01*
X129981959Y-84620086D01*
X129978881Y-84659165D01*
X129978404Y-84664003D01*
X129974944Y-84693236D01*
X129974277Y-84698059D01*
X129948391Y-84861500D01*
X128922920Y-84861500D01*
X128952246Y-84771243D01*
X128985500Y-84561287D01*
X128985500Y-84348713D01*
X128952246Y-84138757D01*
X128886557Y-83936588D01*
X128790051Y-83747184D01*
X128790049Y-83747181D01*
X128790048Y-83747179D01*
X128665109Y-83575213D01*
X128514786Y-83424890D01*
X128342820Y-83299951D01*
X128153414Y-83203444D01*
X128153413Y-83203443D01*
X128153412Y-83203443D01*
X128052024Y-83170500D01*
X129648500Y-83170500D01*
X131150500Y-83170500D01*
X131150500Y-82401371D01*
X131146868Y-82398014D01*
X131143364Y-82394644D01*
X130965356Y-82216636D01*
X130961986Y-82213132D01*
X130942012Y-82191527D01*
X130938778Y-82187888D01*
X130913317Y-82158081D01*
X130910227Y-82154316D01*
X130891968Y-82131157D01*
X130889025Y-82127269D01*
X130741026Y-81923565D01*
X130738240Y-81919568D01*
X130721874Y-81895073D01*
X130719250Y-81890973D01*
X130698769Y-81857550D01*
X130696307Y-81853350D01*
X130681917Y-81827654D01*
X130679622Y-81823361D01*
X130600716Y-81668500D01*
X129648500Y-81668500D01*
X129648500Y-83170500D01*
X128052024Y-83170500D01*
X127951243Y-83137754D01*
X127951241Y-83137753D01*
X127951240Y-83137753D01*
X127789957Y-83112208D01*
X127741287Y-83104500D01*
X127528713Y-83104500D01*
X127509185Y-83107593D01*
X127318757Y-83137753D01*
X127276473Y-83151492D01*
X127206632Y-83153486D01*
X127150476Y-83121241D01*
X125737116Y-81707881D01*
X127148500Y-81707881D01*
X127547119Y-82106500D01*
X127760897Y-82106500D01*
X127765769Y-82106596D01*
X127795221Y-82107754D01*
X127800086Y-82108041D01*
X127839165Y-82111119D01*
X127844003Y-82111596D01*
X127873236Y-82115056D01*
X127878059Y-82115723D01*
X128126728Y-82155108D01*
X128131523Y-82155964D01*
X128160423Y-82161713D01*
X128165183Y-82162758D01*
X128203300Y-82171911D01*
X128208005Y-82173138D01*
X128236347Y-82181131D01*
X128241007Y-82182545D01*
X128480440Y-82260342D01*
X128485037Y-82261936D01*
X128512647Y-82272121D01*
X128517175Y-82273893D01*
X128553392Y-82288891D01*
X128557861Y-82290846D01*
X128584636Y-82303189D01*
X128589019Y-82305314D01*
X128650500Y-82336640D01*
X128650500Y-81668500D01*
X127148500Y-81668500D01*
X127148500Y-81707881D01*
X125737116Y-81707881D01*
X124924416Y-80895181D01*
X124890931Y-80833858D01*
X124895915Y-80764166D01*
X124937787Y-80708233D01*
X125003251Y-80683816D01*
X125012097Y-80683500D01*
X125046844Y-80683500D01*
X125046845Y-80683499D01*
X125112196Y-80670500D01*
X127148500Y-80670500D01*
X128650500Y-80670500D01*
X128650500Y-79168500D01*
X127148500Y-79168500D01*
X127148500Y-80670500D01*
X125112196Y-80670500D01*
X125201497Y-80652737D01*
X125347179Y-80592394D01*
X125478289Y-80504789D01*
X125589789Y-80393289D01*
X125677394Y-80262179D01*
X125737737Y-80116497D01*
X125768500Y-79961842D01*
X125768500Y-79804158D01*
X125768500Y-79804155D01*
X125768499Y-79804153D01*
X125754162Y-79732075D01*
X125737737Y-79649503D01*
X125724587Y-79617756D01*
X125677397Y-79503827D01*
X125677390Y-79503814D01*
X125589789Y-79372711D01*
X125589786Y-79372707D01*
X125478292Y-79261213D01*
X125478288Y-79261210D01*
X125347185Y-79173609D01*
X125347172Y-79173602D01*
X125201501Y-79113264D01*
X125201489Y-79113261D01*
X125046845Y-79082500D01*
X125046842Y-79082500D01*
X124889158Y-79082500D01*
X124889155Y-79082500D01*
X124734510Y-79113261D01*
X124734498Y-79113264D01*
X124588827Y-79173602D01*
X124588814Y-79173609D01*
X124457711Y-79261210D01*
X124457707Y-79261213D01*
X124346213Y-79372707D01*
X124346210Y-79372711D01*
X124258609Y-79503814D01*
X124258602Y-79503827D01*
X124198264Y-79649498D01*
X124198261Y-79649510D01*
X124167500Y-79804153D01*
X124167500Y-79953488D01*
X124147815Y-80020527D01*
X124095011Y-80066282D01*
X124025853Y-80076226D01*
X124011407Y-80073263D01*
X123930822Y-80051670D01*
X123904057Y-80044499D01*
X123745943Y-80044499D01*
X123738347Y-80044499D01*
X123738331Y-80044500D01*
X123590259Y-80044500D01*
X123523220Y-80024815D01*
X123477465Y-79972011D01*
X123467521Y-79902853D01*
X123496546Y-79839297D01*
X123502578Y-79832819D01*
X123516516Y-79818880D01*
X123516520Y-79818876D01*
X123566639Y-79732064D01*
X123595577Y-79681945D01*
X123636500Y-79529218D01*
X123636500Y-79371103D01*
X123636500Y-78112818D01*
X124648500Y-78112818D01*
X124718492Y-78098896D01*
X124724489Y-78097855D01*
X124760920Y-78092451D01*
X124766961Y-78091706D01*
X124815733Y-78086903D01*
X124821803Y-78086455D01*
X124858575Y-78084649D01*
X124864658Y-78084500D01*
X125071342Y-78084500D01*
X125077425Y-78084649D01*
X125114197Y-78086455D01*
X125120267Y-78086903D01*
X125169039Y-78091706D01*
X125175080Y-78092451D01*
X125211511Y-78097855D01*
X125217508Y-78098896D01*
X125420235Y-78139221D01*
X125426177Y-78140555D01*
X125461903Y-78149505D01*
X125467767Y-78151128D01*
X125514662Y-78165354D01*
X125520440Y-78167263D01*
X125529487Y-78170500D01*
X126150500Y-78170500D01*
X126150500Y-76668500D01*
X124648500Y-76668500D01*
X124648500Y-78112818D01*
X123636500Y-78112818D01*
X123636500Y-75651943D01*
X123615749Y-75574499D01*
X123595577Y-75499215D01*
X123561556Y-75440289D01*
X123561556Y-75440288D01*
X123516524Y-75362290D01*
X123516521Y-75362286D01*
X123516520Y-75362284D01*
X123404716Y-75250480D01*
X123404715Y-75250479D01*
X123400385Y-75246149D01*
X123400374Y-75246139D01*
X123271818Y-75117583D01*
X123238333Y-75056260D01*
X123235499Y-75029902D01*
X123235499Y-74404998D01*
X123235498Y-74404981D01*
X123224999Y-74302203D01*
X123224998Y-74302200D01*
X123211180Y-74260500D01*
X123169814Y-74135666D01*
X123160065Y-74119860D01*
X123141626Y-74052467D01*
X123162550Y-73985804D01*
X123216192Y-73941036D01*
X123265605Y-73930765D01*
X124567350Y-73930765D01*
X124634389Y-73950450D01*
G37*
%TD.AperFunction*%
%TA.AperFunction,Conductor*%
G36*
X116570568Y-72735185D02*
G01*
X116585627Y-72747320D01*
X116585736Y-72747189D01*
X116590446Y-72751054D01*
X116721549Y-72838655D01*
X116721562Y-72838662D01*
X116863426Y-72897423D01*
X116867238Y-72899002D01*
X116978950Y-72921223D01*
X117021888Y-72929764D01*
X117021891Y-72929765D01*
X117021893Y-72929765D01*
X117179579Y-72929765D01*
X117179580Y-72929764D01*
X117334232Y-72899002D01*
X117338045Y-72897422D01*
X117407510Y-72889951D01*
X117469991Y-72921223D01*
X117505647Y-72981310D01*
X117509500Y-73011982D01*
X117509500Y-78585430D01*
X117509499Y-78585448D01*
X117509499Y-78751154D01*
X117509498Y-78751154D01*
X117509499Y-78751157D01*
X117542855Y-78875643D01*
X117550424Y-78903887D01*
X117560819Y-78921891D01*
X117560820Y-78921893D01*
X117629477Y-79040812D01*
X117629481Y-79040817D01*
X117748349Y-79159685D01*
X117748354Y-79159689D01*
X120349184Y-81760520D01*
X120349186Y-81760521D01*
X120349190Y-81760524D01*
X120486109Y-81839573D01*
X120486116Y-81839577D01*
X120638843Y-81880501D01*
X120638845Y-81880501D01*
X120804554Y-81880501D01*
X120804570Y-81880500D01*
X123524903Y-81880500D01*
X123591942Y-81900185D01*
X123612584Y-81916819D01*
X124458181Y-82762416D01*
X124491666Y-82823739D01*
X124494500Y-82850097D01*
X124494500Y-83169281D01*
X124474815Y-83236320D01*
X124426795Y-83279765D01*
X124387185Y-83299947D01*
X124387184Y-83299948D01*
X124215213Y-83424890D01*
X124064890Y-83575213D01*
X123939949Y-83747182D01*
X123935202Y-83756499D01*
X123887227Y-83807293D01*
X123819405Y-83824087D01*
X123753271Y-83801548D01*
X123714234Y-83756495D01*
X123709626Y-83747452D01*
X123670270Y-83693282D01*
X123670269Y-83693282D01*
X123037962Y-84325590D01*
X123020925Y-84262007D01*
X122955099Y-84147993D01*
X122862007Y-84054901D01*
X122747993Y-83989075D01*
X122684409Y-83972037D01*
X123316716Y-83339728D01*
X123262550Y-83300375D01*
X123073217Y-83203904D01*
X122871129Y-83138242D01*
X122661246Y-83105000D01*
X122448754Y-83105000D01*
X122238872Y-83138242D01*
X122238869Y-83138242D01*
X122036782Y-83203904D01*
X121847439Y-83300380D01*
X121793282Y-83339727D01*
X121793282Y-83339728D01*
X122425591Y-83972037D01*
X122362007Y-83989075D01*
X122247993Y-84054901D01*
X122154901Y-84147993D01*
X122089075Y-84262007D01*
X122072037Y-84325591D01*
X121401818Y-83655372D01*
X121368333Y-83594049D01*
X121365499Y-83567691D01*
X121365499Y-83557129D01*
X121365498Y-83557123D01*
X121365497Y-83557116D01*
X121359091Y-83497517D01*
X121357150Y-83492314D01*
X121308797Y-83362671D01*
X121308793Y-83362664D01*
X121222547Y-83247455D01*
X121222544Y-83247452D01*
X121107335Y-83161206D01*
X121107328Y-83161202D01*
X120972482Y-83110908D01*
X120972483Y-83110908D01*
X120912883Y-83104501D01*
X120912881Y-83104500D01*
X120912873Y-83104500D01*
X120912865Y-83104500D01*
X119565097Y-83104500D01*
X119498058Y-83084815D01*
X119477416Y-83068181D01*
X119351590Y-82942355D01*
X119351588Y-82942352D01*
X119232717Y-82823481D01*
X119232716Y-82823480D01*
X119145904Y-82773360D01*
X119145904Y-82773359D01*
X119145900Y-82773358D01*
X119095785Y-82744423D01*
X118943057Y-82703499D01*
X118784943Y-82703499D01*
X118777347Y-82703499D01*
X118777331Y-82703500D01*
X113632670Y-82703500D01*
X113632654Y-82703499D01*
X113625058Y-82703499D01*
X113466943Y-82703499D01*
X113359587Y-82732265D01*
X113314210Y-82744424D01*
X113314209Y-82744425D01*
X113264096Y-82773359D01*
X113264095Y-82773360D01*
X113220689Y-82798420D01*
X113177285Y-82823479D01*
X113177282Y-82823481D01*
X113065478Y-82935286D01*
X112879522Y-83121241D01*
X112818199Y-83154726D01*
X112753523Y-83151491D01*
X112711245Y-83137754D01*
X112559569Y-83113731D01*
X112501287Y-83104500D01*
X112288713Y-83104500D01*
X112240042Y-83112208D01*
X112078760Y-83137753D01*
X111876585Y-83203444D01*
X111687179Y-83299951D01*
X111515213Y-83424890D01*
X111364890Y-83575213D01*
X111239949Y-83747182D01*
X111235484Y-83755946D01*
X111187509Y-83806742D01*
X111119688Y-83823536D01*
X111053553Y-83800998D01*
X111014516Y-83755946D01*
X111010050Y-83747182D01*
X110885109Y-83575213D01*
X110734786Y-83424890D01*
X110562820Y-83299951D01*
X110373414Y-83203444D01*
X110373413Y-83203443D01*
X110373412Y-83203443D01*
X110171243Y-83137754D01*
X110171241Y-83137753D01*
X110171240Y-83137753D01*
X110009957Y-83112208D01*
X109961287Y-83104500D01*
X109748713Y-83104500D01*
X109700042Y-83112208D01*
X109538760Y-83137753D01*
X109336585Y-83203444D01*
X109147182Y-83299950D01*
X109097910Y-83335748D01*
X109032104Y-83359227D01*
X108964050Y-83343401D01*
X108937345Y-83323110D01*
X107725584Y-82111349D01*
X109648500Y-82111349D01*
X109650835Y-82111119D01*
X109689914Y-82108041D01*
X109694779Y-82107754D01*
X109724231Y-82106596D01*
X109729103Y-82106500D01*
X109980897Y-82106500D01*
X109985769Y-82106596D01*
X110015221Y-82107754D01*
X110020086Y-82108041D01*
X110059165Y-82111119D01*
X110064003Y-82111596D01*
X110093236Y-82115056D01*
X110098059Y-82115723D01*
X110346728Y-82155108D01*
X110351523Y-82155964D01*
X110380423Y-82161713D01*
X110385183Y-82162758D01*
X110423300Y-82171911D01*
X110428005Y-82173138D01*
X110456347Y-82181131D01*
X110461007Y-82182545D01*
X110700440Y-82260342D01*
X110705037Y-82261936D01*
X110732647Y-82272121D01*
X110737175Y-82273893D01*
X110773392Y-82288891D01*
X110777861Y-82290846D01*
X110804636Y-82303189D01*
X110809019Y-82305314D01*
X111033361Y-82419622D01*
X111037654Y-82421917D01*
X111063350Y-82436307D01*
X111067550Y-82438769D01*
X111100973Y-82459250D01*
X111105073Y-82461874D01*
X111125000Y-82475187D01*
X111144927Y-82461874D01*
X111149027Y-82459250D01*
X111150500Y-82458347D01*
X111150500Y-81668500D01*
X109648500Y-81668500D01*
X109648500Y-82111349D01*
X107725584Y-82111349D01*
X107129665Y-81515430D01*
X107096180Y-81454107D01*
X107101164Y-81384415D01*
X107129661Y-81340073D01*
X107799233Y-80670500D01*
X109648500Y-80670500D01*
X111150500Y-80670500D01*
X111150500Y-79889626D01*
X112148500Y-79889626D01*
X112148500Y-80670500D01*
X113650500Y-80670500D01*
X114648500Y-80670500D01*
X116150500Y-80670500D01*
X116150500Y-79533500D01*
X114648500Y-79533500D01*
X114648500Y-80670500D01*
X113650500Y-80670500D01*
X113650500Y-79533500D01*
X113493158Y-79533500D01*
X113485098Y-79539478D01*
X113480122Y-79542983D01*
X113308263Y-79657816D01*
X113303118Y-79661074D01*
X113271525Y-79680009D01*
X113266230Y-79683008D01*
X113223009Y-79706109D01*
X113217574Y-79708845D01*
X113184292Y-79724586D01*
X113178728Y-79727052D01*
X112987778Y-79806145D01*
X112982101Y-79808335D01*
X112947440Y-79820737D01*
X112941662Y-79822646D01*
X112894767Y-79836872D01*
X112888903Y-79838495D01*
X112853177Y-79847445D01*
X112847235Y-79848779D01*
X112644508Y-79889104D01*
X112638511Y-79890145D01*
X112602080Y-79895549D01*
X112596039Y-79896294D01*
X112547267Y-79901097D01*
X112541197Y-79901545D01*
X112504425Y-79903351D01*
X112498342Y-79903500D01*
X112291658Y-79903500D01*
X112285575Y-79903351D01*
X112248803Y-79901545D01*
X112242733Y-79901097D01*
X112193961Y-79896294D01*
X112187920Y-79895549D01*
X112151489Y-79890145D01*
X112148500Y-79889626D01*
X111150500Y-79889626D01*
X111150500Y-79703500D01*
X110953259Y-79703500D01*
X110945149Y-79703235D01*
X110896143Y-79700023D01*
X110888064Y-79699227D01*
X110823264Y-79690694D01*
X110815260Y-79689372D01*
X110767106Y-79679793D01*
X110759206Y-79677951D01*
X110543345Y-79620112D01*
X110535580Y-79617756D01*
X110489073Y-79601969D01*
X110481475Y-79599110D01*
X110421088Y-79574095D01*
X110413698Y-79570746D01*
X110369660Y-79549028D01*
X110362505Y-79545203D01*
X110342235Y-79533500D01*
X109648500Y-79533500D01*
X109648500Y-80670500D01*
X107799233Y-80670500D01*
X107890056Y-80579677D01*
X107890061Y-80579674D01*
X107900264Y-80569470D01*
X107900266Y-80569470D01*
X108012070Y-80457666D01*
X108088331Y-80325577D01*
X108091127Y-80320735D01*
X108132050Y-80168007D01*
X108132050Y-80009893D01*
X108132050Y-78659500D01*
X108151735Y-78592461D01*
X108204539Y-78546706D01*
X108256050Y-78535500D01*
X110594902Y-78535500D01*
X110661941Y-78555185D01*
X110682583Y-78571819D01*
X110696284Y-78585520D01*
X110783095Y-78635639D01*
X110783097Y-78635641D01*
X110833213Y-78664576D01*
X110833215Y-78664577D01*
X110985942Y-78705500D01*
X110985943Y-78705500D01*
X111815234Y-78705500D01*
X111882273Y-78725185D01*
X111884125Y-78726398D01*
X112015814Y-78814390D01*
X112015827Y-78814397D01*
X112161498Y-78874735D01*
X112161503Y-78874737D01*
X112308039Y-78903885D01*
X112316153Y-78905499D01*
X112316156Y-78905500D01*
X112316158Y-78905500D01*
X112473844Y-78905500D01*
X112473845Y-78905499D01*
X112628497Y-78874737D01*
X112759455Y-78820493D01*
X112774172Y-78814397D01*
X112774172Y-78814396D01*
X112774179Y-78814394D01*
X112905289Y-78726789D01*
X113016789Y-78615289D01*
X113072708Y-78531600D01*
X113126318Y-78486797D01*
X113195643Y-78478089D01*
X113214812Y-78482785D01*
X113342203Y-78524999D01*
X113444992Y-78535500D01*
X113444997Y-78535500D01*
X116545003Y-78535500D01*
X116545008Y-78535500D01*
X116647797Y-78524999D01*
X116814334Y-78469814D01*
X116963655Y-78377711D01*
X117087711Y-78253655D01*
X117179814Y-78104334D01*
X117234999Y-77937797D01*
X117245500Y-77835008D01*
X117245500Y-75834992D01*
X117234999Y-75732203D01*
X117179814Y-75565666D01*
X117179403Y-75565000D01*
X117087713Y-75416348D01*
X117087710Y-75416344D01*
X116963655Y-75292289D01*
X116963651Y-75292286D01*
X116814337Y-75200187D01*
X116814335Y-75200186D01*
X116707851Y-75164901D01*
X116647797Y-75145001D01*
X116647795Y-75145000D01*
X116545015Y-75134500D01*
X116545008Y-75134500D01*
X115405097Y-75134500D01*
X115338058Y-75114815D01*
X115317416Y-75098181D01*
X115134574Y-74915339D01*
X115101089Y-74854016D01*
X115100638Y-74851849D01*
X115077208Y-74734061D01*
X115069737Y-74696503D01*
X115064126Y-74682956D01*
X115009397Y-74550827D01*
X115009390Y-74550814D01*
X114921789Y-74419711D01*
X114921786Y-74419707D01*
X114810292Y-74308213D01*
X114810288Y-74308210D01*
X114679185Y-74220609D01*
X114679172Y-74220602D01*
X114533501Y-74160264D01*
X114533489Y-74160261D01*
X114378845Y-74129500D01*
X114378842Y-74129500D01*
X114221158Y-74129500D01*
X114221155Y-74129500D01*
X114066510Y-74160261D01*
X114066498Y-74160264D01*
X113920827Y-74220602D01*
X113920814Y-74220609D01*
X113789711Y-74308210D01*
X113789707Y-74308213D01*
X113678213Y-74419707D01*
X113678210Y-74419711D01*
X113590609Y-74550814D01*
X113590602Y-74550827D01*
X113530264Y-74696498D01*
X113530261Y-74696510D01*
X113499500Y-74851153D01*
X113499500Y-75014934D01*
X113497184Y-75014934D01*
X113486055Y-75073473D01*
X113437968Y-75124163D01*
X113388300Y-75140291D01*
X113342204Y-75145000D01*
X113342203Y-75145001D01*
X113175664Y-75200186D01*
X113175662Y-75200187D01*
X113026348Y-75292286D01*
X113026344Y-75292289D01*
X112902289Y-75416344D01*
X112902286Y-75416348D01*
X112810187Y-75565662D01*
X112810186Y-75565664D01*
X112755001Y-75732203D01*
X112755000Y-75732204D01*
X112744500Y-75834984D01*
X112744500Y-77207242D01*
X112724815Y-77274281D01*
X112672011Y-77320036D01*
X112602853Y-77329980D01*
X112596309Y-77328859D01*
X112473846Y-77304500D01*
X112473842Y-77304500D01*
X112316158Y-77304500D01*
X112316153Y-77304500D01*
X112193691Y-77328859D01*
X112124099Y-77322632D01*
X112068922Y-77279768D01*
X112045678Y-77213879D01*
X112045500Y-77207242D01*
X112045500Y-75834997D01*
X112045499Y-75834984D01*
X112044934Y-75829457D01*
X112034999Y-75732203D01*
X111979814Y-75565666D01*
X111979403Y-75565000D01*
X111887713Y-75416348D01*
X111887710Y-75416344D01*
X111763655Y-75292289D01*
X111763651Y-75292286D01*
X111614337Y-75200187D01*
X111614335Y-75200186D01*
X111507851Y-75164901D01*
X111447797Y-75145001D01*
X111447795Y-75145000D01*
X111345015Y-75134500D01*
X111345008Y-75134500D01*
X108256050Y-75134500D01*
X108189011Y-75114815D01*
X108143256Y-75062011D01*
X108132050Y-75010500D01*
X108132050Y-74801100D01*
X108151735Y-74734061D01*
X108204539Y-74688306D01*
X108256050Y-74677100D01*
X110456442Y-74677100D01*
X110614557Y-74677101D01*
X110767284Y-74636177D01*
X110792055Y-74621874D01*
X110792059Y-74621874D01*
X110904209Y-74557124D01*
X110904208Y-74557124D01*
X110904216Y-74557120D01*
X111016020Y-74445316D01*
X111016020Y-74445315D01*
X111033453Y-74427882D01*
X111033462Y-74427872D01*
X111164518Y-74296819D01*
X111225841Y-74263334D01*
X111252198Y-74260501D01*
X111264054Y-74260501D01*
X111264057Y-74260501D01*
X111416785Y-74219577D01*
X111416787Y-74219575D01*
X111416789Y-74219575D01*
X111416790Y-74219574D01*
X111467893Y-74190070D01*
X111467894Y-74190069D01*
X111553716Y-74140520D01*
X111665520Y-74028716D01*
X111665520Y-74028714D01*
X111675724Y-74018511D01*
X111675728Y-74018506D01*
X112325043Y-73369190D01*
X112386364Y-73335707D01*
X112431822Y-73336795D01*
X112432087Y-73334787D01*
X112440145Y-73335847D01*
X112440146Y-73335848D01*
X112551439Y-73350500D01*
X113038560Y-73350499D01*
X113038561Y-73350499D01*
X113055433Y-73348277D01*
X113149854Y-73335848D01*
X113149857Y-73335846D01*
X113157708Y-73333744D01*
X113158221Y-73335659D01*
X113216994Y-73329330D01*
X113232271Y-73333815D01*
X113232291Y-73333744D01*
X113240141Y-73335847D01*
X113240144Y-73335847D01*
X113240146Y-73335848D01*
X113351439Y-73350500D01*
X113838560Y-73350499D01*
X113838561Y-73350499D01*
X113855433Y-73348277D01*
X113949854Y-73335848D01*
X113949857Y-73335846D01*
X113957708Y-73333744D01*
X113958221Y-73335659D01*
X114016994Y-73329330D01*
X114032271Y-73333815D01*
X114032291Y-73333744D01*
X114040141Y-73335847D01*
X114040144Y-73335847D01*
X114040146Y-73335848D01*
X114151439Y-73350500D01*
X114638560Y-73350499D01*
X114638561Y-73350499D01*
X114655433Y-73348277D01*
X114749854Y-73335848D01*
X114749857Y-73335846D01*
X114757708Y-73333744D01*
X114758221Y-73335659D01*
X114816994Y-73329330D01*
X114832271Y-73333815D01*
X114832291Y-73333744D01*
X114840141Y-73335847D01*
X114840144Y-73335847D01*
X114840146Y-73335848D01*
X114951439Y-73350500D01*
X115438560Y-73350499D01*
X115438562Y-73350499D01*
X115549846Y-73335849D01*
X115549845Y-73335849D01*
X115549854Y-73335848D01*
X115688331Y-73278489D01*
X115807244Y-73187244D01*
X115898489Y-73068331D01*
X115955848Y-72929854D01*
X115969874Y-72823314D01*
X115998140Y-72759418D01*
X116056465Y-72720947D01*
X116092813Y-72715500D01*
X116503529Y-72715500D01*
X116570568Y-72735185D01*
G37*
%TD.AperFunction*%
%TA.AperFunction,Conductor*%
G36*
X134066945Y-78738393D02*
G01*
X134110397Y-78793108D01*
X134119500Y-78839742D01*
X134119500Y-79910257D01*
X134099815Y-79977296D01*
X134047011Y-80023051D01*
X133977853Y-80032995D01*
X133914297Y-80003970D01*
X133885016Y-79966553D01*
X133870050Y-79937182D01*
X133745109Y-79765213D01*
X133594786Y-79614890D01*
X133422820Y-79489951D01*
X133422115Y-79489591D01*
X133414054Y-79485485D01*
X133363259Y-79437512D01*
X133346463Y-79369692D01*
X133368999Y-79303556D01*
X133414054Y-79264515D01*
X133422816Y-79260051D01*
X133449497Y-79240666D01*
X133594786Y-79135109D01*
X133594788Y-79135106D01*
X133594792Y-79135104D01*
X133745104Y-78984792D01*
X133745106Y-78984788D01*
X133745109Y-78984786D01*
X133864831Y-78820001D01*
X133870051Y-78812816D01*
X133885015Y-78783446D01*
X133932989Y-78732651D01*
X134000810Y-78715856D01*
X134066945Y-78738393D01*
G37*
%TD.AperFunction*%
%TA.AperFunction,Conductor*%
G36*
X101187941Y-61580185D02*
G01*
X101233696Y-61632989D01*
X101243640Y-61702147D01*
X101214615Y-61765703D01*
X101208583Y-61772181D01*
X100950337Y-62030426D01*
X100889014Y-62063911D01*
X100886848Y-62064362D01*
X100731508Y-62095261D01*
X100731498Y-62095264D01*
X100585827Y-62155602D01*
X100585814Y-62155609D01*
X100454711Y-62243210D01*
X100454707Y-62243213D01*
X100343213Y-62354707D01*
X100343210Y-62354711D01*
X100255609Y-62485814D01*
X100255602Y-62485827D01*
X100195264Y-62631498D01*
X100195261Y-62631510D01*
X100164500Y-62786153D01*
X100164500Y-62943846D01*
X100195261Y-63098489D01*
X100195264Y-63098501D01*
X100255602Y-63244172D01*
X100255609Y-63244185D01*
X100343210Y-63375288D01*
X100343213Y-63375292D01*
X100454707Y-63486786D01*
X100454711Y-63486789D01*
X100585814Y-63574390D01*
X100585827Y-63574397D01*
X100730011Y-63634119D01*
X100731503Y-63634737D01*
X100886153Y-63665499D01*
X100886156Y-63665500D01*
X100886158Y-63665500D01*
X101043844Y-63665500D01*
X101104856Y-63653363D01*
X101189617Y-63636503D01*
X101259207Y-63642730D01*
X101314385Y-63685592D01*
X101337299Y-63746898D01*
X101340569Y-63782883D01*
X101340571Y-63782893D01*
X101388467Y-63936598D01*
X101388468Y-63936600D01*
X101388469Y-63936602D01*
X101468612Y-64069174D01*
X101471766Y-64074391D01*
X101585608Y-64188233D01*
X101585610Y-64188234D01*
X101585612Y-64188236D01*
X101723398Y-64271531D01*
X101877113Y-64319430D01*
X101943909Y-64325500D01*
X102572402Y-64325499D01*
X102639441Y-64345183D01*
X102660083Y-64361818D01*
X103503181Y-65204916D01*
X103536666Y-65266239D01*
X103539500Y-65292597D01*
X103539500Y-65731346D01*
X103519815Y-65798385D01*
X103467011Y-65844140D01*
X103404279Y-65854837D01*
X103351044Y-65850000D01*
X102897500Y-65850000D01*
X102897500Y-66551000D01*
X102877815Y-66618039D01*
X102825011Y-66663794D01*
X102773500Y-66675000D01*
X102647500Y-66675000D01*
X102647500Y-66801000D01*
X102627815Y-66868039D01*
X102575011Y-66913794D01*
X102523500Y-66925000D01*
X101338086Y-66925000D01*
X101301208Y-66965380D01*
X101299977Y-66964256D01*
X101271529Y-66993808D01*
X101203551Y-67009957D01*
X101185851Y-67007744D01*
X101043845Y-66979497D01*
X101043842Y-66979497D01*
X100886158Y-66979497D01*
X100886155Y-66979497D01*
X100731510Y-67010258D01*
X100731498Y-67010261D01*
X100585827Y-67070599D01*
X100585814Y-67070606D01*
X100454711Y-67158207D01*
X100454707Y-67158210D01*
X100343213Y-67269704D01*
X100343210Y-67269708D01*
X100255609Y-67400811D01*
X100255602Y-67400824D01*
X100195264Y-67546495D01*
X100195261Y-67546507D01*
X100164500Y-67701150D01*
X100164500Y-67858843D01*
X100195261Y-68013486D01*
X100195264Y-68013498D01*
X100244575Y-68132546D01*
X100252044Y-68202015D01*
X100244575Y-68227450D01*
X100195264Y-68346498D01*
X100195261Y-68346510D01*
X100164500Y-68501153D01*
X100164500Y-68658846D01*
X100195261Y-68813489D01*
X100195264Y-68813501D01*
X100255602Y-68959172D01*
X100255609Y-68959185D01*
X100343210Y-69090288D01*
X100343213Y-69090292D01*
X100454707Y-69201786D01*
X100454711Y-69201789D01*
X100585814Y-69289390D01*
X100585827Y-69289397D01*
X100716349Y-69343460D01*
X100731503Y-69349737D01*
X100886158Y-69380500D01*
X100886847Y-69380637D01*
X100948758Y-69413022D01*
X100950337Y-69414573D01*
X101085588Y-69549824D01*
X101119073Y-69611147D01*
X101114089Y-69680839D01*
X101085588Y-69725186D01*
X101053481Y-69757292D01*
X101053479Y-69757295D01*
X101008907Y-69834498D01*
X101008906Y-69834499D01*
X101000442Y-69849159D01*
X100974423Y-69894225D01*
X100933499Y-70046953D01*
X100933499Y-70046955D01*
X100933499Y-70215056D01*
X100933500Y-70215069D01*
X100933500Y-70757320D01*
X100933499Y-70757338D01*
X100933499Y-70923044D01*
X100933498Y-70923044D01*
X100948147Y-70977712D01*
X100974423Y-71075775D01*
X101000823Y-71121500D01*
X101053479Y-71212704D01*
X101053481Y-71212707D01*
X101172349Y-71331575D01*
X101172355Y-71331580D01*
X102467181Y-72626406D01*
X102500666Y-72687729D01*
X102503500Y-72714087D01*
X102503500Y-72741000D01*
X102483815Y-72808039D01*
X102431011Y-72853794D01*
X102379500Y-72865000D01*
X101785000Y-72865000D01*
X101785000Y-73536000D01*
X101765315Y-73603039D01*
X101712511Y-73648794D01*
X101661000Y-73660000D01*
X101535000Y-73660000D01*
X101535000Y-73786000D01*
X101515315Y-73853039D01*
X101462511Y-73898794D01*
X101411000Y-73910000D01*
X100050000Y-73910000D01*
X100050000Y-73918863D01*
X100064768Y-74031028D01*
X100064769Y-74031032D01*
X100122578Y-74170598D01*
X100159797Y-74219102D01*
X100184991Y-74284272D01*
X100170953Y-74352716D01*
X100159798Y-74370074D01*
X100122144Y-74419146D01*
X100068316Y-74549098D01*
X100041436Y-74589326D01*
X99326286Y-75304478D01*
X99214481Y-75416282D01*
X99214479Y-75416285D01*
X99214443Y-75416348D01*
X99166602Y-75499213D01*
X99164361Y-75503094D01*
X99164359Y-75503096D01*
X99135425Y-75553209D01*
X99135424Y-75553210D01*
X99129500Y-75575318D01*
X99094499Y-75705943D01*
X99094499Y-75705945D01*
X99094499Y-75874046D01*
X99094500Y-75874059D01*
X99094500Y-77740830D01*
X99094499Y-77740848D01*
X99094499Y-77906554D01*
X99094498Y-77906554D01*
X99102870Y-77937797D01*
X99135423Y-78059285D01*
X99141895Y-78070495D01*
X99141897Y-78070502D01*
X99141899Y-78070502D01*
X99214475Y-78196209D01*
X99214481Y-78196217D01*
X99333349Y-78315085D01*
X99333355Y-78315090D01*
X99646465Y-78628200D01*
X99679950Y-78689523D01*
X99674966Y-78759215D01*
X99633094Y-78815148D01*
X99597789Y-78833587D01*
X99470878Y-78875642D01*
X99470875Y-78875643D01*
X99321654Y-78967684D01*
X99197682Y-79091656D01*
X99165831Y-79143295D01*
X99113883Y-79190019D01*
X99044920Y-79201240D01*
X98980838Y-79173396D01*
X98954754Y-79143293D01*
X98922712Y-79091344D01*
X98798655Y-78967287D01*
X98726902Y-78923029D01*
X98680178Y-78871081D01*
X98668000Y-78817491D01*
X98668000Y-77201559D01*
X98668001Y-77201546D01*
X98668001Y-77033445D01*
X98668001Y-77033443D01*
X98627077Y-76880715D01*
X98580765Y-76800501D01*
X98548020Y-76743784D01*
X98436216Y-76631980D01*
X98436215Y-76631979D01*
X98431885Y-76627649D01*
X98431874Y-76627639D01*
X98106818Y-76302583D01*
X98073333Y-76241260D01*
X98070499Y-76214902D01*
X98070499Y-75941111D01*
X98055720Y-75828848D01*
X98055719Y-75828847D01*
X98055719Y-75828841D01*
X98015691Y-75732204D01*
X97997856Y-75689146D01*
X97960518Y-75640487D01*
X97935323Y-75575318D01*
X97949361Y-75506873D01*
X97960518Y-75489513D01*
X97997856Y-75440853D01*
X98000582Y-75434271D01*
X98055719Y-75301159D01*
X98070500Y-75188887D01*
X98070499Y-74739618D01*
X98090183Y-74672580D01*
X98106819Y-74651937D01*
X98144242Y-74614514D01*
X98144249Y-74614504D01*
X98229506Y-74529248D01*
X98229511Y-74529244D01*
X98239714Y-74519040D01*
X98239716Y-74519040D01*
X98351520Y-74407236D01*
X98413900Y-74299190D01*
X98430577Y-74270305D01*
X98471500Y-74117577D01*
X98471500Y-73959463D01*
X98471500Y-73401136D01*
X100050000Y-73401136D01*
X100050000Y-73410000D01*
X101285000Y-73410000D01*
X101285000Y-72865000D01*
X100586136Y-72865000D01*
X100473971Y-72879768D01*
X100473967Y-72879769D01*
X100334401Y-72937578D01*
X100214547Y-73029547D01*
X100122578Y-73149401D01*
X100064769Y-73288967D01*
X100064768Y-73288971D01*
X100050000Y-73401136D01*
X98471500Y-73401136D01*
X98471500Y-72804443D01*
X98468492Y-72793215D01*
X98430577Y-72651715D01*
X98401639Y-72601595D01*
X98351520Y-72514784D01*
X98239716Y-72402980D01*
X98239715Y-72402979D01*
X98235385Y-72398649D01*
X98235374Y-72398639D01*
X96790904Y-70954169D01*
X96757419Y-70892846D01*
X96760200Y-70829597D01*
X96779430Y-70767887D01*
X96785500Y-70701091D01*
X96785499Y-70268910D01*
X96785499Y-70268901D01*
X96779431Y-70202117D01*
X96779428Y-70202106D01*
X96731532Y-70048400D01*
X96731531Y-70048398D01*
X96726315Y-70039769D01*
X96650081Y-69913664D01*
X96633050Y-69849159D01*
X97714776Y-69849159D01*
X97740093Y-69930403D01*
X97741877Y-69936708D01*
X97751660Y-69975145D01*
X97753109Y-69981542D01*
X97763405Y-70033311D01*
X97764513Y-70039769D01*
X97770183Y-70079017D01*
X97770948Y-70085527D01*
X97780429Y-70189878D01*
X97780652Y-70192682D01*
X97781807Y-70209661D01*
X97781966Y-70212471D01*
X97782988Y-70235055D01*
X97783083Y-70237854D01*
X97783467Y-70254811D01*
X97783499Y-70257618D01*
X97783499Y-70535380D01*
X97918619Y-70670500D01*
X98650500Y-70670500D01*
X98650500Y-69168500D01*
X97778602Y-69168500D01*
X97762946Y-69215000D01*
X97789097Y-69292675D01*
X97795069Y-69343460D01*
X97770452Y-69614385D01*
X97769687Y-69620894D01*
X97764017Y-69660141D01*
X97762909Y-69666599D01*
X97752613Y-69718367D01*
X97751165Y-69724761D01*
X97741383Y-69763198D01*
X97739598Y-69769507D01*
X97714776Y-69849159D01*
X96633050Y-69849159D01*
X96632245Y-69846112D01*
X96650082Y-69785365D01*
X96731071Y-69651394D01*
X96731072Y-69651393D01*
X96778932Y-69497802D01*
X96778935Y-69497792D01*
X96781914Y-69465000D01*
X94163085Y-69465000D01*
X94166659Y-69504330D01*
X94164697Y-69504508D01*
X94159301Y-69564734D01*
X94116431Y-69619906D01*
X94050538Y-69643142D01*
X93982543Y-69627065D01*
X93956236Y-69607000D01*
X93314234Y-68964999D01*
X94163085Y-68964999D01*
X94163085Y-68965000D01*
X95222500Y-68965000D01*
X95722500Y-68965000D01*
X96781915Y-68965000D01*
X96781914Y-68964999D01*
X96778935Y-68932207D01*
X96778932Y-68932197D01*
X96731072Y-68778606D01*
X96731071Y-68778604D01*
X96649790Y-68644151D01*
X96631953Y-68576596D01*
X96649790Y-68515849D01*
X96731071Y-68381395D01*
X96731072Y-68381393D01*
X96778932Y-68227802D01*
X96778935Y-68227792D01*
X96781914Y-68195000D01*
X95722500Y-68195000D01*
X95722500Y-68965000D01*
X95222500Y-68965000D01*
X95222500Y-68195000D01*
X94163085Y-68195000D01*
X94166064Y-68227792D01*
X94166067Y-68227802D01*
X94213927Y-68381392D01*
X94295210Y-68515850D01*
X94313046Y-68583405D01*
X94295210Y-68644150D01*
X94213927Y-68778607D01*
X94166067Y-68932197D01*
X94166064Y-68932207D01*
X94163085Y-68964999D01*
X93314234Y-68964999D01*
X92773757Y-68424522D01*
X92740272Y-68363199D01*
X92743507Y-68298523D01*
X92757246Y-68256243D01*
X92790500Y-68046287D01*
X92790500Y-67833713D01*
X92768530Y-67694999D01*
X94163085Y-67694999D01*
X94163085Y-67695000D01*
X95222500Y-67695000D01*
X95722500Y-67695000D01*
X96781915Y-67695000D01*
X96781914Y-67694999D01*
X96778935Y-67662207D01*
X96778932Y-67662197D01*
X96731072Y-67508606D01*
X96731071Y-67508604D01*
X96649790Y-67374151D01*
X96632852Y-67310000D01*
X97714514Y-67310000D01*
X97739598Y-67390493D01*
X97741383Y-67396802D01*
X97751165Y-67435239D01*
X97752613Y-67441633D01*
X97762909Y-67493401D01*
X97764017Y-67499859D01*
X97769687Y-67539106D01*
X97770452Y-67545615D01*
X97795069Y-67816540D01*
X97789097Y-67867325D01*
X97762946Y-67945000D01*
X97789097Y-68022675D01*
X97795069Y-68073460D01*
X97786252Y-68170500D01*
X98650500Y-68170500D01*
X98650500Y-66668500D01*
X97765135Y-66668500D01*
X97762946Y-66675000D01*
X97789097Y-66752675D01*
X97795069Y-66803460D01*
X97770452Y-67074385D01*
X97769687Y-67080894D01*
X97764017Y-67120141D01*
X97762909Y-67126599D01*
X97752613Y-67178367D01*
X97751165Y-67184761D01*
X97741383Y-67223198D01*
X97739598Y-67229507D01*
X97714514Y-67310000D01*
X96632852Y-67310000D01*
X96631953Y-67306596D01*
X96649790Y-67245849D01*
X96731071Y-67111395D01*
X96731072Y-67111393D01*
X96778932Y-66957802D01*
X96778935Y-66957792D01*
X96781914Y-66925000D01*
X95722500Y-66925000D01*
X95722500Y-67695000D01*
X95222500Y-67695000D01*
X95222500Y-66925000D01*
X94163085Y-66925000D01*
X94166064Y-66957792D01*
X94166067Y-66957802D01*
X94213927Y-67111392D01*
X94295210Y-67245850D01*
X94313046Y-67313405D01*
X94295210Y-67374150D01*
X94213927Y-67508607D01*
X94166067Y-67662197D01*
X94166064Y-67662207D01*
X94163085Y-67694999D01*
X92768530Y-67694999D01*
X92757246Y-67623757D01*
X92691557Y-67421588D01*
X92595051Y-67232184D01*
X92595049Y-67232181D01*
X92595048Y-67232179D01*
X92470109Y-67060213D01*
X92356569Y-66946673D01*
X92323084Y-66885350D01*
X92328068Y-66815658D01*
X92369940Y-66759725D01*
X92400915Y-66742810D01*
X92532331Y-66693796D01*
X92647546Y-66607546D01*
X92733796Y-66492331D01*
X92758909Y-66424999D01*
X94163085Y-66424999D01*
X94163085Y-66425000D01*
X95222500Y-66425000D01*
X95722500Y-66425000D01*
X96781915Y-66425000D01*
X96781914Y-66424999D01*
X101338085Y-66424999D01*
X101338085Y-66425000D01*
X102397500Y-66425000D01*
X102397500Y-65850000D01*
X101943957Y-65850000D01*
X101877207Y-65856065D01*
X101723603Y-65903929D01*
X101585919Y-65987163D01*
X101472163Y-66100919D01*
X101388927Y-66238607D01*
X101341067Y-66392197D01*
X101341064Y-66392207D01*
X101338085Y-66424999D01*
X96781914Y-66424999D01*
X96778935Y-66392207D01*
X96778932Y-66392197D01*
X96731072Y-66238607D01*
X96647836Y-66100919D01*
X96534080Y-65987163D01*
X96396396Y-65903929D01*
X96242792Y-65856065D01*
X96176043Y-65850000D01*
X95722500Y-65850000D01*
X95722500Y-66425000D01*
X95222500Y-66425000D01*
X95222500Y-65850000D01*
X94768957Y-65850000D01*
X94702207Y-65856065D01*
X94548603Y-65903929D01*
X94410919Y-65987163D01*
X94297163Y-66100919D01*
X94213927Y-66238607D01*
X94166067Y-66392197D01*
X94166064Y-66392207D01*
X94163085Y-66424999D01*
X92758909Y-66424999D01*
X92784091Y-66357483D01*
X92790500Y-66297873D01*
X92790499Y-64982922D01*
X97148500Y-64982922D01*
X97148500Y-65200719D01*
X97173286Y-65220136D01*
X97179044Y-65224934D01*
X97212982Y-65255000D01*
X97218436Y-65260135D01*
X97374865Y-65416564D01*
X97380000Y-65422018D01*
X97410066Y-65455956D01*
X97414864Y-65461714D01*
X97452066Y-65509203D01*
X97456503Y-65515234D01*
X97482240Y-65552522D01*
X97486305Y-65558809D01*
X97553826Y-65670500D01*
X98650500Y-65670500D01*
X99648500Y-65670500D01*
X100566174Y-65670500D01*
X100633695Y-65558809D01*
X100637760Y-65552522D01*
X100663497Y-65515234D01*
X100667934Y-65509203D01*
X100705136Y-65461714D01*
X100709934Y-65455956D01*
X100740000Y-65422018D01*
X100745135Y-65416564D01*
X100901564Y-65260135D01*
X100907018Y-65255000D01*
X100940956Y-65224934D01*
X100946714Y-65220136D01*
X100994203Y-65182934D01*
X101000234Y-65178497D01*
X101037522Y-65152760D01*
X101043810Y-65148694D01*
X101144552Y-65087792D01*
X101043500Y-65026704D01*
X101037211Y-65022638D01*
X100999922Y-64996900D01*
X100993892Y-64992463D01*
X100946403Y-64955261D01*
X100940645Y-64950463D01*
X100906707Y-64920397D01*
X100901253Y-64915262D01*
X100744738Y-64758747D01*
X100739603Y-64753293D01*
X100709537Y-64719355D01*
X100704739Y-64713597D01*
X100667537Y-64666108D01*
X100663100Y-64660078D01*
X100645981Y-64635277D01*
X100512765Y-64608779D01*
X100506823Y-64607445D01*
X100471097Y-64598495D01*
X100465233Y-64596872D01*
X100418338Y-64582646D01*
X100412560Y-64580737D01*
X100377899Y-64568335D01*
X100372222Y-64566145D01*
X100181272Y-64487052D01*
X100175708Y-64484586D01*
X100142426Y-64468845D01*
X100136991Y-64466109D01*
X100093770Y-64443008D01*
X100088475Y-64440009D01*
X100056882Y-64421074D01*
X100051737Y-64417816D01*
X99879878Y-64302983D01*
X99874902Y-64299478D01*
X99845329Y-64277545D01*
X99840531Y-64273801D01*
X99802649Y-64242712D01*
X99798042Y-64238738D01*
X99770755Y-64214007D01*
X99766346Y-64209809D01*
X99725037Y-64168500D01*
X99648500Y-64168500D01*
X99648500Y-65670500D01*
X98650500Y-65670500D01*
X98650500Y-64168500D01*
X98112116Y-64168500D01*
X97759188Y-64521427D01*
X97759172Y-64521448D01*
X97571303Y-64709317D01*
X97565382Y-64714863D01*
X97528471Y-64747234D01*
X97522201Y-64752380D01*
X97470348Y-64792171D01*
X97463749Y-64796900D01*
X97422910Y-64824188D01*
X97416018Y-64828474D01*
X97258533Y-64919396D01*
X97222492Y-64940206D01*
X97222463Y-64940219D01*
X97148500Y-64982922D01*
X92790499Y-64982922D01*
X92790499Y-64502128D01*
X92784091Y-64442517D01*
X92782351Y-64437853D01*
X92733797Y-64307671D01*
X92733793Y-64307665D01*
X92727165Y-64298810D01*
X92702748Y-64233346D01*
X92717600Y-64165073D01*
X92767005Y-64115668D01*
X92826432Y-64100500D01*
X94271514Y-64100500D01*
X94338553Y-64120185D01*
X94359196Y-64136820D01*
X94410607Y-64188232D01*
X94410608Y-64188233D01*
X94410610Y-64188234D01*
X94410612Y-64188236D01*
X94548398Y-64271531D01*
X94702113Y-64319430D01*
X94768909Y-64325500D01*
X96176090Y-64325499D01*
X96176097Y-64325499D01*
X96242882Y-64319431D01*
X96242885Y-64319430D01*
X96242887Y-64319430D01*
X96396602Y-64271531D01*
X96534388Y-64188236D01*
X96607070Y-64115552D01*
X96662655Y-64083459D01*
X96751785Y-64059577D01*
X96822523Y-64018736D01*
X96854948Y-64000016D01*
X96888709Y-63980524D01*
X96888708Y-63980524D01*
X96888716Y-63980520D01*
X97000520Y-63868716D01*
X97000520Y-63868714D01*
X97010724Y-63858511D01*
X97010727Y-63858506D01*
X99272416Y-61596819D01*
X99333739Y-61563334D01*
X99360097Y-61560500D01*
X101120902Y-61560500D01*
X101187941Y-61580185D01*
G37*
%TD.AperFunction*%
%TA.AperFunction,Conductor*%
G36*
X123724334Y-66734913D02*
G01*
X123780267Y-66776785D01*
X123804684Y-66842249D01*
X123805000Y-66851095D01*
X123805000Y-67060000D01*
X124693500Y-67060000D01*
X124760539Y-67079685D01*
X124806294Y-67132489D01*
X124817500Y-67184000D01*
X124817500Y-67310000D01*
X124943500Y-67310000D01*
X125010539Y-67329685D01*
X125056294Y-67382489D01*
X125067500Y-67434000D01*
X125067500Y-68509999D01*
X125098157Y-68540656D01*
X125131642Y-68601979D01*
X125126658Y-68671671D01*
X125110853Y-68699150D01*
X125111595Y-68699646D01*
X125020609Y-68835814D01*
X125020602Y-68835827D01*
X124960264Y-68981498D01*
X124960261Y-68981510D01*
X124929500Y-69136153D01*
X124929500Y-69293846D01*
X124960261Y-69448489D01*
X124960264Y-69448501D01*
X125020602Y-69594172D01*
X125020609Y-69594185D01*
X125108210Y-69725288D01*
X125108213Y-69725292D01*
X125219707Y-69836786D01*
X125219711Y-69836789D01*
X125350814Y-69924390D01*
X125350827Y-69924397D01*
X125496498Y-69984735D01*
X125496503Y-69984737D01*
X125615419Y-70008391D01*
X125651153Y-70015499D01*
X125651156Y-70015500D01*
X125651158Y-70015500D01*
X125808844Y-70015500D01*
X125808845Y-70015499D01*
X125963497Y-69984737D01*
X126109179Y-69924394D01*
X126240289Y-69836789D01*
X126351789Y-69725289D01*
X126439394Y-69594179D01*
X126446806Y-69576286D01*
X126475211Y-69507709D01*
X126499737Y-69448497D01*
X126529797Y-69297377D01*
X126530638Y-69293150D01*
X126563023Y-69231239D01*
X126564522Y-69229712D01*
X127001006Y-68793227D01*
X127001011Y-68793224D01*
X127011214Y-68783020D01*
X127011216Y-68783020D01*
X127123020Y-68671216D01*
X127175396Y-68580497D01*
X127202077Y-68534285D01*
X127213640Y-68491128D01*
X127250004Y-68431469D01*
X127268312Y-68417687D01*
X127373656Y-68352712D01*
X127497712Y-68228656D01*
X127589814Y-68079334D01*
X127617595Y-67995495D01*
X127657368Y-67938051D01*
X127721884Y-67911228D01*
X127735301Y-67910500D01*
X127964903Y-67910500D01*
X128031942Y-67930185D01*
X128052584Y-67946819D01*
X128836241Y-68730476D01*
X128869726Y-68791799D01*
X128866492Y-68856473D01*
X128852753Y-68898757D01*
X128819500Y-69108713D01*
X128819500Y-69321286D01*
X128849029Y-69507728D01*
X128852754Y-69531243D01*
X128915803Y-69725288D01*
X128918444Y-69733414D01*
X129014951Y-69922820D01*
X129139890Y-70094786D01*
X129139896Y-70094792D01*
X129290208Y-70245104D01*
X129322974Y-70268910D01*
X129359134Y-70295181D01*
X129401800Y-70350511D01*
X129407779Y-70420124D01*
X129375174Y-70481920D01*
X129314335Y-70516277D01*
X129286249Y-70519500D01*
X127579766Y-70519500D01*
X127512727Y-70499815D01*
X127510875Y-70498602D01*
X127379185Y-70410609D01*
X127379172Y-70410602D01*
X127233501Y-70350264D01*
X127233489Y-70350261D01*
X127078845Y-70319500D01*
X127078842Y-70319500D01*
X126921158Y-70319500D01*
X126921155Y-70319500D01*
X126766510Y-70350261D01*
X126766498Y-70350264D01*
X126620827Y-70410602D01*
X126620814Y-70410609D01*
X126489711Y-70498210D01*
X126489707Y-70498213D01*
X126378213Y-70609707D01*
X126378210Y-70609711D01*
X126290609Y-70740814D01*
X126290602Y-70740827D01*
X126230264Y-70886498D01*
X126230261Y-70886510D01*
X126199500Y-71041153D01*
X126199500Y-71198846D01*
X126230261Y-71353489D01*
X126230264Y-71353501D01*
X126290602Y-71499172D01*
X126290609Y-71499185D01*
X126378210Y-71630288D01*
X126378213Y-71630292D01*
X126489707Y-71741786D01*
X126489711Y-71741789D01*
X126620814Y-71829390D01*
X126620827Y-71829397D01*
X126765523Y-71889331D01*
X126766503Y-71889737D01*
X126921153Y-71920499D01*
X126921156Y-71920500D01*
X126921158Y-71920500D01*
X127078844Y-71920500D01*
X127078845Y-71920499D01*
X127233497Y-71889737D01*
X127379179Y-71829394D01*
X127397047Y-71817455D01*
X127510875Y-71741398D01*
X127577553Y-71720520D01*
X127579766Y-71720500D01*
X130723331Y-71720500D01*
X130723347Y-71720501D01*
X130730943Y-71720501D01*
X130889054Y-71720501D01*
X130889057Y-71720501D01*
X131041785Y-71679577D01*
X131119893Y-71634481D01*
X131144948Y-71620016D01*
X131178709Y-71600524D01*
X131178708Y-71600524D01*
X131178716Y-71600520D01*
X131290520Y-71488716D01*
X131290520Y-71488714D01*
X131300724Y-71478511D01*
X131300728Y-71478506D01*
X131679506Y-71099728D01*
X131679511Y-71099724D01*
X131689714Y-71089520D01*
X131689716Y-71089520D01*
X131801520Y-70977716D01*
X131851850Y-70890541D01*
X131873110Y-70853718D01*
X131873111Y-70853717D01*
X131876833Y-70847270D01*
X131880577Y-70840785D01*
X131921500Y-70688057D01*
X131921500Y-70531290D01*
X131941185Y-70464251D01*
X131993989Y-70418496D01*
X132063147Y-70408552D01*
X132101793Y-70420804D01*
X132191588Y-70466557D01*
X132393757Y-70532246D01*
X132603713Y-70565500D01*
X132603714Y-70565500D01*
X132816286Y-70565500D01*
X132816287Y-70565500D01*
X133026243Y-70532246D01*
X133103185Y-70507245D01*
X133173022Y-70505251D01*
X133232855Y-70541331D01*
X133263684Y-70604031D01*
X133265500Y-70625177D01*
X133265500Y-71550500D01*
X133245815Y-71617539D01*
X133193011Y-71663294D01*
X133141500Y-71674500D01*
X131817129Y-71674500D01*
X131817123Y-71674501D01*
X131757516Y-71680908D01*
X131622671Y-71731202D01*
X131622664Y-71731206D01*
X131507455Y-71817452D01*
X131507452Y-71817455D01*
X131421206Y-71932664D01*
X131421202Y-71932671D01*
X131370908Y-72067517D01*
X131364501Y-72127116D01*
X131364500Y-72127135D01*
X131364500Y-73922870D01*
X131364501Y-73922876D01*
X131370908Y-73982483D01*
X131421202Y-74117328D01*
X131421206Y-74117335D01*
X131507452Y-74232544D01*
X131507455Y-74232547D01*
X131622664Y-74318793D01*
X131622671Y-74318797D01*
X131660722Y-74332989D01*
X131757517Y-74369091D01*
X131817127Y-74375500D01*
X131827685Y-74375499D01*
X131894723Y-74395179D01*
X131915372Y-74411818D01*
X132585591Y-75082037D01*
X132522007Y-75099075D01*
X132407993Y-75164901D01*
X132314901Y-75257993D01*
X132249075Y-75372007D01*
X132232037Y-75435591D01*
X131599728Y-74803282D01*
X131599727Y-74803282D01*
X131560380Y-74857439D01*
X131463904Y-75046782D01*
X131398242Y-75248869D01*
X131398242Y-75248872D01*
X131365000Y-75458753D01*
X131365000Y-75671246D01*
X131398242Y-75881127D01*
X131398242Y-75881130D01*
X131463904Y-76083217D01*
X131560375Y-76272550D01*
X131599728Y-76326716D01*
X132232037Y-75694408D01*
X132249075Y-75757993D01*
X132314901Y-75872007D01*
X132407993Y-75965099D01*
X132522007Y-76030925D01*
X132585589Y-76047962D01*
X131953282Y-76680269D01*
X131953282Y-76680270D01*
X132007452Y-76719626D01*
X132007451Y-76719626D01*
X132016495Y-76724234D01*
X132067292Y-76772208D01*
X132084087Y-76840029D01*
X132061550Y-76906164D01*
X132016499Y-76945202D01*
X132007182Y-76949949D01*
X131835213Y-77074890D01*
X131684890Y-77225213D01*
X131559951Y-77397179D01*
X131463444Y-77586585D01*
X131397753Y-77788760D01*
X131364500Y-77998713D01*
X131364500Y-78145903D01*
X131344815Y-78212942D01*
X131292011Y-78258697D01*
X131222853Y-78268641D01*
X131159297Y-78239616D01*
X131152819Y-78233584D01*
X128237116Y-75317881D01*
X129648500Y-75317881D01*
X130001119Y-75670500D01*
X130367000Y-75670500D01*
X130367000Y-75439143D01*
X130367096Y-75434271D01*
X130368254Y-75404819D01*
X130368541Y-75399954D01*
X130371619Y-75360875D01*
X130372095Y-75356038D01*
X130375555Y-75326804D01*
X130376223Y-75321980D01*
X130415594Y-75073407D01*
X130416449Y-75068619D01*
X130422189Y-75039756D01*
X130423231Y-75035004D01*
X130432379Y-74996887D01*
X130433609Y-74992171D01*
X130441611Y-74963794D01*
X130443026Y-74959130D01*
X130520809Y-74719737D01*
X130522405Y-74715136D01*
X130532604Y-74687491D01*
X130534378Y-74682956D01*
X130549380Y-74646739D01*
X130551333Y-74642276D01*
X130560224Y-74622990D01*
X130528195Y-74564333D01*
X130524233Y-74556419D01*
X130501975Y-74507682D01*
X130498587Y-74499502D01*
X130424931Y-74302018D01*
X130422452Y-74294679D01*
X130408847Y-74249828D01*
X130406832Y-74242352D01*
X130392484Y-74181637D01*
X130390939Y-74174045D01*
X130389990Y-74168500D01*
X129648500Y-74168500D01*
X129648500Y-75317881D01*
X128237116Y-75317881D01*
X125887855Y-72968620D01*
X125887853Y-72968617D01*
X125825381Y-72906145D01*
X127236764Y-72906145D01*
X127501119Y-73170500D01*
X128650500Y-73170500D01*
X128650500Y-72718500D01*
X127832890Y-72718500D01*
X127828009Y-72721109D01*
X127822574Y-72723845D01*
X127789292Y-72739586D01*
X127783728Y-72742052D01*
X127592778Y-72821145D01*
X127587101Y-72823335D01*
X127552440Y-72835737D01*
X127546662Y-72837646D01*
X127499767Y-72851872D01*
X127493903Y-72853495D01*
X127458177Y-72862445D01*
X127452235Y-72863779D01*
X127249508Y-72904104D01*
X127243511Y-72905145D01*
X127236764Y-72906145D01*
X125825381Y-72906145D01*
X125768982Y-72849746D01*
X125768981Y-72849745D01*
X125671067Y-72793215D01*
X125671066Y-72793214D01*
X125632048Y-72770687D01*
X125558776Y-72751054D01*
X125479322Y-72729764D01*
X125321208Y-72729764D01*
X125313612Y-72729764D01*
X125313596Y-72729765D01*
X123134766Y-72729765D01*
X123067727Y-72710080D01*
X123065875Y-72708867D01*
X122934185Y-72620874D01*
X122934172Y-72620867D01*
X122788501Y-72560529D01*
X122788489Y-72560526D01*
X122666829Y-72536326D01*
X122604918Y-72503941D01*
X122570344Y-72443225D01*
X122574083Y-72373456D01*
X122614950Y-72316784D01*
X122652016Y-72297003D01*
X122779334Y-72254814D01*
X122928656Y-72162712D01*
X123052712Y-72038656D01*
X123144814Y-71889334D01*
X123199999Y-71722797D01*
X123210500Y-71620009D01*
X123210499Y-70619992D01*
X123209448Y-70609707D01*
X123199999Y-70517203D01*
X123199998Y-70517200D01*
X123183946Y-70468759D01*
X123144814Y-70350666D01*
X123052712Y-70201344D01*
X122928656Y-70077288D01*
X122928655Y-70077287D01*
X122856902Y-70033029D01*
X122810178Y-69981081D01*
X122798000Y-69927491D01*
X122798000Y-69413445D01*
X122797999Y-69413442D01*
X122780931Y-69349738D01*
X122771232Y-69313539D01*
X122771232Y-69313538D01*
X122757078Y-69260718D01*
X122757077Y-69260715D01*
X122747142Y-69243508D01*
X122737112Y-69226135D01*
X122720500Y-69164136D01*
X122720500Y-69136155D01*
X122720499Y-69136153D01*
X122695508Y-69010515D01*
X122689737Y-68981503D01*
X122689735Y-68981498D01*
X122629397Y-68835827D01*
X122629390Y-68835814D01*
X122541786Y-68704706D01*
X122538606Y-68700831D01*
X122511295Y-68636520D01*
X122523089Y-68567653D01*
X122570243Y-68516095D01*
X122608515Y-68500915D01*
X122612786Y-68500000D01*
X122612797Y-68499999D01*
X122779334Y-68444814D01*
X122928656Y-68352712D01*
X123052712Y-68228656D01*
X123144814Y-68079334D01*
X123199999Y-67912797D01*
X123210500Y-67810009D01*
X123210500Y-67809986D01*
X123805001Y-67809986D01*
X123815494Y-67912697D01*
X123870641Y-68079119D01*
X123870643Y-68079124D01*
X123962684Y-68228345D01*
X124086654Y-68352315D01*
X124235875Y-68444356D01*
X124235880Y-68444358D01*
X124402302Y-68499505D01*
X124402309Y-68499506D01*
X124505019Y-68509999D01*
X124567499Y-68509998D01*
X124567500Y-68509998D01*
X124567500Y-67560000D01*
X123805001Y-67560000D01*
X123805001Y-67809986D01*
X123210500Y-67809986D01*
X123210499Y-67197595D01*
X123230183Y-67130557D01*
X123246813Y-67109920D01*
X123593321Y-66763412D01*
X123654642Y-66729929D01*
X123724334Y-66734913D01*
G37*
%TD.AperFunction*%
%TA.AperFunction,Conductor*%
G36*
X123763822Y-58940185D02*
G01*
X123809577Y-58992989D01*
X123819521Y-59062147D01*
X123816126Y-59076550D01*
X123814913Y-59082218D01*
X123804500Y-59184144D01*
X123804500Y-60195855D01*
X123814913Y-60297776D01*
X123869637Y-60462922D01*
X123869642Y-60462933D01*
X123960971Y-60610999D01*
X123960974Y-60611003D01*
X124083997Y-60734026D01*
X124158097Y-60779731D01*
X124204822Y-60831679D01*
X124217000Y-60885270D01*
X124217000Y-62307491D01*
X124197315Y-62374530D01*
X124158098Y-62413029D01*
X124086344Y-62457287D01*
X123962289Y-62581342D01*
X123870187Y-62730663D01*
X123870185Y-62730668D01*
X123861534Y-62756776D01*
X123815001Y-62897203D01*
X123815001Y-62897204D01*
X123815000Y-62897204D01*
X123804500Y-62999983D01*
X123804500Y-64000001D01*
X123804501Y-64000019D01*
X123815000Y-64102796D01*
X123815001Y-64102799D01*
X123870185Y-64269331D01*
X123870187Y-64269336D01*
X123887257Y-64297011D01*
X123933892Y-64372619D01*
X123962289Y-64418657D01*
X124058944Y-64515312D01*
X124092429Y-64576635D01*
X124087445Y-64646327D01*
X124045573Y-64702260D01*
X124003358Y-64722767D01*
X123989716Y-64726422D01*
X123989715Y-64726422D01*
X123941085Y-64754500D01*
X123941084Y-64754500D01*
X123852787Y-64805477D01*
X123852782Y-64805481D01*
X123740978Y-64917286D01*
X122868416Y-65789847D01*
X122807093Y-65823332D01*
X122737401Y-65818348D01*
X122681468Y-65776476D01*
X122666177Y-65749624D01*
X122629394Y-65660821D01*
X122629390Y-65660814D01*
X122541789Y-65529711D01*
X122541786Y-65529707D01*
X122430292Y-65418213D01*
X122430288Y-65418210D01*
X122299185Y-65330609D01*
X122299172Y-65330602D01*
X122153501Y-65270264D01*
X122153489Y-65270261D01*
X121998845Y-65239500D01*
X121998842Y-65239500D01*
X121841158Y-65239500D01*
X121841155Y-65239500D01*
X121686510Y-65270261D01*
X121686498Y-65270264D01*
X121540827Y-65330602D01*
X121540814Y-65330609D01*
X121409711Y-65418210D01*
X121409707Y-65418213D01*
X121298213Y-65529707D01*
X121298210Y-65529711D01*
X121210609Y-65660814D01*
X121210602Y-65660827D01*
X121150264Y-65806498D01*
X121150261Y-65806510D01*
X121119500Y-65961153D01*
X121119500Y-66058723D01*
X121099815Y-66125762D01*
X121047011Y-66171517D01*
X120977853Y-66181461D01*
X120956496Y-66176429D01*
X120787697Y-66120494D01*
X120787690Y-66120493D01*
X120684986Y-66110000D01*
X120622500Y-66110000D01*
X120622500Y-68509999D01*
X120684972Y-68509999D01*
X120684986Y-68509998D01*
X120787697Y-68499505D01*
X120954119Y-68444358D01*
X120954124Y-68444356D01*
X121103342Y-68352317D01*
X121196964Y-68258695D01*
X121258287Y-68225210D01*
X121327979Y-68230194D01*
X121372327Y-68258695D01*
X121466344Y-68352712D01*
X121466350Y-68352715D01*
X121471587Y-68356857D01*
X121511963Y-68413880D01*
X121515101Y-68483679D01*
X121480005Y-68544094D01*
X121463567Y-68557224D01*
X121409713Y-68593208D01*
X121409707Y-68593213D01*
X121298213Y-68704707D01*
X121298210Y-68704711D01*
X121210609Y-68835814D01*
X121210602Y-68835827D01*
X121150264Y-68981498D01*
X121150261Y-68981510D01*
X121119500Y-69136153D01*
X121119500Y-69293846D01*
X121150261Y-69448489D01*
X121150264Y-69448501D01*
X121210602Y-69594172D01*
X121210609Y-69594185D01*
X121298210Y-69725288D01*
X121298213Y-69725292D01*
X121409710Y-69836789D01*
X121463566Y-69872774D01*
X121508371Y-69926386D01*
X121517078Y-69995711D01*
X121486924Y-70058738D01*
X121471592Y-70073137D01*
X121466351Y-70077280D01*
X121372327Y-70171305D01*
X121311003Y-70204789D01*
X121241312Y-70199805D01*
X121196965Y-70171304D01*
X121103345Y-70077684D01*
X120954124Y-69985643D01*
X120954119Y-69985641D01*
X120787697Y-69930494D01*
X120787690Y-69930493D01*
X120684986Y-69920000D01*
X120622500Y-69920000D01*
X120622500Y-72319999D01*
X120684972Y-72319999D01*
X120684986Y-72319998D01*
X120787697Y-72309505D01*
X120954119Y-72254358D01*
X120954124Y-72254356D01*
X121103342Y-72162317D01*
X121196964Y-72068695D01*
X121258287Y-72035210D01*
X121327979Y-72040194D01*
X121372327Y-72068695D01*
X121466344Y-72162712D01*
X121615666Y-72254814D01*
X121782203Y-72309999D01*
X121884991Y-72320500D01*
X122277594Y-72320499D01*
X122344632Y-72340183D01*
X122390387Y-72392987D01*
X122400331Y-72462146D01*
X122371306Y-72525701D01*
X122325046Y-72559060D01*
X122175823Y-72620869D01*
X122175814Y-72620874D01*
X122044711Y-72708475D01*
X122044707Y-72708478D01*
X121933213Y-72819972D01*
X121933210Y-72819976D01*
X121845609Y-72951079D01*
X121845602Y-72951092D01*
X121785264Y-73096763D01*
X121785261Y-73096775D01*
X121754500Y-73251418D01*
X121754500Y-73409111D01*
X121785261Y-73563754D01*
X121785263Y-73563762D01*
X121794978Y-73587216D01*
X121802446Y-73656685D01*
X121771170Y-73719164D01*
X121719422Y-73752372D01*
X121665672Y-73770183D01*
X121665663Y-73770187D01*
X121516342Y-73862289D01*
X121392285Y-73986346D01*
X121390537Y-73989182D01*
X121388829Y-73990717D01*
X121387807Y-73992011D01*
X121387585Y-73991836D01*
X121338589Y-74035905D01*
X121269626Y-74047126D01*
X121205544Y-74019282D01*
X121179463Y-73989182D01*
X121177714Y-73986346D01*
X121053657Y-73862289D01*
X121053656Y-73862288D01*
X120904334Y-73770186D01*
X120737797Y-73715001D01*
X120737795Y-73715000D01*
X120635010Y-73704500D01*
X120034998Y-73704500D01*
X120034980Y-73704501D01*
X119932203Y-73715000D01*
X119932200Y-73715001D01*
X119765668Y-73770185D01*
X119765663Y-73770187D01*
X119616342Y-73862289D01*
X119557181Y-73921451D01*
X119495858Y-73954936D01*
X119426166Y-73949952D01*
X119370233Y-73908080D01*
X119345816Y-73842616D01*
X119345500Y-73833770D01*
X119345500Y-72165523D01*
X119365185Y-72098484D01*
X119417989Y-72052729D01*
X119487147Y-72042785D01*
X119550703Y-72071810D01*
X119557181Y-72077842D01*
X119641654Y-72162315D01*
X119790875Y-72254356D01*
X119790880Y-72254358D01*
X119957302Y-72309505D01*
X119957309Y-72309506D01*
X120060019Y-72319999D01*
X120122499Y-72319998D01*
X120122500Y-72319998D01*
X120122500Y-69920000D01*
X120122499Y-69919999D01*
X120060028Y-69920000D01*
X120060011Y-69920001D01*
X119957302Y-69930494D01*
X119790880Y-69985641D01*
X119790875Y-69985643D01*
X119641654Y-70077684D01*
X119557181Y-70162158D01*
X119495858Y-70195643D01*
X119426166Y-70190659D01*
X119370233Y-70148787D01*
X119345816Y-70083323D01*
X119345500Y-70074477D01*
X119345500Y-68355523D01*
X119365185Y-68288484D01*
X119417989Y-68242729D01*
X119487147Y-68232785D01*
X119550703Y-68261810D01*
X119557181Y-68267842D01*
X119641654Y-68352315D01*
X119790875Y-68444356D01*
X119790880Y-68444358D01*
X119957302Y-68499505D01*
X119957309Y-68499506D01*
X120060019Y-68509999D01*
X120122499Y-68509998D01*
X120122500Y-68509998D01*
X120122500Y-66110000D01*
X120122499Y-66109999D01*
X120060028Y-66110000D01*
X120060011Y-66110001D01*
X119957302Y-66120494D01*
X119790880Y-66175641D01*
X119790875Y-66175643D01*
X119641654Y-66267684D01*
X119557181Y-66352158D01*
X119495858Y-66385643D01*
X119426166Y-66380659D01*
X119370233Y-66338787D01*
X119345816Y-66273323D01*
X119345500Y-66264477D01*
X119345500Y-64546230D01*
X119365185Y-64479191D01*
X119417989Y-64433436D01*
X119487147Y-64423492D01*
X119550703Y-64452517D01*
X119557181Y-64458549D01*
X119641344Y-64542712D01*
X119790666Y-64634814D01*
X119957203Y-64689999D01*
X120059991Y-64700500D01*
X120685008Y-64700499D01*
X120685016Y-64700498D01*
X120685019Y-64700498D01*
X120741302Y-64694748D01*
X120787797Y-64689999D01*
X120954334Y-64634814D01*
X121103656Y-64542712D01*
X121197319Y-64449049D01*
X121258642Y-64415564D01*
X121328334Y-64420548D01*
X121372681Y-64449049D01*
X121466344Y-64542712D01*
X121615666Y-64634814D01*
X121782203Y-64689999D01*
X121884991Y-64700500D01*
X122510008Y-64700499D01*
X122510016Y-64700498D01*
X122510019Y-64700498D01*
X122566302Y-64694748D01*
X122612797Y-64689999D01*
X122779334Y-64634814D01*
X122928656Y-64542712D01*
X123052712Y-64418656D01*
X123144814Y-64269334D01*
X123199999Y-64102797D01*
X123210500Y-64000009D01*
X123210499Y-62999992D01*
X123199999Y-62897203D01*
X123176603Y-62826601D01*
X123174202Y-62756776D01*
X123191204Y-62718714D01*
X123264394Y-62609179D01*
X123324737Y-62463497D01*
X123355500Y-62308842D01*
X123355500Y-62151158D01*
X123355500Y-62151155D01*
X123355499Y-62151153D01*
X123342619Y-62086402D01*
X123324737Y-61996503D01*
X123312370Y-61966647D01*
X123264397Y-61850827D01*
X123264390Y-61850814D01*
X123176789Y-61719711D01*
X123176786Y-61719707D01*
X123065292Y-61608213D01*
X123065288Y-61608210D01*
X122934185Y-61520609D01*
X122934172Y-61520602D01*
X122788501Y-61460264D01*
X122788489Y-61460261D01*
X122633845Y-61429500D01*
X122633842Y-61429500D01*
X122476158Y-61429500D01*
X122476155Y-61429500D01*
X122321510Y-61460261D01*
X122321498Y-61460264D01*
X122175827Y-61520602D01*
X122175814Y-61520609D01*
X122044711Y-61608210D01*
X122044707Y-61608213D01*
X121933213Y-61719707D01*
X121933210Y-61719711D01*
X121845609Y-61850814D01*
X121845602Y-61850827D01*
X121785264Y-61996498D01*
X121785261Y-61996508D01*
X121754362Y-62151848D01*
X121721977Y-62213759D01*
X121720431Y-62215332D01*
X121716983Y-62218779D01*
X121716980Y-62218783D01*
X121716980Y-62218784D01*
X121681885Y-62279569D01*
X121631319Y-62327783D01*
X121562712Y-62341005D01*
X121497848Y-62315037D01*
X121457320Y-62258123D01*
X121450500Y-62217567D01*
X121450500Y-62151155D01*
X121450499Y-62151153D01*
X121437619Y-62086402D01*
X121419737Y-61996503D01*
X121407370Y-61966647D01*
X121359397Y-61850827D01*
X121359390Y-61850814D01*
X121271789Y-61719711D01*
X121271786Y-61719707D01*
X121160292Y-61608213D01*
X121160288Y-61608210D01*
X121029185Y-61520609D01*
X121029172Y-61520602D01*
X120883501Y-61460264D01*
X120883489Y-61460261D01*
X120728845Y-61429500D01*
X120728842Y-61429500D01*
X120571158Y-61429500D01*
X120571155Y-61429500D01*
X120416510Y-61460261D01*
X120416498Y-61460264D01*
X120270827Y-61520602D01*
X120270811Y-61520611D01*
X120242389Y-61539602D01*
X120175712Y-61560479D01*
X120108332Y-61541994D01*
X120061642Y-61490014D01*
X120050467Y-61421044D01*
X120070398Y-61367608D01*
X120089394Y-61339179D01*
X120149737Y-61193497D01*
X120175004Y-61066474D01*
X120180638Y-61038150D01*
X120213023Y-60976239D01*
X120214518Y-60974716D01*
X120263035Y-60926199D01*
X120324356Y-60892716D01*
X120338112Y-60890524D01*
X120338347Y-60890500D01*
X120338348Y-60890500D01*
X120440275Y-60880087D01*
X120605425Y-60825362D01*
X120753503Y-60734026D01*
X120876526Y-60611003D01*
X120877255Y-60609821D01*
X120877966Y-60609181D01*
X120881007Y-60605336D01*
X120881663Y-60605855D01*
X120929201Y-60563097D01*
X120998164Y-60551873D01*
X121062246Y-60579715D01*
X121084261Y-60605123D01*
X121084388Y-60605023D01*
X121086613Y-60607838D01*
X121088333Y-60609822D01*
X121088865Y-60610685D01*
X121088869Y-60610690D01*
X121211808Y-60733629D01*
X121359785Y-60824903D01*
X121359790Y-60824905D01*
X121524826Y-60879592D01*
X121626684Y-60889999D01*
X121626697Y-60890000D01*
X121670000Y-60890000D01*
X122170000Y-60890000D01*
X122213303Y-60890000D01*
X122213315Y-60889999D01*
X122315173Y-60879592D01*
X122480209Y-60824905D01*
X122480214Y-60824903D01*
X122628191Y-60733629D01*
X122751129Y-60610691D01*
X122842403Y-60462714D01*
X122842405Y-60462709D01*
X122897092Y-60297673D01*
X122907499Y-60195815D01*
X122907500Y-60195802D01*
X122907500Y-59940000D01*
X122170000Y-59940000D01*
X122170000Y-60890000D01*
X121670000Y-60890000D01*
X121670000Y-59814000D01*
X121689685Y-59746961D01*
X121742489Y-59701206D01*
X121794000Y-59690000D01*
X121920000Y-59690000D01*
X121920000Y-59564000D01*
X121939685Y-59496961D01*
X121992489Y-59451206D01*
X122044000Y-59440000D01*
X122907500Y-59440000D01*
X122907500Y-59184197D01*
X122907499Y-59184184D01*
X122897093Y-59082332D01*
X122895676Y-59075712D01*
X122897202Y-59075385D01*
X122895083Y-59013668D01*
X122930818Y-58953629D01*
X122993341Y-58922440D01*
X123015189Y-58920500D01*
X123696783Y-58920500D01*
X123763822Y-58940185D01*
G37*
%TD.AperFunction*%
%TA.AperFunction,Conductor*%
G36*
X126230476Y-65906185D02*
G01*
X126276231Y-65958989D01*
X126286175Y-66028147D01*
X126257150Y-66091703D01*
X126202442Y-66128206D01*
X126060666Y-66175186D01*
X126060663Y-66175187D01*
X125911345Y-66267287D01*
X125817327Y-66361305D01*
X125756003Y-66394789D01*
X125686312Y-66389805D01*
X125641965Y-66361304D01*
X125548345Y-66267684D01*
X125399124Y-66175643D01*
X125399119Y-66175641D01*
X125255968Y-66128206D01*
X125198523Y-66088434D01*
X125171700Y-66023918D01*
X125184015Y-65955142D01*
X125231558Y-65903942D01*
X125294972Y-65886500D01*
X126163437Y-65886500D01*
X126230476Y-65906185D01*
G37*
%TD.AperFunction*%
%TA.AperFunction,Conductor*%
G36*
X133825270Y-64896717D02*
G01*
X133825270Y-64896716D01*
X133864622Y-64842554D01*
X133885015Y-64802532D01*
X133932989Y-64751736D01*
X134000810Y-64734941D01*
X134066945Y-64757478D01*
X134110397Y-64812193D01*
X134119500Y-64858827D01*
X134119500Y-65308143D01*
X134099815Y-65375182D01*
X134047011Y-65420937D01*
X133977853Y-65430881D01*
X133914297Y-65401856D01*
X133907819Y-65395824D01*
X133436350Y-64924355D01*
X133436348Y-64924352D01*
X133317477Y-64805481D01*
X133317476Y-64805480D01*
X133229175Y-64754500D01*
X133180545Y-64726423D01*
X133027817Y-64685499D01*
X132958307Y-64685499D01*
X132891268Y-64665814D01*
X132870626Y-64649180D01*
X132839408Y-64617962D01*
X132902993Y-64600925D01*
X133017007Y-64535099D01*
X133110099Y-64442007D01*
X133175925Y-64327993D01*
X133192962Y-64264409D01*
X133825270Y-64896717D01*
G37*
%TD.AperFunction*%
%TA.AperFunction,Conductor*%
G36*
X131326177Y-58940185D02*
G01*
X131346819Y-58956819D01*
X134083181Y-61693181D01*
X134116666Y-61754504D01*
X134119500Y-61780862D01*
X134119500Y-63411172D01*
X134099815Y-63478211D01*
X134047011Y-63523966D01*
X133977853Y-63533910D01*
X133914297Y-63504885D01*
X133885016Y-63467468D01*
X133864626Y-63427452D01*
X133825270Y-63373282D01*
X133825269Y-63373282D01*
X133192962Y-64005590D01*
X133175925Y-63942007D01*
X133110099Y-63827993D01*
X133017007Y-63734901D01*
X132902993Y-63669075D01*
X132839409Y-63652037D01*
X133471716Y-63019728D01*
X133417550Y-62980375D01*
X133228217Y-62883904D01*
X133026129Y-62818242D01*
X132816246Y-62785000D01*
X132603754Y-62785000D01*
X132393872Y-62818242D01*
X132393869Y-62818242D01*
X132191782Y-62883904D01*
X132002439Y-62980380D01*
X131948282Y-63019727D01*
X131948282Y-63019728D01*
X132580591Y-63652037D01*
X132517007Y-63669075D01*
X132402993Y-63734901D01*
X132309901Y-63827993D01*
X132244075Y-63942007D01*
X132227037Y-64005591D01*
X131556818Y-63335372D01*
X131523333Y-63274049D01*
X131520499Y-63247691D01*
X131520499Y-63237129D01*
X131520498Y-63237123D01*
X131520497Y-63237116D01*
X131514091Y-63177517D01*
X131484618Y-63098497D01*
X131463797Y-63042671D01*
X131463793Y-63042664D01*
X131377547Y-62927455D01*
X131377544Y-62927452D01*
X131262335Y-62841206D01*
X131262328Y-62841202D01*
X131127482Y-62790908D01*
X131127483Y-62790908D01*
X131067883Y-62784501D01*
X131067881Y-62784500D01*
X131067873Y-62784500D01*
X131067864Y-62784500D01*
X129272129Y-62784500D01*
X129272123Y-62784501D01*
X129212516Y-62790908D01*
X129077671Y-62841202D01*
X129077664Y-62841206D01*
X128962455Y-62927452D01*
X128962452Y-62927455D01*
X128876206Y-63042664D01*
X128876202Y-63042671D01*
X128825908Y-63177517D01*
X128819501Y-63237116D01*
X128819501Y-63237123D01*
X128819500Y-63237135D01*
X128819500Y-63410500D01*
X128799815Y-63477539D01*
X128747011Y-63523294D01*
X128695500Y-63534500D01*
X128272670Y-63534500D01*
X128272654Y-63534499D01*
X128265058Y-63534499D01*
X128106943Y-63534499D01*
X128005125Y-63561781D01*
X127954215Y-63575423D01*
X127841498Y-63640500D01*
X127773598Y-63656972D01*
X127707571Y-63634119D01*
X127664381Y-63579197D01*
X127655499Y-63533112D01*
X127655499Y-62999998D01*
X127655498Y-62999981D01*
X127644999Y-62897203D01*
X127644998Y-62897200D01*
X127622158Y-62828274D01*
X127589814Y-62730666D01*
X127555171Y-62674501D01*
X127499718Y-62584596D01*
X127481278Y-62517204D01*
X127502201Y-62450541D01*
X127555843Y-62405771D01*
X127605257Y-62395500D01*
X127713844Y-62395500D01*
X127713845Y-62395499D01*
X127868497Y-62364737D01*
X128003436Y-62308844D01*
X128014172Y-62304397D01*
X128014172Y-62304396D01*
X128014179Y-62304394D01*
X128145289Y-62216789D01*
X128256789Y-62105289D01*
X128344394Y-61974179D01*
X128404737Y-61828497D01*
X128435500Y-61673842D01*
X128435500Y-61516158D01*
X128435500Y-61516155D01*
X128435499Y-61516153D01*
X128420619Y-61441349D01*
X128404737Y-61361503D01*
X128395487Y-61339172D01*
X128344397Y-61215827D01*
X128344390Y-61215814D01*
X128256789Y-61084711D01*
X128256786Y-61084707D01*
X128145292Y-60973213D01*
X128145288Y-60973210D01*
X128014185Y-60885609D01*
X128014172Y-60885602D01*
X127868501Y-60825264D01*
X127868489Y-60825261D01*
X127713151Y-60794362D01*
X127651240Y-60761977D01*
X127649706Y-60760471D01*
X127568816Y-60679581D01*
X127563857Y-60670500D01*
X129648500Y-60670500D01*
X131150500Y-60670500D01*
X131150500Y-60350076D01*
X130718924Y-59918500D01*
X129648500Y-59918500D01*
X129648500Y-60670500D01*
X127563857Y-60670500D01*
X127535332Y-60618259D01*
X127540316Y-60548567D01*
X127550958Y-60526807D01*
X127577157Y-60484334D01*
X127590360Y-60462929D01*
X127590360Y-60462927D01*
X127590362Y-60462925D01*
X127645087Y-60297775D01*
X127655500Y-60195848D01*
X127655500Y-59184152D01*
X127645087Y-59082225D01*
X127645086Y-59082223D01*
X127645086Y-59082218D01*
X127643670Y-59075602D01*
X127645228Y-59075268D01*
X127643109Y-59013678D01*
X127678839Y-58953635D01*
X127741359Y-58922442D01*
X127763217Y-58920500D01*
X131259138Y-58920500D01*
X131326177Y-58940185D01*
G37*
%TD.AperFunction*%
%TA.AperFunction,Conductor*%
G36*
X94262633Y-58940185D02*
G01*
X94308388Y-58992989D01*
X94318332Y-59062147D01*
X94298707Y-59108092D01*
X94301042Y-59109504D01*
X94213927Y-59253607D01*
X94166067Y-59407197D01*
X94166064Y-59407207D01*
X94163085Y-59439999D01*
X94163085Y-59440000D01*
X96781915Y-59440000D01*
X96781914Y-59439999D01*
X96778935Y-59407207D01*
X96778932Y-59407197D01*
X96731072Y-59253607D01*
X96643958Y-59109504D01*
X96646593Y-59107910D01*
X96625946Y-59056055D01*
X96639297Y-58987473D01*
X96687608Y-58936997D01*
X96749406Y-58920500D01*
X101370594Y-58920500D01*
X101437633Y-58940185D01*
X101483388Y-58992989D01*
X101493332Y-59062147D01*
X101473707Y-59108092D01*
X101476042Y-59109504D01*
X101388927Y-59253607D01*
X101341067Y-59407197D01*
X101341064Y-59407207D01*
X101338085Y-59439999D01*
X101338085Y-59440000D01*
X103956915Y-59440000D01*
X103956914Y-59439999D01*
X103953935Y-59407207D01*
X103953932Y-59407197D01*
X103906072Y-59253607D01*
X103818958Y-59109504D01*
X103821593Y-59107910D01*
X103800946Y-59056055D01*
X103814297Y-58987473D01*
X103862608Y-58936997D01*
X103924406Y-58920500D01*
X104297667Y-58920500D01*
X104364706Y-58940185D01*
X104410461Y-58992989D01*
X104421025Y-59057102D01*
X104410000Y-59165011D01*
X104410000Y-59440000D01*
X105286000Y-59440000D01*
X105353039Y-59459685D01*
X105398794Y-59512489D01*
X105410000Y-59564000D01*
X105410000Y-59690000D01*
X105536000Y-59690000D01*
X105603039Y-59709685D01*
X105648794Y-59762489D01*
X105660000Y-59814000D01*
X105660000Y-60914999D01*
X105709972Y-60914999D01*
X105709986Y-60914998D01*
X105812697Y-60904505D01*
X105979119Y-60849358D01*
X105979124Y-60849356D01*
X106128345Y-60757315D01*
X106252318Y-60633342D01*
X106254165Y-60630348D01*
X106255969Y-60628724D01*
X106256798Y-60627677D01*
X106256976Y-60627818D01*
X106306110Y-60583621D01*
X106375073Y-60572396D01*
X106439156Y-60600236D01*
X106465243Y-60630341D01*
X106467288Y-60633656D01*
X106591344Y-60757712D01*
X106740666Y-60849814D01*
X106907203Y-60904999D01*
X107009991Y-60915500D01*
X107610008Y-60915499D01*
X107610016Y-60915498D01*
X107610019Y-60915498D01*
X107666302Y-60909748D01*
X107712797Y-60904999D01*
X107859447Y-60856403D01*
X107929273Y-60854002D01*
X107989315Y-60889733D01*
X108020508Y-60952254D01*
X108012948Y-61021713D01*
X107986132Y-61061790D01*
X107963208Y-61084714D01*
X107875609Y-61215814D01*
X107875602Y-61215827D01*
X107815264Y-61361498D01*
X107815261Y-61361510D01*
X107784500Y-61516153D01*
X107784500Y-61673846D01*
X107815261Y-61828489D01*
X107815264Y-61828501D01*
X107875602Y-61974172D01*
X107875609Y-61974185D01*
X107963210Y-62105288D01*
X107963213Y-62105292D01*
X108074707Y-62216786D01*
X108074711Y-62216789D01*
X108205814Y-62304390D01*
X108205827Y-62304397D01*
X108351498Y-62364735D01*
X108351503Y-62364737D01*
X108490141Y-62392314D01*
X108506153Y-62395499D01*
X108506156Y-62395500D01*
X108506158Y-62395500D01*
X108663844Y-62395500D01*
X108663845Y-62395499D01*
X108818497Y-62364737D01*
X108953436Y-62308844D01*
X108964172Y-62304397D01*
X108964172Y-62304396D01*
X108964179Y-62304394D01*
X109095289Y-62216789D01*
X109206789Y-62105289D01*
X109294394Y-61974179D01*
X109354737Y-61828497D01*
X109385500Y-61673842D01*
X109385500Y-61516158D01*
X109385500Y-61516155D01*
X109385499Y-61516153D01*
X109367335Y-61424834D01*
X109373562Y-61355243D01*
X109401269Y-61312964D01*
X109764138Y-60950095D01*
X109825459Y-60916612D01*
X109864421Y-60914420D01*
X109874991Y-60915500D01*
X110475008Y-60915499D01*
X110475016Y-60915498D01*
X110475019Y-60915498D01*
X110531302Y-60909748D01*
X110577797Y-60904999D01*
X110744334Y-60849814D01*
X110893656Y-60757712D01*
X111017712Y-60633656D01*
X111019461Y-60630819D01*
X111021169Y-60629283D01*
X111022193Y-60627989D01*
X111022414Y-60628163D01*
X111071406Y-60584096D01*
X111140368Y-60572872D01*
X111204451Y-60600713D01*
X111230537Y-60630817D01*
X111232288Y-60633656D01*
X111356344Y-60757712D01*
X111505666Y-60849814D01*
X111672203Y-60904999D01*
X111774991Y-60915500D01*
X112375008Y-60915499D01*
X112375016Y-60915498D01*
X112375019Y-60915498D01*
X112431302Y-60909748D01*
X112477797Y-60904999D01*
X112644334Y-60849814D01*
X112793656Y-60757712D01*
X112917712Y-60633656D01*
X113009814Y-60484334D01*
X113045879Y-60375496D01*
X113085652Y-60318052D01*
X113150168Y-60291229D01*
X113163585Y-60290501D01*
X113274054Y-60290501D01*
X113274057Y-60290501D01*
X113426785Y-60249577D01*
X113486660Y-60215008D01*
X113563716Y-60170520D01*
X113675520Y-60058716D01*
X113675521Y-60058713D01*
X113679661Y-60054572D01*
X113740984Y-60021088D01*
X113743152Y-60020637D01*
X113743841Y-60020500D01*
X113743842Y-60020500D01*
X113898497Y-59989737D01*
X114044179Y-59929394D01*
X114062108Y-59917413D01*
X114128782Y-59896535D01*
X114196163Y-59915017D01*
X114242855Y-59966994D01*
X114255000Y-60020514D01*
X114255000Y-60214970D01*
X114255001Y-60214987D01*
X114265494Y-60317697D01*
X114320641Y-60484119D01*
X114320643Y-60484124D01*
X114412684Y-60633345D01*
X114536654Y-60757315D01*
X114685875Y-60849356D01*
X114685880Y-60849358D01*
X114852302Y-60904505D01*
X114852309Y-60904506D01*
X114955019Y-60914999D01*
X115004999Y-60914998D01*
X115005000Y-60914998D01*
X115005000Y-59814000D01*
X115024685Y-59746961D01*
X115077489Y-59701206D01*
X115129000Y-59690000D01*
X115381000Y-59690000D01*
X115448039Y-59709685D01*
X115493794Y-59762489D01*
X115505000Y-59814000D01*
X115505000Y-60914999D01*
X115554972Y-60914999D01*
X115554986Y-60914998D01*
X115657697Y-60904505D01*
X115824119Y-60849358D01*
X115824124Y-60849356D01*
X115973345Y-60757315D01*
X116097318Y-60633342D01*
X116099165Y-60630348D01*
X116100969Y-60628724D01*
X116101798Y-60627677D01*
X116101976Y-60627818D01*
X116151110Y-60583621D01*
X116220073Y-60572396D01*
X116284156Y-60600236D01*
X116310243Y-60630341D01*
X116312288Y-60633656D01*
X116436344Y-60757712D01*
X116585666Y-60849814D01*
X116752203Y-60904999D01*
X116854991Y-60915500D01*
X117455008Y-60915499D01*
X117455016Y-60915498D01*
X117455019Y-60915498D01*
X117511302Y-60909748D01*
X117557797Y-60904999D01*
X117724334Y-60849814D01*
X117873656Y-60757712D01*
X117997712Y-60633656D01*
X118049680Y-60549402D01*
X118101627Y-60502679D01*
X118155218Y-60490500D01*
X118188844Y-60490500D01*
X118188845Y-60490499D01*
X118343497Y-60459737D01*
X118459450Y-60411708D01*
X118489172Y-60399397D01*
X118489172Y-60399396D01*
X118489179Y-60399394D01*
X118517607Y-60380398D01*
X118584283Y-60359520D01*
X118651664Y-60378003D01*
X118698355Y-60429981D01*
X118709533Y-60498951D01*
X118689602Y-60552389D01*
X118670611Y-60580811D01*
X118670602Y-60580827D01*
X118610264Y-60726498D01*
X118610261Y-60726510D01*
X118579500Y-60881153D01*
X118579500Y-61038846D01*
X118610261Y-61193489D01*
X118610264Y-61193501D01*
X118670602Y-61339172D01*
X118670609Y-61339185D01*
X118758210Y-61470288D01*
X118758213Y-61470292D01*
X118869707Y-61581786D01*
X118869711Y-61581789D01*
X119000814Y-61669390D01*
X119000827Y-61669397D01*
X119113790Y-61716187D01*
X119146503Y-61729737D01*
X119298358Y-61759943D01*
X119301153Y-61760499D01*
X119301156Y-61760500D01*
X119301158Y-61760500D01*
X119458844Y-61760500D01*
X119458845Y-61760499D01*
X119613497Y-61729737D01*
X119748436Y-61673844D01*
X119759172Y-61669397D01*
X119759172Y-61669396D01*
X119759179Y-61669394D01*
X119787607Y-61650398D01*
X119854283Y-61629520D01*
X119921664Y-61648003D01*
X119968355Y-61699981D01*
X119979533Y-61768951D01*
X119959602Y-61822389D01*
X119940611Y-61850811D01*
X119940602Y-61850827D01*
X119880264Y-61996498D01*
X119880261Y-61996510D01*
X119849500Y-62151153D01*
X119849500Y-62179136D01*
X119832887Y-62241137D01*
X119812922Y-62275715D01*
X119812922Y-62275716D01*
X119801358Y-62318872D01*
X119764992Y-62378531D01*
X119746682Y-62392314D01*
X119641344Y-62457287D01*
X119517287Y-62581344D01*
X119501006Y-62607741D01*
X119449058Y-62654465D01*
X119380095Y-62665686D01*
X119316013Y-62637843D01*
X119288081Y-62604643D01*
X119225522Y-62496287D01*
X119225518Y-62496282D01*
X118917079Y-62187843D01*
X118597589Y-61868354D01*
X118597588Y-61868352D01*
X118478717Y-61749481D01*
X118478709Y-61749475D01*
X118373773Y-61688891D01*
X118373772Y-61688890D01*
X118373772Y-61688891D01*
X118341785Y-61670423D01*
X118337930Y-61669390D01*
X118189057Y-61629499D01*
X118030943Y-61629499D01*
X118023347Y-61629499D01*
X118023331Y-61629500D01*
X111291669Y-61629500D01*
X111291653Y-61629499D01*
X111284057Y-61629499D01*
X111125943Y-61629499D01*
X111013483Y-61659633D01*
X110973214Y-61670423D01*
X110941228Y-61688891D01*
X110941227Y-61688891D01*
X110836287Y-61749477D01*
X110836282Y-61749481D01*
X110724478Y-61861286D01*
X110064957Y-62520806D01*
X110003634Y-62554291D01*
X109958174Y-62553214D01*
X109957911Y-62555213D01*
X109949854Y-62554152D01*
X109838561Y-62539500D01*
X109351437Y-62539500D01*
X109240153Y-62554150D01*
X109240145Y-62554152D01*
X109101670Y-62611510D01*
X108982754Y-62702757D01*
X108891511Y-62821668D01*
X108891510Y-62821669D01*
X108890980Y-62822951D01*
X108890242Y-62823866D01*
X108887445Y-62828711D01*
X108886689Y-62828274D01*
X108847140Y-62877355D01*
X108780846Y-62899421D01*
X108776418Y-62899500D01*
X107604050Y-62899500D01*
X107537011Y-62879815D01*
X107491256Y-62827011D01*
X107481846Y-62792100D01*
X107481689Y-62792132D01*
X107481221Y-62789779D01*
X107480646Y-62787646D01*
X107480500Y-62786166D01*
X107480500Y-62786158D01*
X107480457Y-62785943D01*
X107458290Y-62674500D01*
X107449737Y-62631503D01*
X107430308Y-62584596D01*
X107389397Y-62485827D01*
X107389390Y-62485814D01*
X107301789Y-62354711D01*
X107301786Y-62354707D01*
X107190292Y-62243213D01*
X107190288Y-62243210D01*
X107059185Y-62155609D01*
X107059172Y-62155602D01*
X106913501Y-62095264D01*
X106913491Y-62095261D01*
X106758149Y-62064361D01*
X106696238Y-62031976D01*
X106694660Y-62030425D01*
X106532590Y-61868355D01*
X106532588Y-61868352D01*
X106413717Y-61749481D01*
X106413709Y-61749475D01*
X106308773Y-61688891D01*
X106308772Y-61688890D01*
X106308772Y-61688891D01*
X106276785Y-61670423D01*
X106272930Y-61669390D01*
X106124057Y-61629499D01*
X105965943Y-61629499D01*
X105958347Y-61629499D01*
X105958331Y-61629500D01*
X103985596Y-61629500D01*
X103918557Y-61609815D01*
X103872802Y-61557011D01*
X103862858Y-61487853D01*
X103879480Y-61441349D01*
X103886643Y-61429500D01*
X103906531Y-61396602D01*
X103954430Y-61242887D01*
X103960500Y-61176091D01*
X103960499Y-60743910D01*
X103960499Y-60743909D01*
X103960499Y-60743901D01*
X103954431Y-60677117D01*
X103954428Y-60677106D01*
X103906532Y-60523400D01*
X103906531Y-60523398D01*
X103869976Y-60462929D01*
X103825081Y-60388664D01*
X103807245Y-60321112D01*
X103825082Y-60260365D01*
X103852515Y-60214986D01*
X104410001Y-60214986D01*
X104420494Y-60317697D01*
X104475641Y-60484119D01*
X104475643Y-60484124D01*
X104567684Y-60633345D01*
X104691654Y-60757315D01*
X104840875Y-60849356D01*
X104840880Y-60849358D01*
X105007302Y-60904505D01*
X105007309Y-60904506D01*
X105110019Y-60914999D01*
X105159999Y-60914998D01*
X105160000Y-60914998D01*
X105160000Y-59940000D01*
X104410001Y-59940000D01*
X104410001Y-60214986D01*
X103852515Y-60214986D01*
X103906071Y-60126394D01*
X103906072Y-60126393D01*
X103953932Y-59972802D01*
X103953935Y-59972792D01*
X103956914Y-59940000D01*
X101338085Y-59940000D01*
X101341064Y-59972792D01*
X101341067Y-59972802D01*
X101388927Y-60126393D01*
X101416105Y-60171350D01*
X101433941Y-60238905D01*
X101412423Y-60305379D01*
X101358383Y-60349666D01*
X101309988Y-60359500D01*
X96810012Y-60359500D01*
X96742973Y-60339815D01*
X96697218Y-60287011D01*
X96687274Y-60217853D01*
X96703895Y-60171350D01*
X96731072Y-60126393D01*
X96778932Y-59972802D01*
X96778935Y-59972792D01*
X96781914Y-59940000D01*
X94163085Y-59940000D01*
X94166064Y-59972792D01*
X94166067Y-59972802D01*
X94213927Y-60126392D01*
X94294918Y-60260366D01*
X94312754Y-60327920D01*
X94294918Y-60388665D01*
X94288431Y-60399397D01*
X94213469Y-60523397D01*
X94165569Y-60677116D01*
X94159500Y-60743911D01*
X94159500Y-61176098D01*
X94165568Y-61242882D01*
X94165571Y-61242893D01*
X94213467Y-61396598D01*
X94213468Y-61396600D01*
X94213469Y-61396602D01*
X94294918Y-61531335D01*
X94312754Y-61598887D01*
X94294918Y-61659633D01*
X94213927Y-61793607D01*
X94166067Y-61947197D01*
X94166064Y-61947207D01*
X94163085Y-61979999D01*
X94163085Y-61980000D01*
X95348500Y-61980000D01*
X95415539Y-61999685D01*
X95461294Y-62052489D01*
X95472500Y-62104000D01*
X95472500Y-62356000D01*
X95452815Y-62423039D01*
X95400011Y-62468794D01*
X95348500Y-62480000D01*
X94163085Y-62480000D01*
X94166064Y-62512792D01*
X94166067Y-62512802D01*
X94213927Y-62666393D01*
X94241105Y-62711350D01*
X94258941Y-62778905D01*
X94237423Y-62845379D01*
X94183383Y-62889666D01*
X94134988Y-62899500D01*
X90891670Y-62899500D01*
X90891654Y-62899499D01*
X90884058Y-62899499D01*
X90725943Y-62899499D01*
X90649579Y-62919961D01*
X90573214Y-62940423D01*
X90573209Y-62940426D01*
X90436290Y-63019475D01*
X90436282Y-63019481D01*
X89689479Y-63766284D01*
X89665452Y-63807903D01*
X89665450Y-63807905D01*
X89631886Y-63866038D01*
X89581319Y-63914253D01*
X89512712Y-63927475D01*
X89447847Y-63901507D01*
X89407319Y-63844592D01*
X89400500Y-63804037D01*
X89400500Y-61780862D01*
X89420185Y-61713823D01*
X89436819Y-61693181D01*
X90558924Y-60571076D01*
X92148500Y-60571076D01*
X92148500Y-60670500D01*
X93164156Y-60670500D01*
X93164352Y-60667629D01*
X93164574Y-60664835D01*
X93174054Y-60560513D01*
X93174819Y-60554003D01*
X93180490Y-60514754D01*
X93181598Y-60508295D01*
X93191894Y-60456532D01*
X93193343Y-60450138D01*
X93203124Y-60411708D01*
X93204907Y-60405404D01*
X93230222Y-60324158D01*
X93205402Y-60244506D01*
X93203617Y-60238198D01*
X93193835Y-60199761D01*
X93192387Y-60193367D01*
X93182091Y-60141599D01*
X93180983Y-60135141D01*
X93175313Y-60095894D01*
X93174548Y-60089385D01*
X93159021Y-59918500D01*
X92801076Y-59918500D01*
X92148500Y-60571076D01*
X90558924Y-60571076D01*
X92173181Y-58956819D01*
X92234504Y-58923334D01*
X92260862Y-58920500D01*
X94195594Y-58920500D01*
X94262633Y-58940185D01*
G37*
%TD.AperFunction*%
%TA.AperFunction,Conductor*%
G36*
X97377942Y-61580185D02*
G01*
X97423697Y-61632989D01*
X97433641Y-61702147D01*
X97404616Y-61765703D01*
X97398584Y-61772181D01*
X96996681Y-62174083D01*
X96935358Y-62207568D01*
X96865666Y-62202584D01*
X96809733Y-62160712D01*
X96785316Y-62095248D01*
X96785000Y-62086402D01*
X96785000Y-62013956D01*
X96778934Y-61947207D01*
X96731070Y-61793603D01*
X96703895Y-61748650D01*
X96686059Y-61681095D01*
X96707577Y-61614621D01*
X96761617Y-61570334D01*
X96810012Y-61560500D01*
X97310903Y-61560500D01*
X97377942Y-61580185D01*
G37*
%TD.AperFunction*%
%TD*%
M02*
