%TF.GenerationSoftware,KiCad,Pcbnew,9.0.4*%
%TF.CreationDate,2025-09-30T03:14:49+08:00*%
%TF.ProjectId,MCU Datalogger,4d435520-4461-4746-916c-6f676765722e,1*%
%TF.SameCoordinates,Original*%
%TF.FileFunction,Soldermask,Top*%
%TF.FilePolarity,Negative*%
%FSLAX46Y46*%
G04 Gerber Fmt 4.6, Leading zero omitted, Abs format (unit mm)*
G04 Created by KiCad (PCBNEW 9.0.4) date 2025-09-30 03:14:49*
%MOMM*%
%LPD*%
G01*
G04 APERTURE LIST*
G04 Aperture macros list*
%AMRoundRect*
0 Rectangle with rounded corners*
0 $1 Rounding radius*
0 $2 $3 $4 $5 $6 $7 $8 $9 X,Y pos of 4 corners*
0 Add a 4 corners polygon primitive as box body*
4,1,4,$2,$3,$4,$5,$6,$7,$8,$9,$2,$3,0*
0 Add four circle primitives for the rounded corners*
1,1,$1+$1,$2,$3*
1,1,$1+$1,$4,$5*
1,1,$1+$1,$6,$7*
1,1,$1+$1,$8,$9*
0 Add four rect primitives between the rounded corners*
20,1,$1+$1,$2,$3,$4,$5,0*
20,1,$1+$1,$4,$5,$6,$7,0*
20,1,$1+$1,$6,$7,$8,$9,0*
20,1,$1+$1,$8,$9,$2,$3,0*%
G04 Aperture macros list end*
%ADD10R,1.700000X1.700000*%
%ADD11C,1.700000*%
%ADD12RoundRect,0.250000X0.262500X0.450000X-0.262500X0.450000X-0.262500X-0.450000X0.262500X-0.450000X0*%
%ADD13RoundRect,0.250001X1.499999X0.949999X-1.499999X0.949999X-1.499999X-0.949999X1.499999X-0.949999X0*%
%ADD14RoundRect,0.094250X-0.282750X-0.742750X0.282750X-0.742750X0.282750X0.742750X-0.282750X0.742750X0*%
%ADD15RoundRect,0.094250X-0.742750X-0.282750X0.742750X-0.282750X0.742750X0.282750X-0.742750X0.282750X0*%
%ADD16RoundRect,0.250000X-0.262500X-0.450000X0.262500X-0.450000X0.262500X0.450000X-0.262500X0.450000X0*%
%ADD17RoundRect,0.099250X-0.987750X-0.297750X0.987750X-0.297750X0.987750X0.297750X-0.987750X0.297750X0*%
%ADD18RoundRect,0.162500X-0.650000X-0.162500X0.650000X-0.162500X0.650000X0.162500X-0.650000X0.162500X0*%
%ADD19RoundRect,0.243750X-0.243750X-0.456250X0.243750X-0.456250X0.243750X0.456250X-0.243750X0.456250X0*%
%ADD20RoundRect,0.250000X-0.250000X-0.475000X0.250000X-0.475000X0.250000X0.475000X-0.250000X0.475000X0*%
%ADD21C,2.100000*%
%ADD22RoundRect,0.250001X0.949999X-1.499999X0.949999X1.499999X-0.949999X1.499999X-0.949999X-1.499999X0*%
G04 APERTURE END LIST*
D10*
%TO.C,J3*%
X120015000Y-84455000D03*
D11*
X122555000Y-84455000D03*
X125095000Y-84455000D03*
X127635000Y-84455000D03*
%TD*%
%TO.C,J1*%
X114935000Y-84455000D03*
X112395000Y-84455000D03*
X109855000Y-84455000D03*
X107315000Y-84455000D03*
X104775000Y-84455000D03*
X102235000Y-84455000D03*
X99695000Y-84455000D03*
X97155000Y-84455000D03*
D10*
X94615000Y-84455000D03*
%TD*%
D12*
%TO.C,R5*%
X124817500Y-63500000D03*
X126642500Y-63500000D03*
%TD*%
D13*
%TO.C,Y2*%
X109795000Y-76835000D03*
X114995000Y-76835000D03*
%TD*%
D14*
%TO.C,U4*%
X109595000Y-63775000D03*
X110395000Y-63775000D03*
X111195000Y-63775000D03*
X111995000Y-63775000D03*
X112795000Y-63775000D03*
X113595000Y-63775000D03*
X114395000Y-63775000D03*
X115195000Y-63775000D03*
D15*
X116565000Y-65145000D03*
X116565000Y-65945000D03*
X116565000Y-66745000D03*
X116565000Y-67545000D03*
X116565000Y-68345000D03*
X116565000Y-69145000D03*
X116565000Y-69945000D03*
X116565000Y-70745000D03*
D14*
X115195000Y-72115000D03*
X114395000Y-72115000D03*
X113595000Y-72115000D03*
X112795000Y-72115000D03*
X111995000Y-72115000D03*
X111195000Y-72115000D03*
X110395000Y-72115000D03*
X109595000Y-72115000D03*
D15*
X108225000Y-70745000D03*
X108225000Y-69945000D03*
X108225000Y-69145000D03*
X108225000Y-68345000D03*
X108225000Y-67545000D03*
X108225000Y-66745000D03*
X108225000Y-65945000D03*
X108225000Y-65145000D03*
%TD*%
D16*
%TO.C,R1*%
X98067500Y-80010000D03*
X96242500Y-80010000D03*
%TD*%
D17*
%TO.C,U2*%
X101535000Y-73660000D03*
X101535000Y-74930000D03*
X101535000Y-76200000D03*
X101535000Y-77470000D03*
X96585000Y-77470000D03*
X96585000Y-76200000D03*
X96585000Y-74930000D03*
X96585000Y-73660000D03*
%TD*%
D18*
%TO.C,U1*%
X95472500Y-66675000D03*
X95472500Y-67945000D03*
X95472500Y-69215000D03*
X95472500Y-70485000D03*
X102647500Y-70485000D03*
X102647500Y-69215000D03*
X102647500Y-67945000D03*
X102647500Y-66675000D03*
%TD*%
%TO.C,U3*%
X102647500Y-59690000D03*
X102647500Y-60960000D03*
X102647500Y-62230000D03*
X102647500Y-63500000D03*
X95472500Y-63500000D03*
X95472500Y-62230000D03*
X95472500Y-60960000D03*
X95472500Y-59690000D03*
%TD*%
D19*
%TO.C,D1*%
X124792500Y-59690000D03*
X126667500Y-59690000D03*
%TD*%
D20*
%TO.C,C3*%
X110175000Y-59690000D03*
X112075000Y-59690000D03*
%TD*%
%TO.C,C1*%
X105410000Y-59690000D03*
X107310000Y-59690000D03*
%TD*%
D16*
%TO.C,R6*%
X124817500Y-67310000D03*
X126642500Y-67310000D03*
%TD*%
D10*
%TO.C,BT1*%
X91440000Y-65400000D03*
D11*
X91440000Y-67940000D03*
%TD*%
D16*
%TO.C,R4*%
X120372500Y-67310000D03*
X122197500Y-67310000D03*
%TD*%
D21*
%TO.C,H3*%
X134620000Y-58420000D03*
%TD*%
D19*
%TO.C,D2*%
X120045000Y-59690000D03*
X121920000Y-59690000D03*
%TD*%
D16*
%TO.C,R3*%
X120372500Y-71120000D03*
X122197500Y-71120000D03*
%TD*%
D10*
%TO.C,J4*%
X130170000Y-64135000D03*
D11*
X132710000Y-64135000D03*
X130170000Y-66675000D03*
X132710000Y-66675000D03*
X130170000Y-69215000D03*
X132710000Y-69215000D03*
%TD*%
D20*
%TO.C,C2*%
X120335000Y-74930000D03*
X122235000Y-74930000D03*
%TD*%
%TO.C,C4*%
X120335000Y-78740000D03*
X122235000Y-78740000D03*
%TD*%
D16*
%TO.C,R7*%
X120372500Y-63500000D03*
X122197500Y-63500000D03*
%TD*%
D20*
%TO.C,C5*%
X115255000Y-59690000D03*
X117155000Y-59690000D03*
%TD*%
D22*
%TO.C,Y1*%
X91440000Y-79375000D03*
X91440000Y-74175000D03*
%TD*%
D21*
%TO.C,H2*%
X88900000Y-86360000D03*
%TD*%
%TO.C,H4*%
X134620000Y-86360000D03*
%TD*%
D10*
%TO.C,J2*%
X132715000Y-73025000D03*
D11*
X132715000Y-75565000D03*
X132715000Y-78105000D03*
X132715000Y-80645000D03*
%TD*%
D21*
%TO.C,H1*%
X88900000Y-58420000D03*
%TD*%
D16*
%TO.C,R2*%
X100052500Y-80010000D03*
X101877500Y-80010000D03*
%TD*%
M02*
