M48
; DRILL file {KiCad 9.0.4} date 2025-09-30T03:08:05+0800
; FORMAT={-:-/ absolute / metric / decimal}
; #@! TF.CreationDate,2025-09-30T03:08:05+08:00
; #@! TF.GenerationSoftware,Kicad,Pcbnew,9.0.4
; #@! TF.FileFunction,MixedPlating,1,2
FMAT,2
METRIC
; #@! TA.AperFunction,Plated,PTH,ViaDrill
T1C0.300
; #@! TA.AperFunction,Plated,PTH,ComponentDrill
T2C1.000
; #@! TA.AperFunction,NonPlated,NPTH,ComponentDrill
T3C2.100
%
G90
G05
T1
X93.345Y-78.105
X95.25Y-75.565
X97.155Y-78.74
X97.611Y-61.56
X98.425Y-62.865
X99.06Y-78.74
X100.965Y-62.865
X100.965Y-67.78
X100.965Y-68.58
X105.938Y-63.393
X106.68Y-62.865
X106.68Y-70.485
X106.787Y-67.417
X108.585Y-59.22
X108.585Y-61.595
X109.255Y-66.9
X109.255Y-68.5
X109.855Y-70.485
X111.175Y-59.227
X111.76Y-65.405
X112.395Y-78.105
X112.56Y-65.405
X113.665Y-59.22
X113.665Y-65.405
X114.3Y-68.58
X114.3Y-74.93
X114.935Y-70.485
X115.709Y-70.689
X116.255Y-59.227
X117.101Y-72.129
X118.11Y-59.69
X119.353Y-75.569
X119.38Y-60.96
X120.015Y-76.2
X120.65Y-62.23
X120.757Y-79.903
X121.92Y-66.04
X121.92Y-69.215
X122.555Y-62.23
X122.555Y-73.33
X124.968Y-79.883
X125.095Y-65.886
X125.349Y-74.549
X125.73Y-69.215
X126.151Y-61.381
X127.0Y-71.12
X127.635Y-61.595
X127.635Y-64.686
X128.27Y-66.04
X131.52Y-64.686
T2
X91.44Y-65.4
X91.44Y-67.94
X94.615Y-84.455
X97.155Y-84.455
X99.695Y-84.455
X102.235Y-84.455
X104.775Y-84.455
X107.315Y-84.455
X109.855Y-84.455
X112.395Y-84.455
X114.935Y-84.455
X120.015Y-84.455
X122.555Y-84.455
X125.095Y-84.455
X127.635Y-84.455
X130.17Y-64.135
X130.17Y-66.675
X130.17Y-69.215
X132.71Y-64.135
X132.71Y-66.675
X132.71Y-69.215
X132.715Y-73.025
X132.715Y-75.565
X132.715Y-78.105
X132.715Y-80.645
T3
X88.9Y-58.42
X88.9Y-86.36
X134.62Y-58.42
X134.62Y-86.36
M30
